<svg width="11" height="12" viewBox="0 0 11 12" fill="none" xmlns="http://www.w3.org/2000/svg">
<path d="M3.54003 2.43199H1.27701C1.09704 2.43199 0.95 2.57903 0.95 2.759C0.95 2.93897 1.09704 3.08601 1.27701 3.08601H2.04418V10.0305C2.04418 10.5983 2.49593 11.05 3.06371 11.05H8.28532C8.8531 11.05 9.30485 10.5983 9.30485 10.0305V3.08601H10.072C10.252 3.08601 10.399 2.93897 10.399 2.759C10.399 2.57903 10.252 2.43199 10.072 2.43199H7.82285V1.96953H7.82287L7.82284 1.96821C7.80829 1.41531 7.35754 0.964567 6.80464 0.950017L6.80464 0.95H6.80332H4.55956V0.949983L4.55824 0.950017C4.00534 0.964567 3.55459 1.41531 3.54005 1.96821L3.54003 1.96821V1.96953V2.43199ZM8.65083 10.0304V10.0305C8.65083 10.2383 8.49316 10.396 8.28532 10.396H3.07756C2.86972 10.396 2.71205 10.2383 2.71205 10.0305V3.08601H8.66458L8.65083 10.0304ZM4.19404 2.43199V1.97114C4.20701 1.77588 4.36591 1.61698 4.56117 1.60402H6.80172C6.99697 1.61698 7.15587 1.77588 7.16884 1.97113V2.43199H4.19404Z" fill="#02435D" stroke="#02435D" stroke-width="0.1"/>
<path d="M4.43521 8.88837C4.61518 8.88837 4.76222 8.74133 4.76222 8.56136V4.8356C4.76222 4.65563 4.61518 4.50859 4.43521 4.50859C4.25524 4.50859 4.1082 4.65563 4.1082 4.8356V8.56136C4.1082 8.74133 4.25524 8.88837 4.43521 8.88837Z" fill="#02435D" stroke="#02435D" stroke-width="0.1"/>
<path d="M6.9274 8.88837C7.10737 8.88837 7.25441 8.74133 7.25441 8.56136V4.8356C7.25441 4.65563 7.10737 4.50859 6.9274 4.50859C6.74743 4.50859 6.60039 4.65563 6.60039 4.8356V8.56136C6.60039 8.74133 6.74743 8.88837 6.9274 8.88837Z" fill="#02435D" stroke="#02435D" stroke-width="0.1"/>
</svg>
