<svg width="10" height="10" viewBox="0 0 10 10" fill="none" xmlns="http://www.w3.org/2000/svg">
<path d="M9.47135 0.494792C9.13391 0.177979 8.67628 0 8.19911 0C7.72194 0 7.2643 0.177979 6.92686 0.494792L0.95018 6.1072C0.911713 6.14314 0.883595 6.18767 0.868461 6.23661L0.0128186 9.00369C-0.00326709 9.05548 -0.00423156 9.11038 0.0100262 9.16264C0.0242839 9.2149 0.0532397 9.2626 0.0938622 9.30074C0.134485 9.33889 0.185281 9.36608 0.240932 9.37947C0.296584 9.39286 0.355045 9.39195 0.410196 9.37685L3.35687 8.57335C3.40899 8.55914 3.4564 8.53274 3.49467 8.49662L9.47135 2.88872C9.63894 2.73163 9.77189 2.54506 9.8626 2.33967C9.95331 2.13428 10 1.91411 10 1.69176C10 1.4694 9.95331 1.24923 9.8626 1.04384C9.77189 0.838454 9.63894 0.651878 9.47135 0.494792ZM1.31391 6.94229L2.59577 8.14603L0.789947 8.64558L1.31391 6.94229ZM3.2367 7.89023L1.59592 6.34946L6.62883 1.6248L8.26801 3.16407L3.2367 7.89023ZM9.0211 2.45838L8.72147 2.73825L7.08228 1.19898L7.37871 0.920613C7.59587 0.716493 7.89048 0.60174 8.19774 0.601599C8.50499 0.601457 8.79972 0.71594 9.01709 0.919861C9.23446 1.12378 9.35666 1.40044 9.35681 1.68897C9.35696 1.9775 9.23505 2.25426 9.0179 2.45838H9.0211Z" fill="#02435D"/>
</svg>
