<svg width="31" height="46" viewBox="0 0 31 46" fill="none" xmlns="http://www.w3.org/2000/svg">
<circle cx="16" cy="12" r="12" fill="#02435D" fill-opacity="0.06"/>
<path d="M19.5347 8.45816C19.7546 8.67767 19.7548 9.03382 19.5353 9.25366L17.0767 11.7154C16.9207 11.8716 16.9207 12.1246 17.0767 12.2807L19.5353 14.7428C19.7365 14.9443 19.7531 15.2603 19.5851 15.4807L19.5347 15.5383C19.3149 15.7578 18.9588 15.7575 18.7392 15.5377L16.2825 13.0772C16.1263 12.9207 15.8726 12.9207 15.7164 13.0773L13.2606 15.5377C13.0411 15.7575 12.6849 15.7578 12.4651 15.5383C12.2453 15.3187 12.245 14.9626 12.4645 14.7428L14.9228 12.2807C15.0788 12.1246 15.0788 11.8716 14.9228 11.7154L12.4645 9.25366C12.2633 9.05214 12.2467 8.73608 12.4147 8.51573L12.4651 8.45816C12.6849 8.23865 13.0411 8.23892 13.2606 8.45875L15.7164 10.9184C15.8727 11.0749 16.1262 11.0749 16.2825 10.9184L18.7392 8.45875C18.9588 8.23892 19.3149 8.23865 19.5347 8.45816Z" fill="#02435D"/>
<path d="M6.33496 40.7441C6.24707 41.4961 5.96875 42.0771 5.5 42.4873C5.03451 42.8942 4.41439 43.0977 3.63965 43.0977C2.7998 43.0977 2.12598 42.7965 1.61816 42.1943C1.11361 41.5921 0.861328 40.7865 0.861328 39.7773V39.0938C0.861328 38.4329 0.978516 37.8519 1.21289 37.3506C1.45052 36.8493 1.78581 36.4652 2.21875 36.1982C2.65169 35.9281 3.15299 35.793 3.72266 35.793C4.47786 35.793 5.08333 36.0046 5.53906 36.4277C5.99479 36.8477 6.26009 37.4303 6.33496 38.1758H5.39258C5.3112 37.6094 5.13379 37.1992 4.86035 36.9453C4.59017 36.6914 4.21094 36.5645 3.72266 36.5645C3.1237 36.5645 2.65332 36.7858 2.31152 37.2285C1.97298 37.6712 1.80371 38.3011 1.80371 39.1182V39.8066C1.80371 40.5781 1.96484 41.1917 2.28711 41.6475C2.60938 42.1032 3.06022 42.3311 3.63965 42.3311C4.16048 42.3311 4.55924 42.2139 4.83594 41.9795C5.11589 41.7419 5.30143 41.3301 5.39258 40.7441H6.33496ZM10.7393 43C10.6872 42.8958 10.6449 42.7103 10.6123 42.4434C10.1924 42.8796 9.69108 43.0977 9.1084 43.0977C8.58757 43.0977 8.15951 42.9512 7.82422 42.6582C7.49219 42.362 7.32617 41.9876 7.32617 41.5352C7.32617 40.985 7.53451 40.5586 7.95117 40.2559C8.37109 39.9499 8.96029 39.7969 9.71875 39.7969H10.5977V39.3818C10.5977 39.0661 10.5033 38.8154 10.3145 38.6299C10.1257 38.4411 9.84733 38.3467 9.47949 38.3467C9.15723 38.3467 8.88704 38.4281 8.66895 38.5908C8.45085 38.7536 8.3418 38.9505 8.3418 39.1816H7.43359C7.43359 38.918 7.52637 38.6641 7.71191 38.4199C7.90072 38.1725 8.15462 37.9772 8.47363 37.834C8.7959 37.6908 9.14909 37.6191 9.5332 37.6191C10.1419 37.6191 10.6188 37.7721 10.9639 38.0781C11.3089 38.3809 11.488 38.7992 11.501 39.333V41.7646C11.501 42.2497 11.5628 42.6354 11.6865 42.9219V43H10.7393ZM9.24023 42.3115C9.52344 42.3115 9.79199 42.2383 10.0459 42.0918C10.2998 41.9453 10.4837 41.7549 10.5977 41.5205V40.4365H9.88965C8.78288 40.4365 8.22949 40.7604 8.22949 41.4082C8.22949 41.6914 8.32389 41.9128 8.5127 42.0723C8.7015 42.2318 8.94401 42.3115 9.24023 42.3115ZM13.7715 37.7168L13.8008 38.3809C14.2044 37.873 14.7318 37.6191 15.3828 37.6191C16.4993 37.6191 17.0625 38.249 17.0723 39.5088V43H16.1689V39.5039C16.1657 39.123 16.0778 38.8415 15.9053 38.6592C15.736 38.4769 15.4707 38.3857 15.1094 38.3857C14.8164 38.3857 14.5592 38.4639 14.3379 38.6201C14.1165 38.7764 13.944 38.9814 13.8203 39.2354V43H12.917V37.7168H13.7715ZM20.5537 42.3604C20.876 42.3604 21.1576 42.2627 21.3984 42.0674C21.6393 41.8721 21.7728 41.6279 21.7988 41.335H22.6533C22.637 41.6377 22.5329 41.9258 22.3408 42.1992C22.1488 42.4727 21.8916 42.6908 21.5693 42.8535C21.2503 43.0163 20.9118 43.0977 20.5537 43.0977C19.8343 43.0977 19.2614 42.8584 18.835 42.3799C18.4118 41.8981 18.2002 41.2406 18.2002 40.4072V40.2559C18.2002 39.7415 18.2946 39.2842 18.4834 38.8838C18.6722 38.4834 18.9424 38.1725 19.2939 37.9512C19.6488 37.7298 20.0671 37.6191 20.5488 37.6191C21.1413 37.6191 21.6328 37.7965 22.0234 38.1514C22.4173 38.5062 22.6273 38.9668 22.6533 39.5332H21.7988C21.7728 39.1914 21.6426 38.9115 21.4082 38.6934C21.1771 38.472 20.8906 38.3613 20.5488 38.3613C20.0898 38.3613 19.7334 38.5273 19.4795 38.8594C19.2288 39.1882 19.1035 39.665 19.1035 40.29V40.4609C19.1035 41.0697 19.2288 41.5384 19.4795 41.8672C19.7301 42.196 20.0882 42.3604 20.5537 42.3604ZM25.8613 43.0977C25.1452 43.0977 24.5625 42.8633 24.1133 42.3945C23.6641 41.9225 23.4395 41.2926 23.4395 40.5049V40.3389C23.4395 39.8148 23.5387 39.3477 23.7373 38.9375C23.9391 38.5241 24.2191 38.2018 24.5771 37.9707C24.9385 37.7363 25.3291 37.6191 25.749 37.6191C26.4359 37.6191 26.9697 37.8454 27.3506 38.2979C27.7314 38.7503 27.9219 39.3981 27.9219 40.2412V40.6172H24.3428C24.3558 41.138 24.5072 41.5596 24.7969 41.8818C25.0898 42.2008 25.4609 42.3604 25.9102 42.3604C26.2292 42.3604 26.4993 42.2952 26.7207 42.165C26.9421 42.0348 27.1357 41.8623 27.3018 41.6475L27.8535 42.0771C27.4108 42.7575 26.7467 43.0977 25.8613 43.0977ZM25.749 38.3613C25.3844 38.3613 25.0785 38.4948 24.8311 38.7617C24.5837 39.0254 24.4307 39.3965 24.3721 39.875H27.0186V39.8066C26.9925 39.3477 26.8688 38.9928 26.6475 38.7422C26.4261 38.4883 26.1266 38.3613 25.749 38.3613ZM29.9531 43H29.0498V35.5H29.9531V43Z" fill="#02435D"/>
</svg>
