<svg width="26" height="46" viewBox="0 0 26 46" fill="none" xmlns="http://www.w3.org/2000/svg">
<circle cx="13" cy="12" r="12" fill="#02435D" fill-opacity="0.06"/>
<path d="M16.5347 8.45816C16.7546 8.67767 16.7548 9.03382 16.5353 9.25366L14.0767 11.7154C13.9207 11.8716 13.9207 12.1246 14.0767 12.2807L16.5353 14.7428C16.7365 14.9443 16.7531 15.2603 16.5851 15.4807L16.5347 15.5383C16.3149 15.7578 15.9588 15.7575 15.7392 15.5377L13.2825 13.0772C13.1263 12.9207 12.8726 12.9207 12.7164 13.0773L10.2606 15.5377C10.0411 15.7575 9.68493 15.7578 9.46509 15.5383C9.24526 15.3187 9.245 14.9626 9.46451 14.7428L11.9228 12.2807C12.0788 12.1246 12.0788 11.8716 11.9228 11.7154L9.46451 9.25366C9.26329 9.05214 9.24675 8.73608 9.41471 8.51573L9.46509 8.45816C9.68493 8.23865 10.0411 8.23892 10.2606 8.45875L12.7164 10.9184C12.8727 11.0749 13.1262 11.0749 13.2825 10.9184L15.7392 8.45875C15.9588 8.23892 16.3149 8.23865 16.5347 8.45816Z" fill="#02435D"/>
<path d="M6.50098 40.7441C6.41309 41.4961 6.13477 42.0771 5.66602 42.4873C5.20052 42.8942 4.5804 43.0977 3.80566 43.0977C2.96582 43.0977 2.29199 42.7965 1.78418 42.1943C1.27962 41.5921 1.02734 40.7865 1.02734 39.7773V39.0938C1.02734 38.4329 1.14453 37.8519 1.37891 37.3506C1.61654 36.8493 1.95182 36.4652 2.38477 36.1982C2.81771 35.9281 3.31901 35.793 3.88867 35.793C4.64388 35.793 5.24935 36.0046 5.70508 36.4277C6.16081 36.8477 6.42611 37.4303 6.50098 38.1758H5.55859C5.47721 37.6094 5.2998 37.1992 5.02637 36.9453C4.75618 36.6914 4.37695 36.5645 3.88867 36.5645C3.28971 36.5645 2.81934 36.7858 2.47754 37.2285C2.139 37.6712 1.96973 38.3011 1.96973 39.1182V39.8066C1.96973 40.5781 2.13086 41.1917 2.45312 41.6475C2.77539 42.1032 3.22624 42.3311 3.80566 42.3311C4.3265 42.3311 4.72526 42.2139 5.00195 41.9795C5.2819 41.7419 5.46745 41.3301 5.55859 40.7441H6.50098ZM8.625 43H7.72168V35.5H8.625V43ZM9.83594 40.3096C9.83594 39.792 9.93685 39.3265 10.1387 38.9131C10.3438 38.4997 10.627 38.1807 10.9883 37.9561C11.3529 37.7314 11.7679 37.6191 12.2334 37.6191C12.9528 37.6191 13.5339 37.8682 13.9766 38.3662C14.4225 38.8643 14.6455 39.5267 14.6455 40.3535V40.417C14.6455 40.9313 14.5462 41.3936 14.3477 41.8037C14.1523 42.2106 13.8708 42.528 13.5029 42.7559C13.1383 42.9837 12.7184 43.0977 12.2432 43.0977C11.527 43.0977 10.946 42.8486 10.5 42.3506C10.0573 41.8525 9.83594 41.1934 9.83594 40.373V40.3096ZM10.7441 40.417C10.7441 41.0029 10.8792 41.4733 11.1494 41.8281C11.4229 42.1829 11.7874 42.3604 12.2432 42.3604C12.7021 42.3604 13.0667 42.1813 13.3369 41.8232C13.6071 41.4619 13.7422 40.9574 13.7422 40.3096C13.7422 39.7301 13.6038 39.2614 13.3271 38.9033C13.0537 38.542 12.6891 38.3613 12.2334 38.3613C11.7874 38.3613 11.4277 38.5387 11.1543 38.8936C10.8809 39.2484 10.7441 39.7562 10.7441 40.417ZM18.8545 41.5986C18.8545 41.3545 18.7617 41.1657 18.5762 41.0322C18.3939 40.8955 18.0732 40.7783 17.6143 40.6807C17.1585 40.583 16.7956 40.4658 16.5254 40.3291C16.2585 40.1924 16.0599 40.0296 15.9297 39.8408C15.8027 39.652 15.7393 39.4274 15.7393 39.167C15.7393 38.734 15.9215 38.3678 16.2861 38.0684C16.654 37.7689 17.1227 37.6191 17.6924 37.6191C18.2913 37.6191 18.7764 37.7738 19.1475 38.083C19.5218 38.3923 19.709 38.7878 19.709 39.2695H18.8008C18.8008 39.0221 18.695 38.8089 18.4834 38.6299C18.2751 38.4508 18.0114 38.3613 17.6924 38.3613C17.3636 38.3613 17.1064 38.4329 16.9209 38.5762C16.7354 38.7194 16.6426 38.9066 16.6426 39.1377C16.6426 39.3558 16.7288 39.5202 16.9014 39.6309C17.0739 39.7415 17.3848 39.8473 17.834 39.9482C18.2865 40.0492 18.6527 40.1696 18.9326 40.3096C19.2126 40.4495 19.4193 40.6188 19.5527 40.8174C19.6895 41.0127 19.7578 41.252 19.7578 41.5352C19.7578 42.0072 19.569 42.3864 19.1914 42.6729C18.8138 42.9561 18.3239 43.0977 17.7217 43.0977C17.2985 43.0977 16.9242 43.0228 16.5986 42.873C16.2731 42.7233 16.0176 42.515 15.832 42.248C15.6497 41.9779 15.5586 41.6865 15.5586 41.374H16.4619C16.4782 41.6768 16.5986 41.9176 16.8232 42.0967C17.0511 42.2725 17.3506 42.3604 17.7217 42.3604C18.0635 42.3604 18.3369 42.292 18.542 42.1553C18.7503 42.0153 18.8545 41.8298 18.8545 41.5986ZM23.127 43.0977C22.4108 43.0977 21.8281 42.8633 21.3789 42.3945C20.9297 41.9225 20.7051 41.2926 20.7051 40.5049V40.3389C20.7051 39.8148 20.8044 39.3477 21.0029 38.9375C21.2048 38.5241 21.4847 38.2018 21.8428 37.9707C22.2041 37.7363 22.5947 37.6191 23.0146 37.6191C23.7015 37.6191 24.2354 37.8454 24.6162 38.2979C24.9971 38.7503 25.1875 39.3981 25.1875 40.2412V40.6172H21.6084C21.6214 41.138 21.7728 41.5596 22.0625 41.8818C22.3555 42.2008 22.7266 42.3604 23.1758 42.3604C23.4948 42.3604 23.765 42.2952 23.9863 42.165C24.2077 42.0348 24.4014 41.8623 24.5674 41.6475L25.1191 42.0771C24.6764 42.7575 24.0124 43.0977 23.127 43.0977ZM23.0146 38.3613C22.6501 38.3613 22.3441 38.4948 22.0967 38.7617C21.8493 39.0254 21.6963 39.3965 21.6377 39.875H24.2842V39.8066C24.2581 39.3477 24.1344 38.9928 23.9131 38.7422C23.6917 38.4883 23.3923 38.3613 23.0146 38.3613Z" fill="#02435D"/>
</svg>
