<svg width="50" height="58" viewBox="0 0 50 58" fill="none" xmlns="http://www.w3.org/2000/svg">
<path d="M43.8612 17.4133C44.1875 15.6977 43.9935 13.9252 43.3035 12.3181C42.6134 10.7109 41.4582 9.34067 39.9825 8.37915C38.5068 7.41764 36.7764 6.90765 35.0083 6.91315C33.2402 6.91865 31.5131 7.43939 30.0436 8.41007C28.9764 5.84889 27.042 3.73273 24.5704 2.42271C22.0989 1.1127 19.2435 0.690043 16.4915 1.22687C13.7395 1.76369 11.2615 3.22672 9.48036 5.36628C7.69923 7.50585 6.72538 10.1893 6.72501 12.9588C6.72501 13.1071 6.72501 13.2531 6.72501 13.399C4.98511 13.8886 3.46859 14.9538 2.42975 16.4161C1.39091 17.8784 0.89291 19.6489 1.01927 21.4306C1.14562 23.2124 1.88865 24.8971 3.12375 26.2022C4.35885 27.5073 6.01092 28.3536 7.80295 28.599V28.6814H43.4749C44.9241 28.6317 46.3003 28.0409 47.3253 27.0281C48.3503 26.0153 48.9477 24.6562 48.9967 23.2254C49.0458 21.7945 48.5429 20.3987 47.5896 19.3198C46.6363 18.2409 45.3038 17.5595 43.8612 17.4133Z" fill="#4DC0E0" stroke="#02435D" stroke-width="0.5" stroke-linecap="round" stroke-linejoin="round"/>
<path d="M31.4554 48.3853L30.5611 49.1857L32.4928 51.4436L33.6446 51.0057L31.4554 48.3853Z" fill="#263238" stroke="#263238" stroke-width="0.2" stroke-linecap="round" stroke-linejoin="round"/>
<path d="M30.5683 21.863L24.2867 14.0582L18.0075 21.863H20.4639V33.6138H28.1119V21.863H30.5683Z" fill="#02435D" stroke="#02435D" stroke-width="0.2" stroke-linecap="round" stroke-linejoin="round"/>
<path d="M30.5683 21.3568L24.2867 13.552L18.0075 21.3568H20.4639V33.1076H28.1119V21.3568H30.5683Z" fill="white" stroke="#02435D" stroke-width="0.5" stroke-linecap="round" stroke-linejoin="round"/>
<path d="M36.5374 31.7821H10.9938V57H36.5374V31.7821Z" fill="white" stroke="#02435D" stroke-width="0.5" stroke-linecap="round" stroke-linejoin="round"/>
<path d="M35.3498 32.9546H12.1814V55.8275H35.3498V32.9546Z" fill="#FF7D7C" stroke="#02435D" stroke-width="0.5" stroke-linecap="round" stroke-linejoin="round"/>
<path d="M29.9768 40.6558L24.5729 46.231L20.3661 45.0679C20.1588 45.0109 19.9411 45.0007 19.7293 45.0382C19.5175 45.0757 19.317 45.1599 19.1427 45.2845L12.1814 50.2782V55.8369H35.3498V44.0649L32.0349 40.6534C31.9013 40.5172 31.7413 40.409 31.5644 40.3351C31.3876 40.2612 31.1974 40.2233 31.0054 40.2235C30.8133 40.2237 30.6233 40.2621 30.4466 40.3364C30.2699 40.4106 30.1101 40.5193 29.9768 40.6558Z" fill="white" stroke="#02435D" stroke-width="0.5" stroke-linecap="round" stroke-linejoin="round"/>
<path d="M23.4762 40.204C24.0895 38.7293 23.3757 37.043 21.8819 36.4376C20.3881 35.8321 18.6801 36.5368 18.0668 38.0115C17.4536 39.4863 18.1674 41.1726 19.6611 41.778C21.1549 42.3834 22.863 41.6787 23.4762 40.204Z" fill="white" stroke="#02435D" stroke-width="0.5" stroke-linecap="round" stroke-linejoin="round"/>
</svg>
