<svg width="28" height="46" viewBox="0 0 28 46" fill="none" xmlns="http://www.w3.org/2000/svg">
<path d="M1.92969 40.2168V43H0.992188V35.8906H3.61426C4.39225 35.8906 5.00098 36.0892 5.44043 36.4863C5.88314 36.8835 6.10449 37.4092 6.10449 38.0635C6.10449 38.7536 5.88802 39.2858 5.45508 39.6602C5.02539 40.0312 4.40853 40.2168 3.60449 40.2168H1.92969ZM1.92969 39.4502H3.61426C4.11556 39.4502 4.49967 39.333 4.7666 39.0986C5.03353 38.861 5.16699 38.5192 5.16699 38.0732C5.16699 37.6501 5.03353 37.3115 4.7666 37.0576C4.49967 36.8037 4.13346 36.6719 3.66797 36.6621H1.92969V39.4502ZM10.3623 43C10.3102 42.8958 10.2679 42.7103 10.2354 42.4434C9.81543 42.8796 9.31413 43.0977 8.73145 43.0977C8.21061 43.0977 7.78255 42.9512 7.44727 42.6582C7.11523 42.362 6.94922 41.9876 6.94922 41.5352C6.94922 40.985 7.15755 40.5586 7.57422 40.2559C7.99414 39.9499 8.58333 39.7969 9.3418 39.7969H10.2207V39.3818C10.2207 39.0661 10.1263 38.8154 9.9375 38.6299C9.7487 38.4411 9.47038 38.3467 9.10254 38.3467C8.78027 38.3467 8.51009 38.4281 8.29199 38.5908C8.07389 38.7536 7.96484 38.9505 7.96484 39.1816H7.05664C7.05664 38.918 7.14941 38.6641 7.33496 38.4199C7.52376 38.1725 7.77767 37.9772 8.09668 37.834C8.41895 37.6908 8.77214 37.6191 9.15625 37.6191C9.76497 37.6191 10.2419 37.7721 10.5869 38.0781C10.932 38.3809 11.111 38.7992 11.124 39.333V41.7646C11.124 42.2497 11.1859 42.6354 11.3096 42.9219V43H10.3623ZM8.86328 42.3115C9.14648 42.3115 9.41504 42.2383 9.66895 42.0918C9.92285 41.9453 10.1068 41.7549 10.2207 41.5205V40.4365H9.5127C8.40592 40.4365 7.85254 40.7604 7.85254 41.4082C7.85254 41.6914 7.94694 41.9128 8.13574 42.0723C8.32454 42.2318 8.56706 42.3115 8.86328 42.3115ZM15.8018 42.4775C15.4502 42.891 14.9342 43.0977 14.2539 43.0977C13.6908 43.0977 13.2611 42.9349 12.9648 42.6094C12.6719 42.2806 12.5238 41.7956 12.5205 41.1543V37.7168H13.4238V41.1299C13.4238 41.9307 13.7493 42.3311 14.4004 42.3311C15.0905 42.3311 15.5495 42.0739 15.7773 41.5596V37.7168H16.6807V43H15.8213L15.8018 42.4775ZM21.1338 41.5986C21.1338 41.3545 21.041 41.1657 20.8555 41.0322C20.6732 40.8955 20.3525 40.7783 19.8936 40.6807C19.4378 40.583 19.0749 40.4658 18.8047 40.3291C18.5378 40.1924 18.3392 40.0296 18.209 39.8408C18.082 39.652 18.0186 39.4274 18.0186 39.167C18.0186 38.734 18.2008 38.3678 18.5654 38.0684C18.9333 37.7689 19.402 37.6191 19.9717 37.6191C20.5706 37.6191 21.0557 37.7738 21.4268 38.083C21.8011 38.3923 21.9883 38.7878 21.9883 39.2695H21.0801C21.0801 39.0221 20.9743 38.8089 20.7627 38.6299C20.5544 38.4508 20.2907 38.3613 19.9717 38.3613C19.6429 38.3613 19.3857 38.4329 19.2002 38.5762C19.0146 38.7194 18.9219 38.9066 18.9219 39.1377C18.9219 39.3558 19.0081 39.5202 19.1807 39.6309C19.3532 39.7415 19.6641 39.8473 20.1133 39.9482C20.5658 40.0492 20.932 40.1696 21.2119 40.3096C21.4919 40.4495 21.6986 40.6188 21.832 40.8174C21.9688 41.0127 22.0371 41.252 22.0371 41.5352C22.0371 42.0072 21.8483 42.3864 21.4707 42.6729C21.0931 42.9561 20.6032 43.0977 20.001 43.0977C19.5778 43.0977 19.2035 43.0228 18.8779 42.873C18.5524 42.7233 18.2969 42.515 18.1113 42.248C17.929 41.9779 17.8379 41.6865 17.8379 41.374H18.7412C18.7575 41.6768 18.8779 41.9176 19.1025 42.0967C19.3304 42.2725 19.6299 42.3604 20.001 42.3604C20.3428 42.3604 20.6162 42.292 20.8213 42.1553C21.0296 42.0153 21.1338 41.8298 21.1338 41.5986ZM25.4062 43.0977C24.6901 43.0977 24.1074 42.8633 23.6582 42.3945C23.209 41.9225 22.9844 41.2926 22.9844 40.5049V40.3389C22.9844 39.8148 23.0837 39.3477 23.2822 38.9375C23.484 38.5241 23.764 38.2018 24.1221 37.9707C24.4834 37.7363 24.874 37.6191 25.2939 37.6191C25.9808 37.6191 26.5146 37.8454 26.8955 38.2979C27.2764 38.7503 27.4668 39.3981 27.4668 40.2412V40.6172H23.8877C23.9007 41.138 24.0521 41.5596 24.3418 41.8818C24.6348 42.2008 25.0059 42.3604 25.4551 42.3604C25.7741 42.3604 26.0443 42.2952 26.2656 42.165C26.487 42.0348 26.6807 41.8623 26.8467 41.6475L27.3984 42.0771C26.9557 42.7575 26.2917 43.0977 25.4062 43.0977ZM25.2939 38.3613C24.9294 38.3613 24.6234 38.4948 24.376 38.7617C24.1286 39.0254 23.9756 39.3965 23.917 39.875H26.5635V39.8066C26.5374 39.3477 26.4137 38.9928 26.1924 38.7422C25.971 38.4883 25.6715 38.3613 25.2939 38.3613Z" fill="#02435D"/>
<circle cx="14" cy="12" r="12" fill="#02435D" fill-opacity="0.06"/>
<path fill-rule="evenodd" clip-rule="evenodd" d="M12.125 7.78125C12.2493 7.78125 12.3685 7.83064 12.4565 7.91854C12.5444 8.00645 12.5938 8.12568 12.5938 8.25V15.75C12.5938 15.8743 12.5444 15.9935 12.4565 16.0815C12.3685 16.1694 12.2493 16.2188 12.125 16.2188C12.0007 16.2188 11.8815 16.1694 11.7935 16.0815C11.7056 15.9935 11.6562 15.8743 11.6562 15.75V8.25C11.6562 8.12568 11.7056 8.00645 11.7935 7.91854C11.8815 7.83064 12.0007 7.78125 12.125 7.78125ZM15.875 7.78125C15.9993 7.78125 16.1185 7.83064 16.2065 7.91854C16.2944 8.00645 16.3438 8.12568 16.3438 8.25V15.75C16.3438 15.8743 16.2944 15.9935 16.2065 16.0815C16.1185 16.1694 15.9993 16.2188 15.875 16.2188C15.7507 16.2188 15.6315 16.1694 15.5435 16.0815C15.4556 15.9935 15.4062 15.8743 15.4062 15.75V8.25C15.4062 8.12568 15.4556 8.00645 15.5435 7.91854C15.6315 7.83064 15.7507 7.78125 15.875 7.78125Z" fill="#02435D" stroke="#02435D" stroke-width="0.4"/>
</svg>
