<svg width="38" height="56" viewBox="0 0 38 56" fill="none" xmlns="http://www.w3.org/2000/svg">
<circle cx="19" cy="18" r="18" fill="#F56C6C"/>
<mask id="path-2-outside-1" maskUnits="userSpaceOnUse" x="9" y="9" width="20" height="18" fill="black">
<rect fill="white" x="9" y="9" width="20" height="18"/>
<path fill-rule="evenodd" clip-rule="evenodd" d="M27.1369 14.3242V15.3011C27.5149 15.3011 27.8468 15.4611 28.0819 15.7348C28.3214 16.0084 28.4389 16.3748 28.3885 16.7369L27.3637 24.2442C27.225 25.2421 26.3681 26 25.3643 26H13.0447C12.0451 26 11.1882 25.2463 11.0496 24.2527L10.0121 16.7367C9.96166 16.3747 10.0709 16.0084 10.3102 15.7347C10.5497 15.461 10.8942 15.3052 11.2596 15.3052H11.394L11.2512 12.1263C11.2259 11.5706 11.4233 11.0358 11.8056 10.6316C12.1878 10.2274 12.7086 10 13.2631 10H16.7032C17.4089 10 18.0682 10.3874 18.4338 10.9896L18.8705 11.7348C19.0805 12.0884 19.467 12.3158 19.8786 12.3158H25.1332C26.2464 12.3158 27.1369 13.2084 27.1369 14.3242ZM12.4105 11.2168C12.1878 11.4527 12.0744 11.7684 12.087 12.0927L12.234 15.3052H26.2926V14.3284C26.2926 13.6758 25.7759 13.1621 25.1291 13.1621H19.8745C19.1688 13.1621 18.5051 12.7747 18.1439 12.1684L17.707 11.4231C17.497 11.0695 17.1106 10.8421 16.699 10.8421H13.2589C12.9355 10.8421 12.6331 10.9811 12.4105 11.2168ZM27.5569 16.619L26.532 24.1305C26.4522 24.7116 25.9523 25.1579 25.3685 25.1579H13.0489C12.4651 25.1579 11.9652 24.7116 11.8854 24.1347L10.8395 16.6232C10.8228 16.501 10.8563 16.3831 10.9403 16.2905C11.0243 16.1979 11.1336 16.1474 11.2554 16.1474H27.1411C27.2628 16.1474 27.3762 16.1937 27.4561 16.2905C27.54 16.3831 27.5737 16.4968 27.5569 16.619ZM19.1982 17.3979C19.3158 17.3979 19.425 17.4484 19.5048 17.5327L21.9578 20.181C22.1175 20.3495 22.1049 20.6147 21.9369 20.7747C21.857 20.8504 21.752 20.8884 21.6512 20.8884C21.5378 20.8884 21.4285 20.842 21.3446 20.7536L19.614 18.8884V23.4863C19.614 23.7179 19.425 23.9073 19.194 23.9073C18.963 23.9073 18.7739 23.7179 18.7739 23.4863V18.8884L17.0435 20.7536C16.8881 20.9221 16.6192 20.9347 16.4512 20.7747C16.2832 20.619 16.2705 20.3495 16.4301 20.181L18.8916 17.5327C18.9715 17.4484 19.0805 17.3979 19.1982 17.3979Z"/>
</mask>
<path fill-rule="evenodd" clip-rule="evenodd" d="M27.1369 14.3242V15.3011C27.5149 15.3011 27.8468 15.4611 28.0819 15.7348C28.3214 16.0084 28.4389 16.3748 28.3885 16.7369L27.3637 24.2442C27.225 25.2421 26.3681 26 25.3643 26H13.0447C12.0451 26 11.1882 25.2463 11.0496 24.2527L10.0121 16.7367C9.96166 16.3747 10.0709 16.0084 10.3102 15.7347C10.5497 15.461 10.8942 15.3052 11.2596 15.3052H11.394L11.2512 12.1263C11.2259 11.5706 11.4233 11.0358 11.8056 10.6316C12.1878 10.2274 12.7086 10 13.2631 10H16.7032C17.4089 10 18.0682 10.3874 18.4338 10.9896L18.8705 11.7348C19.0805 12.0884 19.467 12.3158 19.8786 12.3158H25.1332C26.2464 12.3158 27.1369 13.2084 27.1369 14.3242ZM12.4105 11.2168C12.1878 11.4527 12.0744 11.7684 12.087 12.0927L12.234 15.3052H26.2926V14.3284C26.2926 13.6758 25.7759 13.1621 25.1291 13.1621H19.8745C19.1688 13.1621 18.5051 12.7747 18.1439 12.1684L17.707 11.4231C17.497 11.0695 17.1106 10.8421 16.699 10.8421H13.2589C12.9355 10.8421 12.6331 10.9811 12.4105 11.2168ZM27.5569 16.619L26.532 24.1305C26.4522 24.7116 25.9523 25.1579 25.3685 25.1579H13.0489C12.4651 25.1579 11.9652 24.7116 11.8854 24.1347L10.8395 16.6232C10.8228 16.501 10.8563 16.3831 10.9403 16.2905C11.0243 16.1979 11.1336 16.1474 11.2554 16.1474H27.1411C27.2628 16.1474 27.3762 16.1937 27.4561 16.2905C27.54 16.3831 27.5737 16.4968 27.5569 16.619ZM19.1982 17.3979C19.3158 17.3979 19.425 17.4484 19.5048 17.5327L21.9578 20.181C22.1175 20.3495 22.1049 20.6147 21.9369 20.7747C21.857 20.8504 21.752 20.8884 21.6512 20.8884C21.5378 20.8884 21.4285 20.842 21.3446 20.7536L19.614 18.8884V23.4863C19.614 23.7179 19.425 23.9073 19.194 23.9073C18.963 23.9073 18.7739 23.7179 18.7739 23.4863V18.8884L17.0435 20.7536C16.8881 20.9221 16.6192 20.9347 16.4512 20.7747C16.2832 20.619 16.2705 20.3495 16.4301 20.181L18.8916 17.5327C18.9715 17.4484 19.0805 17.3979 19.1982 17.3979Z" fill="white"/>
<path d="M27.1369 15.3011H26.9369V15.5011H27.1369V15.3011ZM28.0819 15.7348L27.9302 15.8651L27.9314 15.8666L28.0819 15.7348ZM28.3885 16.7369L28.1904 16.7093L28.1903 16.7098L28.3885 16.7369ZM27.3637 24.2442L27.5618 24.2718L27.5619 24.2713L27.3637 24.2442ZM11.0496 24.2527L10.8515 24.28L10.8515 24.2803L11.0496 24.2527ZM10.0121 16.7367L10.2102 16.7094L10.2101 16.7092L10.0121 16.7367ZM10.3102 15.7347L10.1597 15.603L10.1597 15.603L10.3102 15.7347ZM11.394 15.3052V15.5052H11.6031L11.5938 15.2962L11.394 15.3052ZM11.2512 12.1263L11.451 12.1173L11.451 12.1172L11.2512 12.1263ZM11.8056 10.6316L11.6603 10.4941L11.6602 10.4942L11.8056 10.6316ZM18.4338 10.9896L18.6064 10.8884L18.6048 10.8858L18.4338 10.9896ZM18.8705 11.7348L18.698 11.8359L18.6986 11.8369L18.8705 11.7348ZM12.087 12.0927L11.8872 12.1005L11.8872 12.1018L12.087 12.0927ZM12.4105 11.2168L12.2651 11.0795L12.265 11.0795L12.4105 11.2168ZM12.234 15.3052L12.0342 15.3143L12.0429 15.5052H12.234V15.3052ZM26.2926 15.3052V15.5052H26.4926V15.3052H26.2926ZM18.1439 12.1684L17.9714 12.2695L17.9721 12.2707L18.1439 12.1684ZM17.707 11.4231L17.8796 11.322L17.879 11.321L17.707 11.4231ZM26.532 24.1305L26.7301 24.1577L26.7301 24.1576L26.532 24.1305ZM27.5569 16.619L27.3588 16.5916L27.3587 16.5919L27.5569 16.619ZM11.8854 24.1347L12.0836 24.1074L12.0835 24.1072L11.8854 24.1347ZM10.8395 16.6232L10.6413 16.6503L10.6414 16.6508L10.8395 16.6232ZM10.9403 16.2905L10.7922 16.1561L10.7921 16.1562L10.9403 16.2905ZM27.4561 16.2905L27.3016 16.4179L27.3079 16.4249L27.4561 16.2905ZM19.5048 17.5327L19.6515 17.3968L19.6501 17.3952L19.5048 17.5327ZM21.9578 20.181L21.811 20.317L21.8127 20.3187L21.9578 20.181ZM21.9369 20.7747L22.0744 20.9199L22.0748 20.9196L21.9369 20.7747ZM21.3446 20.7536L21.198 20.8897L21.1996 20.8914L21.3446 20.7536ZM19.614 18.8884L19.7606 18.7523L19.414 18.3788V18.8884H19.614ZM18.7739 18.8884H18.9739V18.3787L18.6273 18.7523L18.7739 18.8884ZM17.0435 20.7536L16.8968 20.6176L16.8965 20.618L17.0435 20.7536ZM16.4512 20.7747L16.5891 20.6299L16.5872 20.6281L16.4512 20.7747ZM16.4301 20.181L16.5753 20.3186L16.5766 20.3172L16.4301 20.181ZM18.8916 17.5327L18.7464 17.3951L18.7451 17.3965L18.8916 17.5327ZM27.3369 15.3011V14.3242H26.9369V15.3011H27.3369ZM28.2336 15.6045C27.9614 15.2876 27.5746 15.1011 27.1369 15.1011V15.5011C27.4552 15.5011 27.7322 15.6346 27.9302 15.8651L28.2336 15.6045ZM28.5866 16.7645C28.6454 16.342 28.5081 15.9181 28.2324 15.6031L27.9314 15.8666C28.1346 16.0987 28.2324 16.4076 28.1904 16.7093L28.5866 16.7645ZM27.5619 24.2713L28.5867 16.7639L28.1903 16.7098L27.1656 24.2172L27.5619 24.2713ZM25.3643 26.2C26.4698 26.2 27.4096 25.3666 27.5618 24.2718L27.1656 24.2167C27.0404 25.1175 26.2664 25.8 25.3643 25.8V26.2ZM13.0447 26.2H25.3643V25.8H13.0447V26.2ZM10.8515 24.2803C11.0037 25.3714 11.9439 26.2 13.0447 26.2V25.8C12.1462 25.8 11.3727 25.1212 11.2477 24.225L10.8515 24.2803ZM9.81393 16.7641L10.8515 24.28L11.2477 24.2253L10.2102 16.7094L9.81393 16.7641ZM10.1597 15.603C9.88198 15.9206 9.7556 16.345 9.81396 16.7643L10.2101 16.7092C10.1677 16.4043 10.2598 16.0962 10.4608 15.8663L10.1597 15.603ZM11.2596 15.1052C10.8369 15.1052 10.4374 15.2856 10.1597 15.603L10.4607 15.8664C10.662 15.6363 10.9515 15.5052 11.2596 15.5052V15.1052ZM11.394 15.1052H11.2596V15.5052H11.394V15.1052ZM11.0514 12.1353L11.1942 15.3142L11.5938 15.2962L11.451 12.1173L11.0514 12.1353ZM11.6602 10.4942C11.2405 10.9381 11.0237 11.5258 11.0514 12.1354L11.451 12.1172C11.4282 11.6153 11.6061 11.1336 11.9509 10.769L11.6602 10.4942ZM13.2631 9.8C12.6528 9.8 12.0797 10.0507 11.6603 10.4941L11.9509 10.769C12.2959 10.4041 12.7645 10.2 13.2631 10.2V9.8ZM16.7032 9.8H13.2631V10.2H16.7032V9.8ZM18.6048 10.8858C18.2046 10.2265 17.4818 9.8 16.7032 9.8V10.2C17.3359 10.2 17.9319 10.5483 18.2628 11.0933L18.6048 10.8858ZM19.0431 11.6337L18.6063 10.8884L18.2612 11.0907L18.698 11.8359L19.0431 11.6337ZM19.8786 12.1158C19.54 12.1158 19.2177 11.9277 19.0425 11.6327L18.6986 11.8369C18.9434 12.2491 19.394 12.5158 19.8786 12.5158V12.1158ZM25.1332 12.1158H19.8786V12.5158H25.1332V12.1158ZM27.3369 14.3242C27.3369 13.0984 26.3573 12.1158 25.1332 12.1158V12.5158C26.1355 12.5158 26.9369 13.3185 26.9369 14.3242H27.3369ZM12.2869 12.0849C12.2762 11.8122 12.3716 11.5493 12.5559 11.3541L12.265 11.0795C12.004 11.356 11.8725 11.7247 11.8872 12.1005L12.2869 12.0849ZM12.4338 15.296L12.2868 12.0835L11.8872 12.1018L12.0342 15.3143L12.4338 15.296ZM26.2926 15.1052H12.234V15.5052H26.2926V15.1052ZM26.0926 14.3284V15.3052H26.4926V14.3284H26.0926ZM25.1291 13.3621C25.6654 13.3621 26.0926 13.7863 26.0926 14.3284H26.4926C26.4926 13.5653 25.8863 12.9621 25.1291 12.9621V13.3621ZM19.8745 13.3621H25.1291V12.9621H19.8745V13.3621ZM17.9721 12.2707C18.3683 12.9359 19.0964 13.3621 19.8745 13.3621V12.9621C19.2413 12.9621 18.6419 12.6135 18.3157 12.066L17.9721 12.2707ZM17.5345 11.5243L17.9714 12.2695L18.3164 12.0672L17.8796 11.322L17.5345 11.5243ZM16.699 11.0421C17.0376 11.0421 17.3599 11.2302 17.5351 11.5252L17.879 11.321C17.6342 10.9088 17.1836 10.6421 16.699 10.6421V11.0421ZM13.2589 11.0421H16.699V10.6421H13.2589V11.0421ZM12.5559 11.3542C12.7433 11.1557 12.9942 11.0421 13.2589 11.0421V10.6421C12.8768 10.6421 12.5229 10.8065 12.2651 11.0795L12.5559 11.3542ZM26.7301 24.1576L27.755 16.646L27.3587 16.5919L26.3338 24.1035L26.7301 24.1576ZM25.3685 25.3579C26.055 25.3579 26.6372 24.835 26.7301 24.1577L26.3338 24.1033C26.2673 24.5881 25.8496 24.9579 25.3685 24.9579V25.3579ZM13.0489 25.3579H25.3685V24.9579H13.0489V25.3579ZM11.6873 24.1621C11.7804 24.8355 12.3628 25.3579 13.0489 25.3579V24.9579C12.5674 24.9579 12.1499 24.5877 12.0836 24.1074L11.6873 24.1621ZM10.6414 16.6508L11.6873 24.1623L12.0835 24.1072L11.0375 16.5956L10.6414 16.6508ZM10.7921 16.1562C10.6664 16.2948 10.617 16.4727 10.6413 16.6503L11.0376 16.5961C11.0285 16.5294 11.0462 16.4714 11.0884 16.4249L10.7921 16.1562ZM11.2554 15.9474C11.0739 15.9474 10.9119 16.0242 10.7922 16.1561L11.0883 16.425C11.1367 16.3717 11.1932 16.3474 11.2554 16.3474V15.9474ZM27.1411 15.9474H11.2554V16.3474H27.1411V15.9474ZM27.6104 16.1632C27.4881 16.015 27.3151 15.9474 27.1411 15.9474V16.3474C27.2104 16.3474 27.2644 16.3724 27.3018 16.4178L27.6104 16.1632ZM27.755 16.6463C27.7798 16.4668 27.7288 16.2936 27.6043 16.1562L27.3079 16.4249C27.3512 16.4726 27.3677 16.5268 27.3588 16.5916L27.755 16.6463ZM19.6501 17.3952C19.5351 17.2737 19.3744 17.1979 19.1982 17.1979V17.5979C19.2572 17.5979 19.3149 17.623 19.3595 17.6701L19.6501 17.3952ZM22.1045 20.0451L19.6515 17.3968L19.358 17.6686L21.811 20.3169L22.1045 20.0451ZM22.0748 20.9196C22.319 20.6871 22.342 20.2956 22.1029 20.0434L21.8127 20.3187C21.893 20.4034 21.8908 20.5424 21.7989 20.6299L22.0748 20.9196ZM21.6512 21.0884C21.8006 21.0884 21.9556 21.0326 22.0744 20.9199L21.7993 20.6296C21.7584 20.6683 21.7034 20.6884 21.6512 20.6884V21.0884ZM21.1996 20.8914C21.3202 21.0183 21.4813 21.0884 21.6512 21.0884V20.6884C21.5942 20.6884 21.5369 20.6657 21.4896 20.6159L21.1996 20.8914ZM19.4674 19.0244L21.198 20.8897L21.4912 20.6176L19.7606 18.7523L19.4674 19.0244ZM19.814 23.4863V18.8884H19.414V23.4863H19.814ZM19.194 24.1073C19.5359 24.1073 19.814 23.8279 19.814 23.4863H19.414C19.414 23.6079 19.3141 23.7073 19.194 23.7073V24.1073ZM18.5739 23.4863C18.5739 23.828 18.8522 24.1073 19.194 24.1073V23.7073C19.0739 23.7073 18.9739 23.6079 18.9739 23.4863H18.5739ZM18.5739 18.8884V23.4863H18.9739V18.8884H18.5739ZM17.1901 20.8897L18.9206 19.0244L18.6273 18.7523L16.8968 20.6176L17.1901 20.8897ZM16.3133 20.9196C16.5641 21.1584 16.9611 21.1379 17.1905 20.8892L16.8965 20.618C16.815 20.7063 16.6744 20.7111 16.5891 20.6299L16.3133 20.9196ZM16.285 20.0435C16.0471 20.2945 16.0674 20.6917 16.3152 20.9214L16.5872 20.6281C16.4989 20.5463 16.494 20.4044 16.5753 20.3186L16.285 20.0435ZM18.7451 17.3965L16.2836 20.0449L16.5766 20.3172L19.0381 17.6688L18.7451 17.3965ZM19.1982 17.1979C19.0218 17.1979 18.8614 17.2738 18.7464 17.3951L19.0367 17.6702C19.0815 17.623 19.1392 17.5979 19.1982 17.5979V17.1979Z" fill="white" mask="url(#path-2-outside-1)"/>
<path opacity="0.7" d="M6.99609 43.4688V49.2695C6.99219 50.0742 6.73828 50.7324 6.23438 51.2441C5.73438 51.7559 5.05469 52.043 4.19531 52.1055L3.89648 52.1172C2.96289 52.1172 2.21875 51.8652 1.66406 51.3613C1.10938 50.8574 0.828125 50.1641 0.820312 49.2812V43.4688H1.93359V49.2461C1.93359 49.8633 2.10352 50.3438 2.44336 50.6875C2.7832 51.0273 3.26758 51.1973 3.89648 51.1973C4.5332 51.1973 5.01953 51.0273 5.35547 50.6875C5.69531 50.3477 5.86523 49.8691 5.86523 49.252V43.4688H6.99609ZM13.957 48.9004C13.957 49.8652 13.7363 50.6426 13.2949 51.2324C12.8535 51.8223 12.2559 52.1172 11.502 52.1172C10.7324 52.1172 10.127 51.873 9.68555 51.3848V54.4375H8.60156V45.6602H9.5918L9.64453 46.3633C10.0859 45.8164 10.6992 45.543 11.4844 45.543C12.2461 45.543 12.8477 45.8301 13.2891 46.4043C13.7344 46.9785 13.957 47.7773 13.957 48.8008V48.9004ZM12.873 48.7773C12.873 48.0625 12.7207 47.498 12.416 47.084C12.1113 46.6699 11.6934 46.4629 11.1621 46.4629C10.5059 46.4629 10.0137 46.7539 9.68555 47.3359V50.3652C10.0098 50.9434 10.5059 51.2324 11.1738 51.2324C11.6934 51.2324 12.1055 51.0273 12.4102 50.6172C12.7188 50.2031 12.873 49.5898 12.873 48.7773ZM16.5176 52H15.4336V43H16.5176V52ZM17.9707 48.7715C17.9707 48.1504 18.0918 47.5918 18.334 47.0957C18.5801 46.5996 18.9199 46.2168 19.3535 45.9473C19.791 45.6777 20.2891 45.543 20.8477 45.543C21.7109 45.543 22.4082 45.8418 22.9395 46.4395C23.4746 47.0371 23.7422 47.832 23.7422 48.8242V48.9004C23.7422 49.5176 23.623 50.0723 23.3848 50.5645C23.1504 51.0527 22.8125 51.4336 22.3711 51.707C21.9336 51.9805 21.4297 52.1172 20.8594 52.1172C20 52.1172 19.3027 51.8184 18.7676 51.2207C18.2363 50.623 17.9707 49.832 17.9707 48.8477V48.7715ZM19.0605 48.9004C19.0605 49.6035 19.2227 50.168 19.5469 50.5938C19.875 51.0195 20.3125 51.2324 20.8594 51.2324C21.4102 51.2324 21.8477 51.0176 22.1719 50.5879C22.4961 50.1543 22.6582 49.5488 22.6582 48.7715C22.6582 48.0762 22.4922 47.5137 22.1602 47.084C21.832 46.6504 21.3945 46.4336 20.8477 46.4336C20.3125 46.4336 19.8809 46.6465 19.5527 47.0723C19.2246 47.498 19.0605 48.1074 19.0605 48.9004ZM29.0156 52C28.9531 51.875 28.9023 51.6523 28.8633 51.332C28.3594 51.8555 27.7578 52.1172 27.0586 52.1172C26.4336 52.1172 25.9199 51.9414 25.5176 51.5898C25.1191 51.2344 24.9199 50.7852 24.9199 50.2422C24.9199 49.582 25.1699 49.0703 25.6699 48.707C26.1738 48.3398 26.8809 48.1562 27.791 48.1562H28.8457V47.6582C28.8457 47.2793 28.7324 46.9785 28.5059 46.7559C28.2793 46.5293 27.9453 46.416 27.5039 46.416C27.1172 46.416 26.793 46.5137 26.5312 46.709C26.2695 46.9043 26.1387 47.1406 26.1387 47.418H25.0488C25.0488 47.1016 25.1602 46.7969 25.3828 46.5039C25.6094 46.207 25.9141 45.9727 26.2969 45.8008C26.6836 45.6289 27.1074 45.543 27.5684 45.543C28.2988 45.543 28.8711 45.7266 29.2852 46.0938C29.6992 46.457 29.9141 46.959 29.9297 47.5996V50.5176C29.9297 51.0996 30.0039 51.5625 30.1523 51.9062V52H29.0156ZM27.2168 51.1738C27.5566 51.1738 27.8789 51.0859 28.1836 50.9102C28.4883 50.7344 28.709 50.5059 28.8457 50.2246V48.9238H27.9961C26.668 48.9238 26.0039 49.3125 26.0039 50.0898C26.0039 50.4297 26.1172 50.6953 26.3438 50.8867C26.5703 51.0781 26.8613 51.1738 27.2168 51.1738ZM31.3652 48.7773C31.3652 47.8047 31.5957 47.0234 32.0566 46.4336C32.5176 45.8398 33.1211 45.543 33.8672 45.543C34.6094 45.543 35.1973 45.7969 35.6309 46.3047V43H36.7148V52H35.7188L35.666 51.3203C35.2324 51.8516 34.6289 52.1172 33.8555 52.1172C33.1211 52.1172 32.5215 51.8164 32.0566 51.2148C31.5957 50.6133 31.3652 49.8281 31.3652 48.8594V48.7773ZM32.4492 48.9004C32.4492 49.6191 32.5977 50.1816 32.8945 50.5879C33.1914 50.9941 33.6016 51.1973 34.125 51.1973C34.8125 51.1973 35.3145 50.8887 35.6309 50.2715V47.3594C35.3066 46.7617 34.8086 46.4629 34.1367 46.4629C33.6055 46.4629 33.1914 46.668 32.8945 47.0781C32.5977 47.4883 32.4492 48.0957 32.4492 48.9004Z" fill="#02435D"/>
</svg>
