<svg width="20" height="17" viewBox="0 0 20 17" fill="none" xmlns="http://www.w3.org/2000/svg">
<path d="M6.22716 5.6021C6.1531 5.54668 6.05004 5.55134 5.9809 5.61323C5.91202 5.67538 5.89648 5.77741 5.94413 5.8569C6.91907 7.49294 8.56701 10.2515 8.65117 10.345C8.87464 10.5933 9.1947 10.736 9.52926 10.736C9.8211 10.736 10.1015 10.6283 10.3188 10.433C10.8025 9.99774 10.8419 9.24964 10.4063 8.76541C10.3222 8.67167 7.75184 6.74328 6.22716 5.6021Z" fill="#02435D"/>
<path d="M16.2827 16.1578C16.293 16.149 16.306 16.1452 16.3155 16.1353C18.0531 14.3506 19.0099 11.996 19.0099 9.50495C19.0099 4.26384 14.7461 0 9.50495 0C9.49951 0 9.49433 0.000258806 9.48915 0.000258806C9.48397 0.000258806 9.47853 0 9.4731 0C5.88408 0 2.75624 2.01099 1.1562 4.96507C0.419496 6.31471 0 7.86166 0 9.50469C0 12.0134 0.968725 14.3802 2.7275 16.1687C2.77981 16.2218 2.84454 16.2498 2.91187 16.2666C2.95512 16.2824 3.00017 16.292 3.04575 16.292C3.13975 16.292 3.234 16.2581 3.30858 16.1894L4.33117 15.2497C4.48912 15.1044 4.49948 14.859 4.35421 14.7007C4.20894 14.5428 3.96346 14.5327 3.80524 14.6777L3.0473 15.3743C1.65649 13.8467 0.862556 11.9046 0.784871 9.83977H1.87763C2.0923 9.83977 2.26605 9.66601 2.26605 9.45135C2.26605 9.23668 2.0923 9.06292 1.87763 9.06292H0.808177C0.867735 7.71924 1.23363 6.45376 1.83879 5.33537C2.22022 4.63672 2.69565 3.99712 3.24617 3.43028L4.01603 4.20014C4.0919 4.27601 4.19133 4.31382 4.29077 4.31382C4.39021 4.31382 4.48964 4.27601 4.56551 4.20014C4.71726 4.04865 4.71726 3.80239 4.56551 3.65091L3.81197 2.89737C5.2424 1.66296 7.07498 0.883013 9.08493 0.787202V1.85588C9.08493 2.07055 9.25869 2.2443 9.47336 2.2443C9.68777 2.2443 9.86178 2.07055 9.86178 1.85588V0.786425C11.9176 0.877575 13.789 1.68756 15.2313 2.97091L14.462 3.74025C14.3102 3.89173 14.3102 4.13799 14.462 4.28947C14.5379 4.36535 14.6373 4.40315 14.7367 4.40315C14.8362 4.40315 14.9356 4.36535 15.0115 4.28947L15.7881 3.51289C17.1667 4.97802 18.0432 6.92013 18.1383 9.06318H17.0688C16.8544 9.06318 16.6804 9.23694 16.6804 9.4516C16.6804 9.66627 16.8544 9.84003 17.0688 9.84003H18.225C18.1479 11.8842 17.3676 13.8107 16.0012 15.3318L15.2435 14.671C15.0811 14.5298 14.8364 14.5467 14.6953 14.7085C14.5544 14.8701 14.5713 15.1156 14.7329 15.2564L15.7707 16.1617C15.8445 16.2259 15.9354 16.2575 16.0258 16.2575C16.0809 16.2575 16.1358 16.2456 16.1866 16.2226C16.1892 16.2215 16.1912 16.2195 16.1936 16.2184C16.2257 16.2034 16.2552 16.1824 16.2827 16.1578Z" fill="#02435D"/>
</svg>
