<svg width="17" height="17" viewBox="0 0 17 17" fill="none" xmlns="http://www.w3.org/2000/svg">
<mask id="path-1-outside-1" maskUnits="userSpaceOnUse" x="0" y="-0.484375" width="17" height="17" fill="black">
<rect fill="white" y="-0.484375" width="17" height="17"/>
<path d="M8.63737 0.515625C5.56743 0.515625 1 0.95701 1 2.17295V6.21543V6.2169V10.258V10.2595V14.302C1 15.5179 5.56743 15.9593 8.63737 15.9593C11.7061 15.9593 16.2717 15.5179 16.2717 14.302V10.2595V10.258V6.2169V6.21543V2.17295C16.2717 0.95701 11.7061 0.515625 8.63737 0.515625ZM15.8522 14.302C15.8522 14.8142 13.0416 15.5582 8.63737 15.5582C4.23123 15.5582 1.41946 14.8142 1.41946 14.302V10.8486C1.45357 10.8706 1.49049 10.892 1.52829 10.9133C1.53341 10.9162 1.53829 10.9191 1.54347 10.922C1.58244 10.9435 1.62341 10.9646 1.66603 10.9853C1.66925 10.9869 1.6725 10.9885 1.67574 10.99C3.0592 11.6574 6.28628 11.9168 8.63737 11.9168C10.9877 11.9168 14.2137 11.6574 15.5965 10.9899C15.5994 10.9885 15.6024 10.987 15.6054 10.9856C15.6483 10.9647 15.6895 10.9435 15.7287 10.9218C15.7334 10.9192 15.7379 10.9165 15.7425 10.9139C15.7806 10.8925 15.8178 10.8709 15.8522 10.8487V14.302ZM15.8522 10.258C15.8522 10.7702 13.0416 11.5142 8.63737 11.5142C4.23123 11.5142 1.41946 10.7702 1.41946 10.258V6.80599C1.45357 6.82803 1.49049 6.84945 1.52829 6.87071C1.53341 6.87358 1.53829 6.87652 1.54347 6.87938C1.58244 6.90091 1.62341 6.92201 1.66603 6.94274C1.66925 6.94431 1.6725 6.94588 1.67574 6.94743C3.0592 7.61483 6.28628 7.87422 8.63737 7.87422C10.9877 7.87422 14.2137 7.61481 15.5965 6.94731C15.5994 6.94588 15.6024 6.94443 15.6054 6.943C15.6483 6.92212 15.6895 6.90089 15.7287 6.87921C15.7334 6.8766 15.7379 6.87395 15.7425 6.87133C15.7806 6.8499 15.8178 6.82831 15.8522 6.8061V10.258ZM15.8522 6.21543C15.8522 6.72762 13.0416 7.47162 8.63737 7.47162C4.23123 7.47162 1.41946 6.72762 1.41946 6.21543V2.76329C1.42368 2.76601 1.4286 2.76859 1.43287 2.77129C1.44565 2.77937 1.45965 2.78721 1.47293 2.79519C1.50442 2.81413 1.53687 2.83283 1.57112 2.85118C1.58836 2.86041 1.60621 2.86952 1.62413 2.8786C1.65772 2.89563 1.69252 2.91237 1.72843 2.92887C1.74713 2.93746 1.76564 2.94608 1.78494 2.95454C1.82639 2.97268 1.86957 2.99042 1.91376 3.00793C1.92898 3.01395 1.94342 3.02017 1.95895 3.02612C2.01928 3.04925 2.08185 3.07186 2.14675 3.09387C2.16025 3.09846 2.17464 3.1028 2.18834 3.10734C2.24079 3.12471 2.29431 3.1418 2.34949 3.15846C2.373 3.16556 2.39721 3.17247 2.42118 3.17944C2.46887 3.19331 2.51727 3.20699 2.56675 3.22035C2.59293 3.22743 2.61924 3.23447 2.64589 3.24141C2.69757 3.25486 2.75032 3.26799 2.80375 3.28094C2.82824 3.28686 2.85233 3.29291 2.87717 3.29874C2.95124 3.31611 3.02661 3.33306 3.10364 3.34949C3.10791 3.3504 3.11197 3.35138 3.11624 3.35228C3.19806 3.36964 3.28179 3.38638 3.36666 3.40271C3.39246 3.40766 3.41883 3.41239 3.44486 3.41726C3.5053 3.42855 3.56618 3.43964 3.62795 3.45042C3.65855 3.45576 3.68938 3.46099 3.7203 3.46622C3.78049 3.47636 3.84123 3.48627 3.90252 3.49596C3.93264 3.50073 3.96264 3.50554 3.99302 3.51019C4.06282 3.52087 4.13338 3.53121 4.20441 3.54132C4.22606 3.54439 4.24738 3.54762 4.26916 3.55066C4.36232 3.56362 4.45639 3.5761 4.55133 3.58809C4.57092 3.59057 4.59083 3.59286 4.61049 3.59529C4.68594 3.60463 4.76176 3.61374 4.83811 3.62248C4.87085 3.62623 4.90373 3.6298 4.9366 3.63344C5.00157 3.64062 5.06672 3.64764 5.13219 3.65439C5.1666 3.65794 5.20099 3.66148 5.23553 3.66492C5.30397 3.67174 5.37265 3.67828 5.44149 3.68464C5.47165 3.68743 5.50171 3.69032 5.53193 3.69303C5.62886 3.70171 5.72602 3.71003 5.82342 3.71783C5.82462 3.71793 5.82582 3.71804 5.82704 3.71814C5.92657 3.72609 6.02626 3.73351 6.12598 3.74058C6.15548 3.74267 6.18494 3.74459 6.21444 3.7466C6.28461 3.75138 6.35473 3.75602 6.42482 3.76038C6.45966 3.76255 6.49441 3.76463 6.5292 3.76669C6.59587 3.77064 6.66237 3.77437 6.72882 3.77794C6.76289 3.77976 6.79694 3.78161 6.83094 3.78335C6.90708 3.7872 6.98293 3.79077 7.05862 3.79414C7.08032 3.79511 7.1021 3.79621 7.12375 3.79713C7.22125 3.80129 7.31826 3.80506 7.41469 3.80842C7.43945 3.80928 7.46388 3.80996 7.48857 3.81077C7.56027 3.81312 7.63167 3.81534 7.7026 3.81724C7.73678 3.81816 7.77065 3.81896 7.80462 3.81978C7.86662 3.82127 7.92824 3.82262 7.9895 3.82379C8.02391 3.82444 8.05818 3.82508 8.09233 3.82563C8.1556 3.82666 8.2182 3.82745 8.28053 3.82812C8.31023 3.82843 8.34012 3.82885 8.36959 3.82908C8.4599 3.82982 8.54937 3.83027 8.63737 3.83027C8.72531 3.83027 8.81475 3.82982 8.90501 3.82908C8.93452 3.82885 8.96445 3.82843 8.9942 3.82812C9.05639 3.82745 9.11887 3.82666 9.18199 3.82563C9.21628 3.82508 9.2507 3.82446 9.28525 3.82379C9.3462 3.82263 9.40751 3.82127 9.46917 3.81979C9.50347 3.81896 9.53762 3.81816 9.57212 3.81723C9.64229 3.81534 9.71294 3.81316 9.78387 3.81083C9.80929 3.81 9.83446 3.8093 9.85997 3.80841C9.95596 3.80506 10.0525 3.80132 10.1496 3.79717C10.1727 3.79618 10.196 3.795 10.2192 3.79396C10.2933 3.79066 10.3674 3.78718 10.4418 3.7834C10.4769 3.78162 10.5121 3.7797 10.5472 3.77781C10.6123 3.77433 10.6773 3.77068 10.7426 3.76681C10.7787 3.76467 10.8147 3.76251 10.8509 3.76026C10.9187 3.75605 10.9865 3.75154 11.0543 3.74692C11.0861 3.74475 11.1178 3.74271 11.1496 3.74044C11.2481 3.73345 11.3466 3.72614 11.4449 3.71827C11.4514 3.71774 11.4578 3.71714 11.4643 3.71663C11.5566 3.70919 11.6487 3.70132 11.7406 3.6931C11.7724 3.69026 11.804 3.68723 11.8356 3.68429C11.9023 3.67811 11.9688 3.67178 12.0351 3.66518C12.0713 3.66157 12.1074 3.65787 12.1435 3.65414C12.2067 3.6476 12.2696 3.64084 12.3324 3.6339C12.3676 3.63 12.4029 3.62615 12.4381 3.62213C12.5103 3.61385 12.582 3.60521 12.6534 3.59639C12.6766 3.59352 12.7001 3.59082 12.7233 3.5879C12.817 3.57604 12.91 3.56371 13.002 3.5509C13.0268 3.54745 13.0511 3.54378 13.0757 3.54025C13.1434 3.53059 13.2107 3.52076 13.2772 3.51057C13.3099 3.50557 13.3421 3.50041 13.3745 3.49529C13.4332 3.48599 13.4914 3.4765 13.549 3.46678C13.5818 3.46126 13.6145 3.45571 13.6469 3.45004C13.7063 3.43966 13.7648 3.42899 13.8229 3.41814C13.8511 3.41288 13.8797 3.40775 13.9076 3.40238C13.9915 3.3862 14.0744 3.36965 14.1554 3.35247C14.1623 3.351 14.1688 3.34943 14.1757 3.34796C14.2499 3.3321 14.3225 3.31578 14.3939 3.29903C14.4202 3.29287 14.4457 3.2865 14.4715 3.28022C14.5234 3.26763 14.5746 3.25488 14.6249 3.2418C14.6525 3.23462 14.6798 3.22732 14.7069 3.21999C14.7552 3.20691 14.8024 3.19357 14.849 3.18002C14.874 3.17276 14.8992 3.16555 14.9237 3.15815C14.9774 3.1419 15.0296 3.12522 15.0808 3.10831C15.0956 3.1034 15.1112 3.09867 15.1258 3.09371C15.1904 3.07179 15.2526 3.0493 15.3127 3.02628C15.329 3.02002 15.3441 3.01352 15.3601 3.00718C15.4033 2.99002 15.4456 2.97266 15.4862 2.95489C15.506 2.9462 15.5251 2.93735 15.5443 2.92851C15.5798 2.9122 15.6141 2.89566 15.6473 2.87884C15.6655 2.86962 15.6836 2.86039 15.7011 2.85102C15.735 2.83285 15.7671 2.81429 15.7983 2.79553C15.8118 2.78742 15.8261 2.77946 15.839 2.77125C15.8432 2.76859 15.8481 2.76606 15.8522 2.76339V6.21543ZM8.63737 3.42914C4.23123 3.42914 1.41946 2.68514 1.41946 2.17295C1.41946 1.66076 4.23123 0.916759 8.63737 0.916759C13.0416 0.916759 15.8522 1.66076 15.8522 2.17295C15.8522 2.68514 13.0416 3.42914 8.63737 3.42914Z"/>
</mask>
<path d="M8.63737 0.515625C5.56743 0.515625 1 0.95701 1 2.17295V6.21543V6.2169V10.258V10.2595V14.302C1 15.5179 5.56743 15.9593 8.63737 15.9593C11.7061 15.9593 16.2717 15.5179 16.2717 14.302V10.2595V10.258V6.2169V6.21543V2.17295C16.2717 0.95701 11.7061 0.515625 8.63737 0.515625ZM15.8522 14.302C15.8522 14.8142 13.0416 15.5582 8.63737 15.5582C4.23123 15.5582 1.41946 14.8142 1.41946 14.302V10.8486C1.45357 10.8706 1.49049 10.892 1.52829 10.9133C1.53341 10.9162 1.53829 10.9191 1.54347 10.922C1.58244 10.9435 1.62341 10.9646 1.66603 10.9853C1.66925 10.9869 1.6725 10.9885 1.67574 10.99C3.0592 11.6574 6.28628 11.9168 8.63737 11.9168C10.9877 11.9168 14.2137 11.6574 15.5965 10.9899C15.5994 10.9885 15.6024 10.987 15.6054 10.9856C15.6483 10.9647 15.6895 10.9435 15.7287 10.9218C15.7334 10.9192 15.7379 10.9165 15.7425 10.9139C15.7806 10.8925 15.8178 10.8709 15.8522 10.8487V14.302ZM15.8522 10.258C15.8522 10.7702 13.0416 11.5142 8.63737 11.5142C4.23123 11.5142 1.41946 10.7702 1.41946 10.258V6.80599C1.45357 6.82803 1.49049 6.84945 1.52829 6.87071C1.53341 6.87358 1.53829 6.87652 1.54347 6.87938C1.58244 6.90091 1.62341 6.92201 1.66603 6.94274C1.66925 6.94431 1.6725 6.94588 1.67574 6.94743C3.0592 7.61483 6.28628 7.87422 8.63737 7.87422C10.9877 7.87422 14.2137 7.61481 15.5965 6.94731C15.5994 6.94588 15.6024 6.94443 15.6054 6.943C15.6483 6.92212 15.6895 6.90089 15.7287 6.87921C15.7334 6.8766 15.7379 6.87395 15.7425 6.87133C15.7806 6.8499 15.8178 6.82831 15.8522 6.8061V10.258ZM15.8522 6.21543C15.8522 6.72762 13.0416 7.47162 8.63737 7.47162C4.23123 7.47162 1.41946 6.72762 1.41946 6.21543V2.76329C1.42368 2.76601 1.4286 2.76859 1.43287 2.77129C1.44565 2.77937 1.45965 2.78721 1.47293 2.79519C1.50442 2.81413 1.53687 2.83283 1.57112 2.85118C1.58836 2.86041 1.60621 2.86952 1.62413 2.8786C1.65772 2.89563 1.69252 2.91237 1.72843 2.92887C1.74713 2.93746 1.76564 2.94608 1.78494 2.95454C1.82639 2.97268 1.86957 2.99042 1.91376 3.00793C1.92898 3.01395 1.94342 3.02017 1.95895 3.02612C2.01928 3.04925 2.08185 3.07186 2.14675 3.09387C2.16025 3.09846 2.17464 3.1028 2.18834 3.10734C2.24079 3.12471 2.29431 3.1418 2.34949 3.15846C2.373 3.16556 2.39721 3.17247 2.42118 3.17944C2.46887 3.19331 2.51727 3.20699 2.56675 3.22035C2.59293 3.22743 2.61924 3.23447 2.64589 3.24141C2.69757 3.25486 2.75032 3.26799 2.80375 3.28094C2.82824 3.28686 2.85233 3.29291 2.87717 3.29874C2.95124 3.31611 3.02661 3.33306 3.10364 3.34949C3.10791 3.3504 3.11197 3.35138 3.11624 3.35228C3.19806 3.36964 3.28179 3.38638 3.36666 3.40271C3.39246 3.40766 3.41883 3.41239 3.44486 3.41726C3.5053 3.42855 3.56618 3.43964 3.62795 3.45042C3.65855 3.45576 3.68938 3.46099 3.7203 3.46622C3.78049 3.47636 3.84123 3.48627 3.90252 3.49596C3.93264 3.50073 3.96264 3.50554 3.99302 3.51019C4.06282 3.52087 4.13338 3.53121 4.20441 3.54132C4.22606 3.54439 4.24738 3.54762 4.26916 3.55066C4.36232 3.56362 4.45639 3.5761 4.55133 3.58809C4.57092 3.59057 4.59083 3.59286 4.61049 3.59529C4.68594 3.60463 4.76176 3.61374 4.83811 3.62248C4.87085 3.62623 4.90373 3.6298 4.9366 3.63344C5.00157 3.64062 5.06672 3.64764 5.13219 3.65439C5.1666 3.65794 5.20099 3.66148 5.23553 3.66492C5.30397 3.67174 5.37265 3.67828 5.44149 3.68464C5.47165 3.68743 5.50171 3.69032 5.53193 3.69303C5.62886 3.70171 5.72602 3.71003 5.82342 3.71783C5.82462 3.71793 5.82582 3.71804 5.82704 3.71814C5.92657 3.72609 6.02626 3.73351 6.12598 3.74058C6.15548 3.74267 6.18494 3.74459 6.21444 3.7466C6.28461 3.75138 6.35473 3.75602 6.42482 3.76038C6.45966 3.76255 6.49441 3.76463 6.5292 3.76669C6.59587 3.77064 6.66237 3.77437 6.72882 3.77794C6.76289 3.77976 6.79694 3.78161 6.83094 3.78335C6.90708 3.7872 6.98293 3.79077 7.05862 3.79414C7.08032 3.79511 7.1021 3.79621 7.12375 3.79713C7.22125 3.80129 7.31826 3.80506 7.41469 3.80842C7.43945 3.80928 7.46388 3.80996 7.48857 3.81077C7.56027 3.81312 7.63167 3.81534 7.7026 3.81724C7.73678 3.81816 7.77065 3.81896 7.80462 3.81978C7.86662 3.82127 7.92824 3.82262 7.9895 3.82379C8.02391 3.82444 8.05818 3.82508 8.09233 3.82563C8.1556 3.82666 8.2182 3.82745 8.28053 3.82812C8.31023 3.82843 8.34012 3.82885 8.36959 3.82908C8.4599 3.82982 8.54937 3.83027 8.63737 3.83027C8.72531 3.83027 8.81475 3.82982 8.90501 3.82908C8.93452 3.82885 8.96445 3.82843 8.9942 3.82812C9.05639 3.82745 9.11887 3.82666 9.18199 3.82563C9.21628 3.82508 9.2507 3.82446 9.28525 3.82379C9.3462 3.82263 9.40751 3.82127 9.46917 3.81979C9.50347 3.81896 9.53762 3.81816 9.57212 3.81723C9.64229 3.81534 9.71294 3.81316 9.78387 3.81083C9.80929 3.81 9.83446 3.8093 9.85997 3.80841C9.95596 3.80506 10.0525 3.80132 10.1496 3.79717C10.1727 3.79618 10.196 3.795 10.2192 3.79396C10.2933 3.79066 10.3674 3.78718 10.4418 3.7834C10.4769 3.78162 10.5121 3.7797 10.5472 3.77781C10.6123 3.77433 10.6773 3.77068 10.7426 3.76681C10.7787 3.76467 10.8147 3.76251 10.8509 3.76026C10.9187 3.75605 10.9865 3.75154 11.0543 3.74692C11.0861 3.74475 11.1178 3.74271 11.1496 3.74044C11.2481 3.73345 11.3466 3.72614 11.4449 3.71827C11.4514 3.71774 11.4578 3.71714 11.4643 3.71663C11.5566 3.70919 11.6487 3.70132 11.7406 3.6931C11.7724 3.69026 11.804 3.68723 11.8356 3.68429C11.9023 3.67811 11.9688 3.67178 12.0351 3.66518C12.0713 3.66157 12.1074 3.65787 12.1435 3.65414C12.2067 3.6476 12.2696 3.64084 12.3324 3.6339C12.3676 3.63 12.4029 3.62615 12.4381 3.62213C12.5103 3.61385 12.582 3.60521 12.6534 3.59639C12.6766 3.59352 12.7001 3.59082 12.7233 3.5879C12.817 3.57604 12.91 3.56371 13.002 3.5509C13.0268 3.54745 13.0511 3.54378 13.0757 3.54025C13.1434 3.53059 13.2107 3.52076 13.2772 3.51057C13.3099 3.50557 13.3421 3.50041 13.3745 3.49529C13.4332 3.48599 13.4914 3.4765 13.549 3.46678C13.5818 3.46126 13.6145 3.45571 13.6469 3.45004C13.7063 3.43966 13.7648 3.42899 13.8229 3.41814C13.8511 3.41288 13.8797 3.40775 13.9076 3.40238C13.9915 3.3862 14.0744 3.36965 14.1554 3.35247C14.1623 3.351 14.1688 3.34943 14.1757 3.34796C14.2499 3.3321 14.3225 3.31578 14.3939 3.29903C14.4202 3.29287 14.4457 3.2865 14.4715 3.28022C14.5234 3.26763 14.5746 3.25488 14.6249 3.2418C14.6525 3.23462 14.6798 3.22732 14.7069 3.21999C14.7552 3.20691 14.8024 3.19357 14.849 3.18002C14.874 3.17276 14.8992 3.16555 14.9237 3.15815C14.9774 3.1419 15.0296 3.12522 15.0808 3.10831C15.0956 3.1034 15.1112 3.09867 15.1258 3.09371C15.1904 3.07179 15.2526 3.0493 15.3127 3.02628C15.329 3.02002 15.3441 3.01352 15.3601 3.00718C15.4033 2.99002 15.4456 2.97266 15.4862 2.95489C15.506 2.9462 15.5251 2.93735 15.5443 2.92851C15.5798 2.9122 15.6141 2.89566 15.6473 2.87884C15.6655 2.86962 15.6836 2.86039 15.7011 2.85102C15.735 2.83285 15.7671 2.81429 15.7983 2.79553C15.8118 2.78742 15.8261 2.77946 15.839 2.77125C15.8432 2.76859 15.8481 2.76606 15.8522 2.76339V6.21543ZM8.63737 3.42914C4.23123 3.42914 1.41946 2.68514 1.41946 2.17295C1.41946 1.66076 4.23123 0.916759 8.63737 0.916759C13.0416 0.916759 15.8522 1.66076 15.8522 2.17295C15.8522 2.68514 13.0416 3.42914 8.63737 3.42914Z" fill="#02435D"/>
<path d="M8.63737 0.515625C5.56743 0.515625 1 0.95701 1 2.17295V6.21543V6.2169V10.258V10.2595V14.302C1 15.5179 5.56743 15.9593 8.63737 15.9593C11.7061 15.9593 16.2717 15.5179 16.2717 14.302V10.2595V10.258V6.2169V6.21543V2.17295C16.2717 0.95701 11.7061 0.515625 8.63737 0.515625ZM15.8522 14.302C15.8522 14.8142 13.0416 15.5582 8.63737 15.5582C4.23123 15.5582 1.41946 14.8142 1.41946 14.302V10.8486C1.45357 10.8706 1.49049 10.892 1.52829 10.9133C1.53341 10.9162 1.53829 10.9191 1.54347 10.922C1.58244 10.9435 1.62341 10.9646 1.66603 10.9853C1.66925 10.9869 1.6725 10.9885 1.67574 10.99C3.0592 11.6574 6.28628 11.9168 8.63737 11.9168C10.9877 11.9168 14.2137 11.6574 15.5965 10.9899C15.5994 10.9885 15.6024 10.987 15.6054 10.9856C15.6483 10.9647 15.6895 10.9435 15.7287 10.9218C15.7334 10.9192 15.7379 10.9165 15.7425 10.9139C15.7806 10.8925 15.8178 10.8709 15.8522 10.8487V14.302ZM15.8522 10.258C15.8522 10.7702 13.0416 11.5142 8.63737 11.5142C4.23123 11.5142 1.41946 10.7702 1.41946 10.258V6.80599C1.45357 6.82803 1.49049 6.84945 1.52829 6.87071C1.53341 6.87358 1.53829 6.87652 1.54347 6.87938C1.58244 6.90091 1.62341 6.92201 1.66603 6.94274C1.66925 6.94431 1.6725 6.94588 1.67574 6.94743C3.0592 7.61483 6.28628 7.87422 8.63737 7.87422C10.9877 7.87422 14.2137 7.61481 15.5965 6.94731C15.5994 6.94588 15.6024 6.94443 15.6054 6.943C15.6483 6.92212 15.6895 6.90089 15.7287 6.87921C15.7334 6.8766 15.7379 6.87395 15.7425 6.87133C15.7806 6.8499 15.8178 6.82831 15.8522 6.8061V10.258ZM15.8522 6.21543C15.8522 6.72762 13.0416 7.47162 8.63737 7.47162C4.23123 7.47162 1.41946 6.72762 1.41946 6.21543V2.76329C1.42368 2.76601 1.4286 2.76859 1.43287 2.77129C1.44565 2.77937 1.45965 2.78721 1.47293 2.79519C1.50442 2.81413 1.53687 2.83283 1.57112 2.85118C1.58836 2.86041 1.60621 2.86952 1.62413 2.8786C1.65772 2.89563 1.69252 2.91237 1.72843 2.92887C1.74713 2.93746 1.76564 2.94608 1.78494 2.95454C1.82639 2.97268 1.86957 2.99042 1.91376 3.00793C1.92898 3.01395 1.94342 3.02017 1.95895 3.02612C2.01928 3.04925 2.08185 3.07186 2.14675 3.09387C2.16025 3.09846 2.17464 3.1028 2.18834 3.10734C2.24079 3.12471 2.29431 3.1418 2.34949 3.15846C2.373 3.16556 2.39721 3.17247 2.42118 3.17944C2.46887 3.19331 2.51727 3.20699 2.56675 3.22035C2.59293 3.22743 2.61924 3.23447 2.64589 3.24141C2.69757 3.25486 2.75032 3.26799 2.80375 3.28094C2.82824 3.28686 2.85233 3.29291 2.87717 3.29874C2.95124 3.31611 3.02661 3.33306 3.10364 3.34949C3.10791 3.3504 3.11197 3.35138 3.11624 3.35228C3.19806 3.36964 3.28179 3.38638 3.36666 3.40271C3.39246 3.40766 3.41883 3.41239 3.44486 3.41726C3.5053 3.42855 3.56618 3.43964 3.62795 3.45042C3.65855 3.45576 3.68938 3.46099 3.7203 3.46622C3.78049 3.47636 3.84123 3.48627 3.90252 3.49596C3.93264 3.50073 3.96264 3.50554 3.99302 3.51019C4.06282 3.52087 4.13338 3.53121 4.20441 3.54132C4.22606 3.54439 4.24738 3.54762 4.26916 3.55066C4.36232 3.56362 4.45639 3.5761 4.55133 3.58809C4.57092 3.59057 4.59083 3.59286 4.61049 3.59529C4.68594 3.60463 4.76176 3.61374 4.83811 3.62248C4.87085 3.62623 4.90373 3.6298 4.9366 3.63344C5.00157 3.64062 5.06672 3.64764 5.13219 3.65439C5.1666 3.65794 5.20099 3.66148 5.23553 3.66492C5.30397 3.67174 5.37265 3.67828 5.44149 3.68464C5.47165 3.68743 5.50171 3.69032 5.53193 3.69303C5.62886 3.70171 5.72602 3.71003 5.82342 3.71783C5.82462 3.71793 5.82582 3.71804 5.82704 3.71814C5.92657 3.72609 6.02626 3.73351 6.12598 3.74058C6.15548 3.74267 6.18494 3.74459 6.21444 3.7466C6.28461 3.75138 6.35473 3.75602 6.42482 3.76038C6.45966 3.76255 6.49441 3.76463 6.5292 3.76669C6.59587 3.77064 6.66237 3.77437 6.72882 3.77794C6.76289 3.77976 6.79694 3.78161 6.83094 3.78335C6.90708 3.7872 6.98293 3.79077 7.05862 3.79414C7.08032 3.79511 7.1021 3.79621 7.12375 3.79713C7.22125 3.80129 7.31826 3.80506 7.41469 3.80842C7.43945 3.80928 7.46388 3.80996 7.48857 3.81077C7.56027 3.81312 7.63167 3.81534 7.7026 3.81724C7.73678 3.81816 7.77065 3.81896 7.80462 3.81978C7.86662 3.82127 7.92824 3.82262 7.9895 3.82379C8.02391 3.82444 8.05818 3.82508 8.09233 3.82563C8.1556 3.82666 8.2182 3.82745 8.28053 3.82812C8.31023 3.82843 8.34012 3.82885 8.36959 3.82908C8.4599 3.82982 8.54937 3.83027 8.63737 3.83027C8.72531 3.83027 8.81475 3.82982 8.90501 3.82908C8.93452 3.82885 8.96445 3.82843 8.9942 3.82812C9.05639 3.82745 9.11887 3.82666 9.18199 3.82563C9.21628 3.82508 9.2507 3.82446 9.28525 3.82379C9.3462 3.82263 9.40751 3.82127 9.46917 3.81979C9.50347 3.81896 9.53762 3.81816 9.57212 3.81723C9.64229 3.81534 9.71294 3.81316 9.78387 3.81083C9.80929 3.81 9.83446 3.8093 9.85997 3.80841C9.95596 3.80506 10.0525 3.80132 10.1496 3.79717C10.1727 3.79618 10.196 3.795 10.2192 3.79396C10.2933 3.79066 10.3674 3.78718 10.4418 3.7834C10.4769 3.78162 10.5121 3.7797 10.5472 3.77781C10.6123 3.77433 10.6773 3.77068 10.7426 3.76681C10.7787 3.76467 10.8147 3.76251 10.8509 3.76026C10.9187 3.75605 10.9865 3.75154 11.0543 3.74692C11.0861 3.74475 11.1178 3.74271 11.1496 3.74044C11.2481 3.73345 11.3466 3.72614 11.4449 3.71827C11.4514 3.71774 11.4578 3.71714 11.4643 3.71663C11.5566 3.70919 11.6487 3.70132 11.7406 3.6931C11.7724 3.69026 11.804 3.68723 11.8356 3.68429C11.9023 3.67811 11.9688 3.67178 12.0351 3.66518C12.0713 3.66157 12.1074 3.65787 12.1435 3.65414C12.2067 3.6476 12.2696 3.64084 12.3324 3.6339C12.3676 3.63 12.4029 3.62615 12.4381 3.62213C12.5103 3.61385 12.582 3.60521 12.6534 3.59639C12.6766 3.59352 12.7001 3.59082 12.7233 3.5879C12.817 3.57604 12.91 3.56371 13.002 3.5509C13.0268 3.54745 13.0511 3.54378 13.0757 3.54025C13.1434 3.53059 13.2107 3.52076 13.2772 3.51057C13.3099 3.50557 13.3421 3.50041 13.3745 3.49529C13.4332 3.48599 13.4914 3.4765 13.549 3.46678C13.5818 3.46126 13.6145 3.45571 13.6469 3.45004C13.7063 3.43966 13.7648 3.42899 13.8229 3.41814C13.8511 3.41288 13.8797 3.40775 13.9076 3.40238C13.9915 3.3862 14.0744 3.36965 14.1554 3.35247C14.1623 3.351 14.1688 3.34943 14.1757 3.34796C14.2499 3.3321 14.3225 3.31578 14.3939 3.29903C14.4202 3.29287 14.4457 3.2865 14.4715 3.28022C14.5234 3.26763 14.5746 3.25488 14.6249 3.2418C14.6525 3.23462 14.6798 3.22732 14.7069 3.21999C14.7552 3.20691 14.8024 3.19357 14.849 3.18002C14.874 3.17276 14.8992 3.16555 14.9237 3.15815C14.9774 3.1419 15.0296 3.12522 15.0808 3.10831C15.0956 3.1034 15.1112 3.09867 15.1258 3.09371C15.1904 3.07179 15.2526 3.0493 15.3127 3.02628C15.329 3.02002 15.3441 3.01352 15.3601 3.00718C15.4033 2.99002 15.4456 2.97266 15.4862 2.95489C15.506 2.9462 15.5251 2.93735 15.5443 2.92851C15.5798 2.9122 15.6141 2.89566 15.6473 2.87884C15.6655 2.86962 15.6836 2.86039 15.7011 2.85102C15.735 2.83285 15.7671 2.81429 15.7983 2.79553C15.8118 2.78742 15.8261 2.77946 15.839 2.77125C15.8432 2.76859 15.8481 2.76606 15.8522 2.76339V6.21543ZM8.63737 3.42914C4.23123 3.42914 1.41946 2.68514 1.41946 2.17295C1.41946 1.66076 4.23123 0.916759 8.63737 0.916759C13.0416 0.916759 15.8522 1.66076 15.8522 2.17295C15.8522 2.68514 13.0416 3.42914 8.63737 3.42914Z" stroke="#02435D" stroke-width="0.4" mask="url(#path-1-outside-1)"/>
<path d="M14.3896 8.57418L14.3898 8.57414C14.5525 8.54181 14.719 8.64025 14.7552 8.80596C14.7919 8.97294 14.6791 9.12989 14.5149 9.1628C14.5149 9.16281 14.5149 9.16281 14.5149 9.16281L13.5461 9.35716C13.5461 9.35717 13.546 9.35718 13.546 9.35719L14.3896 8.57418ZM14.3896 8.57418L13.4205 8.76858L14.3896 8.57418ZM13.1803 9.12546C13.1803 9.12548 13.1803 9.1255 13.1803 9.12552L13.278 9.10403M13.1803 9.12546L14.6575 8.82736C14.6814 8.93577 14.6086 9.04204 14.4953 9.06476L13.5262 9.25916C13.5118 9.2621 13.4972 9.26347 13.483 9.26347C13.3858 9.26347 13.2987 9.19864 13.278 9.10403M13.1803 9.12546C13.1803 9.12544 13.1803 9.12541 13.1803 9.12539L13.278 9.10403M13.1803 9.12546L14.4093 8.67222L13.4402 8.86663C13.3268 8.88935 13.2541 8.99561 13.278 9.10403" fill="#02435D" stroke="#02435D" stroke-width="0.2"/>
</svg>
