<svg width="17" height="17" viewBox="0 0 17 17" fill="none" xmlns="http://www.w3.org/2000/svg">
<mask id="path-1-outside-1" maskUnits="userSpaceOnUse" x="0" y="-0.483643" width="17" height="17" fill="black">
<rect fill="white" y="-0.483643" width="17" height="17"/>
<path d="M8.63737 0.516357C5.56743 0.516357 1 0.957742 1 2.17368V6.21616V6.21763V10.2587V10.2602V14.3027C1 15.5186 5.56743 15.96 8.63737 15.96C11.7061 15.96 16.2717 15.5186 16.2717 14.3027V10.2602V10.2587V6.21763V6.21616V2.17368C16.2717 0.957742 11.7061 0.516357 8.63737 0.516357ZM15.8522 14.3027C15.8522 14.8149 13.0416 15.5589 8.63737 15.5589C4.23123 15.5589 1.41946 14.8149 1.41946 14.3027V10.8493C1.45357 10.8713 1.49049 10.8928 1.52829 10.914C1.53341 10.9169 1.53829 10.9198 1.54347 10.9227C1.58244 10.9442 1.62341 10.9653 1.66603 10.9861C1.66925 10.9876 1.6725 10.9892 1.67574 10.9907C3.0592 11.6581 6.28628 11.9175 8.63737 11.9175C10.9877 11.9175 14.2137 11.6581 15.5965 10.9906C15.5994 10.9892 15.6024 10.9877 15.6054 10.9863C15.6483 10.9654 15.6895 10.9442 15.7287 10.9225C15.7334 10.9199 15.7379 10.9173 15.7425 10.9146C15.7806 10.8932 15.8178 10.8716 15.8522 10.8494V14.3027ZM15.8522 10.2587C15.8522 10.7709 13.0416 11.5149 8.63737 11.5149C4.23123 11.5149 1.41946 10.7709 1.41946 10.2587V6.80673C1.45357 6.82876 1.49049 6.85018 1.52829 6.87145C1.53341 6.87431 1.53829 6.87725 1.54347 6.88011C1.58244 6.90165 1.62341 6.92274 1.66603 6.94348C1.66925 6.94504 1.6725 6.94661 1.67574 6.94817C3.0592 7.61557 6.28628 7.87496 8.63737 7.87496C10.9877 7.87496 14.2137 7.61554 15.5965 6.94804C15.5994 6.94661 15.6024 6.94517 15.6054 6.94373C15.6483 6.92285 15.6895 6.90162 15.7287 6.87994C15.7334 6.87734 15.7379 6.87468 15.7425 6.87206C15.7806 6.85064 15.8178 6.82904 15.8522 6.80684V10.2587ZM15.8522 6.21616C15.8522 6.72835 13.0416 7.47235 8.63737 7.47235C4.23123 7.47235 1.41946 6.72835 1.41946 6.21616V2.76402C1.42368 2.76674 1.4286 2.76932 1.43287 2.77203C1.44565 2.78011 1.45965 2.78794 1.47293 2.79592C1.50442 2.81486 1.53687 2.83357 1.57112 2.85192C1.58836 2.86115 1.60621 2.87025 1.62413 2.87934C1.65772 2.89637 1.69252 2.9131 1.72843 2.9296C1.74713 2.93819 1.76564 2.94681 1.78494 2.95527C1.82639 2.97341 1.86957 2.99115 1.91376 3.00866C1.92898 3.01468 1.94342 3.0209 1.95895 3.02685C2.01928 3.04999 2.08185 3.0726 2.14675 3.09461C2.16025 3.0992 2.17464 3.10353 2.18834 3.10807C2.24079 3.12544 2.29431 3.14253 2.34949 3.15919C2.373 3.16629 2.39721 3.1732 2.42118 3.18018C2.46887 3.19405 2.51727 3.20772 2.56675 3.22109C2.59293 3.22816 2.61924 3.2352 2.64589 3.24214C2.69757 3.2556 2.75032 3.26872 2.80375 3.28167C2.82824 3.2876 2.85233 3.29364 2.87717 3.29947C2.95124 3.31684 3.02661 3.3338 3.10364 3.35022C3.10791 3.35113 3.11197 3.35211 3.11624 3.35302C3.19806 3.37037 3.28179 3.38711 3.36666 3.40344C3.39246 3.4084 3.41883 3.41312 3.44486 3.41799C3.5053 3.42928 3.56618 3.44037 3.62795 3.45116C3.65855 3.45649 3.68938 3.46172 3.7203 3.46695C3.78049 3.4771 3.84123 3.487 3.90252 3.4967C3.93264 3.50146 3.96264 3.50627 3.99302 3.51092C4.06282 3.52161 4.13338 3.53194 4.20441 3.54205C4.22606 3.54512 4.24738 3.54836 4.26916 3.55139C4.36232 3.56435 4.45639 3.57683 4.55133 3.58883C4.57092 3.5913 4.59083 3.59359 4.61049 3.59602C4.68594 3.60536 4.76176 3.61447 4.83811 3.62321C4.87085 3.62696 4.90373 3.63053 4.9366 3.63417C5.00157 3.64135 5.06672 3.64837 5.13219 3.65513C5.1666 3.65868 5.20099 3.66221 5.23553 3.66565C5.30397 3.67247 5.37265 3.67901 5.44149 3.68538C5.47165 3.68817 5.50171 3.69106 5.53193 3.69376C5.62886 3.70244 5.72602 3.71076 5.82342 3.71856C5.82462 3.71866 5.82582 3.71877 5.82704 3.71887C5.92657 3.72683 6.02626 3.73424 6.12598 3.74131C6.15548 3.7434 6.18494 3.74532 6.21444 3.74733C6.28461 3.75212 6.35473 3.75676 6.42482 3.76111C6.45966 3.76328 6.49441 3.76536 6.5292 3.76742C6.59587 3.77137 6.66237 3.77511 6.72882 3.77867C6.76289 3.78049 6.79694 3.78234 6.83094 3.78408C6.90708 3.78794 6.98293 3.7915 7.05862 3.79488C7.08032 3.79584 7.1021 3.79695 7.12375 3.79786C7.22125 3.80203 7.31826 3.8058 7.41469 3.80915C7.43945 3.81001 7.46388 3.81069 7.48857 3.8115C7.56027 3.81385 7.63167 3.81607 7.7026 3.81798C7.73678 3.8189 7.77065 3.81969 7.80462 3.82051C7.86662 3.822 7.92824 3.82335 7.9895 3.82453C8.02391 3.82518 8.05818 3.82581 8.09233 3.82636C8.1556 3.82739 8.2182 3.82819 8.28053 3.82885C8.31023 3.82917 8.34012 3.82958 8.36959 3.82981C8.4599 3.83055 8.54937 3.831 8.63737 3.831C8.72531 3.831 8.81475 3.83055 8.90501 3.82981C8.93452 3.82958 8.96445 3.82917 8.9942 3.82885C9.05639 3.82819 9.11887 3.82739 9.18199 3.82636C9.21628 3.82581 9.2507 3.82519 9.28525 3.82453C9.3462 3.82336 9.40751 3.822 9.46917 3.82052C9.50347 3.81969 9.53762 3.8189 9.57212 3.81797C9.64229 3.81607 9.71294 3.81389 9.78387 3.81156C9.80929 3.81073 9.83446 3.81003 9.85997 3.80914C9.95596 3.8058 10.0525 3.80205 10.1496 3.7979C10.1727 3.79691 10.196 3.79573 10.2192 3.79469C10.2933 3.79139 10.3674 3.78791 10.4418 3.78413C10.4769 3.78235 10.5121 3.78043 10.5472 3.77855C10.6123 3.77506 10.6773 3.77141 10.7426 3.76754C10.7787 3.7654 10.8147 3.76324 10.8509 3.76099C10.9187 3.75678 10.9865 3.75228 11.0543 3.74765C11.0861 3.74548 11.1178 3.74344 11.1496 3.74117C11.2481 3.73418 11.3466 3.72688 11.4449 3.719C11.4514 3.71848 11.4578 3.71788 11.4643 3.71736C11.5566 3.70992 11.6487 3.70205 11.7406 3.69383C11.7724 3.69099 11.804 3.68796 11.8356 3.68502C11.9023 3.67884 11.9688 3.67251 12.0351 3.66591C12.0713 3.6623 12.1074 3.6586 12.1435 3.65487C12.2067 3.64833 12.2696 3.64158 12.3324 3.63463C12.3676 3.63073 12.4029 3.62689 12.4381 3.62286C12.5103 3.61458 12.582 3.60594 12.6534 3.59713C12.6766 3.59425 12.7001 3.59156 12.7233 3.58863C12.817 3.57677 12.91 3.56444 13.002 3.55164C13.0268 3.54818 13.0511 3.54451 13.0757 3.54099C13.1434 3.53133 13.2107 3.5215 13.2772 3.5113C13.3099 3.50631 13.3421 3.50114 13.3745 3.49602C13.4332 3.48672 13.4914 3.47723 13.549 3.46751C13.5818 3.46199 13.6145 3.45644 13.6469 3.45078C13.7063 3.4404 13.7648 3.42972 13.8229 3.41888C13.8511 3.41361 13.8797 3.40848 13.9076 3.40311C13.9915 3.38694 14.0744 3.37039 14.1554 3.3532C14.1623 3.35173 14.1688 3.35016 14.1757 3.34869C14.2499 3.33283 14.3225 3.31651 14.3939 3.29976C14.4202 3.29361 14.4457 3.28723 14.4715 3.28095C14.5234 3.26836 14.5746 3.25561 14.6249 3.24253C14.6525 3.23535 14.6798 3.22805 14.7069 3.22072C14.7552 3.20765 14.8024 3.1943 14.849 3.18075C14.874 3.17349 14.8992 3.16628 14.9237 3.15889C14.9774 3.14263 15.0296 3.12596 15.0808 3.10904C15.0956 3.10413 15.1112 3.09941 15.1258 3.09445C15.1904 3.07252 15.2526 3.05003 15.3127 3.02701C15.329 3.02075 15.3441 3.01425 15.3601 3.00791C15.4033 2.99075 15.4456 2.97339 15.4862 2.95563C15.506 2.94694 15.5251 2.93808 15.5443 2.92925C15.5798 2.91293 15.6141 2.89639 15.6473 2.87957C15.6655 2.87035 15.6836 2.86112 15.7011 2.85176C15.735 2.83358 15.7671 2.81502 15.7983 2.79627C15.8118 2.78815 15.8261 2.78019 15.839 2.77198C15.8432 2.76932 15.8481 2.76679 15.8522 2.76412V6.21616ZM8.63737 3.42987C4.23123 3.42987 1.41946 2.68587 1.41946 2.17368C1.41946 1.66149 4.23123 0.917492 8.63737 0.917492C13.0416 0.917492 15.8522 1.66149 15.8522 2.17368C15.8522 2.68587 13.0416 3.42987 8.63737 3.42987Z"/>
</mask>
<path d="M8.63737 0.516357C5.56743 0.516357 1 0.957742 1 2.17368V6.21616V6.21763V10.2587V10.2602V14.3027C1 15.5186 5.56743 15.96 8.63737 15.96C11.7061 15.96 16.2717 15.5186 16.2717 14.3027V10.2602V10.2587V6.21763V6.21616V2.17368C16.2717 0.957742 11.7061 0.516357 8.63737 0.516357ZM15.8522 14.3027C15.8522 14.8149 13.0416 15.5589 8.63737 15.5589C4.23123 15.5589 1.41946 14.8149 1.41946 14.3027V10.8493C1.45357 10.8713 1.49049 10.8928 1.52829 10.914C1.53341 10.9169 1.53829 10.9198 1.54347 10.9227C1.58244 10.9442 1.62341 10.9653 1.66603 10.9861C1.66925 10.9876 1.6725 10.9892 1.67574 10.9907C3.0592 11.6581 6.28628 11.9175 8.63737 11.9175C10.9877 11.9175 14.2137 11.6581 15.5965 10.9906C15.5994 10.9892 15.6024 10.9877 15.6054 10.9863C15.6483 10.9654 15.6895 10.9442 15.7287 10.9225C15.7334 10.9199 15.7379 10.9173 15.7425 10.9146C15.7806 10.8932 15.8178 10.8716 15.8522 10.8494V14.3027ZM15.8522 10.2587C15.8522 10.7709 13.0416 11.5149 8.63737 11.5149C4.23123 11.5149 1.41946 10.7709 1.41946 10.2587V6.80673C1.45357 6.82876 1.49049 6.85018 1.52829 6.87145C1.53341 6.87431 1.53829 6.87725 1.54347 6.88011C1.58244 6.90165 1.62341 6.92274 1.66603 6.94348C1.66925 6.94504 1.6725 6.94661 1.67574 6.94817C3.0592 7.61557 6.28628 7.87496 8.63737 7.87496C10.9877 7.87496 14.2137 7.61554 15.5965 6.94804C15.5994 6.94661 15.6024 6.94517 15.6054 6.94373C15.6483 6.92285 15.6895 6.90162 15.7287 6.87994C15.7334 6.87734 15.7379 6.87468 15.7425 6.87206C15.7806 6.85064 15.8178 6.82904 15.8522 6.80684V10.2587ZM15.8522 6.21616C15.8522 6.72835 13.0416 7.47235 8.63737 7.47235C4.23123 7.47235 1.41946 6.72835 1.41946 6.21616V2.76402C1.42368 2.76674 1.4286 2.76932 1.43287 2.77203C1.44565 2.78011 1.45965 2.78794 1.47293 2.79592C1.50442 2.81486 1.53687 2.83357 1.57112 2.85192C1.58836 2.86115 1.60621 2.87025 1.62413 2.87934C1.65772 2.89637 1.69252 2.9131 1.72843 2.9296C1.74713 2.93819 1.76564 2.94681 1.78494 2.95527C1.82639 2.97341 1.86957 2.99115 1.91376 3.00866C1.92898 3.01468 1.94342 3.0209 1.95895 3.02685C2.01928 3.04999 2.08185 3.0726 2.14675 3.09461C2.16025 3.0992 2.17464 3.10353 2.18834 3.10807C2.24079 3.12544 2.29431 3.14253 2.34949 3.15919C2.373 3.16629 2.39721 3.1732 2.42118 3.18018C2.46887 3.19405 2.51727 3.20772 2.56675 3.22109C2.59293 3.22816 2.61924 3.2352 2.64589 3.24214C2.69757 3.2556 2.75032 3.26872 2.80375 3.28167C2.82824 3.2876 2.85233 3.29364 2.87717 3.29947C2.95124 3.31684 3.02661 3.3338 3.10364 3.35022C3.10791 3.35113 3.11197 3.35211 3.11624 3.35302C3.19806 3.37037 3.28179 3.38711 3.36666 3.40344C3.39246 3.4084 3.41883 3.41312 3.44486 3.41799C3.5053 3.42928 3.56618 3.44037 3.62795 3.45116C3.65855 3.45649 3.68938 3.46172 3.7203 3.46695C3.78049 3.4771 3.84123 3.487 3.90252 3.4967C3.93264 3.50146 3.96264 3.50627 3.99302 3.51092C4.06282 3.52161 4.13338 3.53194 4.20441 3.54205C4.22606 3.54512 4.24738 3.54836 4.26916 3.55139C4.36232 3.56435 4.45639 3.57683 4.55133 3.58883C4.57092 3.5913 4.59083 3.59359 4.61049 3.59602C4.68594 3.60536 4.76176 3.61447 4.83811 3.62321C4.87085 3.62696 4.90373 3.63053 4.9366 3.63417C5.00157 3.64135 5.06672 3.64837 5.13219 3.65513C5.1666 3.65868 5.20099 3.66221 5.23553 3.66565C5.30397 3.67247 5.37265 3.67901 5.44149 3.68538C5.47165 3.68817 5.50171 3.69106 5.53193 3.69376C5.62886 3.70244 5.72602 3.71076 5.82342 3.71856C5.82462 3.71866 5.82582 3.71877 5.82704 3.71887C5.92657 3.72683 6.02626 3.73424 6.12598 3.74131C6.15548 3.7434 6.18494 3.74532 6.21444 3.74733C6.28461 3.75212 6.35473 3.75676 6.42482 3.76111C6.45966 3.76328 6.49441 3.76536 6.5292 3.76742C6.59587 3.77137 6.66237 3.77511 6.72882 3.77867C6.76289 3.78049 6.79694 3.78234 6.83094 3.78408C6.90708 3.78794 6.98293 3.7915 7.05862 3.79488C7.08032 3.79584 7.1021 3.79695 7.12375 3.79786C7.22125 3.80203 7.31826 3.8058 7.41469 3.80915C7.43945 3.81001 7.46388 3.81069 7.48857 3.8115C7.56027 3.81385 7.63167 3.81607 7.7026 3.81798C7.73678 3.8189 7.77065 3.81969 7.80462 3.82051C7.86662 3.822 7.92824 3.82335 7.9895 3.82453C8.02391 3.82518 8.05818 3.82581 8.09233 3.82636C8.1556 3.82739 8.2182 3.82819 8.28053 3.82885C8.31023 3.82917 8.34012 3.82958 8.36959 3.82981C8.4599 3.83055 8.54937 3.831 8.63737 3.831C8.72531 3.831 8.81475 3.83055 8.90501 3.82981C8.93452 3.82958 8.96445 3.82917 8.9942 3.82885C9.05639 3.82819 9.11887 3.82739 9.18199 3.82636C9.21628 3.82581 9.2507 3.82519 9.28525 3.82453C9.3462 3.82336 9.40751 3.822 9.46917 3.82052C9.50347 3.81969 9.53762 3.8189 9.57212 3.81797C9.64229 3.81607 9.71294 3.81389 9.78387 3.81156C9.80929 3.81073 9.83446 3.81003 9.85997 3.80914C9.95596 3.8058 10.0525 3.80205 10.1496 3.7979C10.1727 3.79691 10.196 3.79573 10.2192 3.79469C10.2933 3.79139 10.3674 3.78791 10.4418 3.78413C10.4769 3.78235 10.5121 3.78043 10.5472 3.77855C10.6123 3.77506 10.6773 3.77141 10.7426 3.76754C10.7787 3.7654 10.8147 3.76324 10.8509 3.76099C10.9187 3.75678 10.9865 3.75228 11.0543 3.74765C11.0861 3.74548 11.1178 3.74344 11.1496 3.74117C11.2481 3.73418 11.3466 3.72688 11.4449 3.719C11.4514 3.71848 11.4578 3.71788 11.4643 3.71736C11.5566 3.70992 11.6487 3.70205 11.7406 3.69383C11.7724 3.69099 11.804 3.68796 11.8356 3.68502C11.9023 3.67884 11.9688 3.67251 12.0351 3.66591C12.0713 3.6623 12.1074 3.6586 12.1435 3.65487C12.2067 3.64833 12.2696 3.64158 12.3324 3.63463C12.3676 3.63073 12.4029 3.62689 12.4381 3.62286C12.5103 3.61458 12.582 3.60594 12.6534 3.59713C12.6766 3.59425 12.7001 3.59156 12.7233 3.58863C12.817 3.57677 12.91 3.56444 13.002 3.55164C13.0268 3.54818 13.0511 3.54451 13.0757 3.54099C13.1434 3.53133 13.2107 3.5215 13.2772 3.5113C13.3099 3.50631 13.3421 3.50114 13.3745 3.49602C13.4332 3.48672 13.4914 3.47723 13.549 3.46751C13.5818 3.46199 13.6145 3.45644 13.6469 3.45078C13.7063 3.4404 13.7648 3.42972 13.8229 3.41888C13.8511 3.41361 13.8797 3.40848 13.9076 3.40311C13.9915 3.38694 14.0744 3.37039 14.1554 3.3532C14.1623 3.35173 14.1688 3.35016 14.1757 3.34869C14.2499 3.33283 14.3225 3.31651 14.3939 3.29976C14.4202 3.29361 14.4457 3.28723 14.4715 3.28095C14.5234 3.26836 14.5746 3.25561 14.6249 3.24253C14.6525 3.23535 14.6798 3.22805 14.7069 3.22072C14.7552 3.20765 14.8024 3.1943 14.849 3.18075C14.874 3.17349 14.8992 3.16628 14.9237 3.15889C14.9774 3.14263 15.0296 3.12596 15.0808 3.10904C15.0956 3.10413 15.1112 3.09941 15.1258 3.09445C15.1904 3.07252 15.2526 3.05003 15.3127 3.02701C15.329 3.02075 15.3441 3.01425 15.3601 3.00791C15.4033 2.99075 15.4456 2.97339 15.4862 2.95563C15.506 2.94694 15.5251 2.93808 15.5443 2.92925C15.5798 2.91293 15.6141 2.89639 15.6473 2.87957C15.6655 2.87035 15.6836 2.86112 15.7011 2.85176C15.735 2.83358 15.7671 2.81502 15.7983 2.79627C15.8118 2.78815 15.8261 2.78019 15.839 2.77198C15.8432 2.76932 15.8481 2.76679 15.8522 2.76412V6.21616ZM8.63737 3.42987C4.23123 3.42987 1.41946 2.68587 1.41946 2.17368C1.41946 1.66149 4.23123 0.917492 8.63737 0.917492C13.0416 0.917492 15.8522 1.66149 15.8522 2.17368C15.8522 2.68587 13.0416 3.42987 8.63737 3.42987Z" fill="#4DC0E0"/>
<path d="M8.63737 0.516357C5.56743 0.516357 1 0.957742 1 2.17368V6.21616V6.21763V10.2587V10.2602V14.3027C1 15.5186 5.56743 15.96 8.63737 15.96C11.7061 15.96 16.2717 15.5186 16.2717 14.3027V10.2602V10.2587V6.21763V6.21616V2.17368C16.2717 0.957742 11.7061 0.516357 8.63737 0.516357ZM15.8522 14.3027C15.8522 14.8149 13.0416 15.5589 8.63737 15.5589C4.23123 15.5589 1.41946 14.8149 1.41946 14.3027V10.8493C1.45357 10.8713 1.49049 10.8928 1.52829 10.914C1.53341 10.9169 1.53829 10.9198 1.54347 10.9227C1.58244 10.9442 1.62341 10.9653 1.66603 10.9861C1.66925 10.9876 1.6725 10.9892 1.67574 10.9907C3.0592 11.6581 6.28628 11.9175 8.63737 11.9175C10.9877 11.9175 14.2137 11.6581 15.5965 10.9906C15.5994 10.9892 15.6024 10.9877 15.6054 10.9863C15.6483 10.9654 15.6895 10.9442 15.7287 10.9225C15.7334 10.9199 15.7379 10.9173 15.7425 10.9146C15.7806 10.8932 15.8178 10.8716 15.8522 10.8494V14.3027ZM15.8522 10.2587C15.8522 10.7709 13.0416 11.5149 8.63737 11.5149C4.23123 11.5149 1.41946 10.7709 1.41946 10.2587V6.80673C1.45357 6.82876 1.49049 6.85018 1.52829 6.87145C1.53341 6.87431 1.53829 6.87725 1.54347 6.88011C1.58244 6.90165 1.62341 6.92274 1.66603 6.94348C1.66925 6.94504 1.6725 6.94661 1.67574 6.94817C3.0592 7.61557 6.28628 7.87496 8.63737 7.87496C10.9877 7.87496 14.2137 7.61554 15.5965 6.94804C15.5994 6.94661 15.6024 6.94517 15.6054 6.94373C15.6483 6.92285 15.6895 6.90162 15.7287 6.87994C15.7334 6.87734 15.7379 6.87468 15.7425 6.87206C15.7806 6.85064 15.8178 6.82904 15.8522 6.80684V10.2587ZM15.8522 6.21616C15.8522 6.72835 13.0416 7.47235 8.63737 7.47235C4.23123 7.47235 1.41946 6.72835 1.41946 6.21616V2.76402C1.42368 2.76674 1.4286 2.76932 1.43287 2.77203C1.44565 2.78011 1.45965 2.78794 1.47293 2.79592C1.50442 2.81486 1.53687 2.83357 1.57112 2.85192C1.58836 2.86115 1.60621 2.87025 1.62413 2.87934C1.65772 2.89637 1.69252 2.9131 1.72843 2.9296C1.74713 2.93819 1.76564 2.94681 1.78494 2.95527C1.82639 2.97341 1.86957 2.99115 1.91376 3.00866C1.92898 3.01468 1.94342 3.0209 1.95895 3.02685C2.01928 3.04999 2.08185 3.0726 2.14675 3.09461C2.16025 3.0992 2.17464 3.10353 2.18834 3.10807C2.24079 3.12544 2.29431 3.14253 2.34949 3.15919C2.373 3.16629 2.39721 3.1732 2.42118 3.18018C2.46887 3.19405 2.51727 3.20772 2.56675 3.22109C2.59293 3.22816 2.61924 3.2352 2.64589 3.24214C2.69757 3.2556 2.75032 3.26872 2.80375 3.28167C2.82824 3.2876 2.85233 3.29364 2.87717 3.29947C2.95124 3.31684 3.02661 3.3338 3.10364 3.35022C3.10791 3.35113 3.11197 3.35211 3.11624 3.35302C3.19806 3.37037 3.28179 3.38711 3.36666 3.40344C3.39246 3.4084 3.41883 3.41312 3.44486 3.41799C3.5053 3.42928 3.56618 3.44037 3.62795 3.45116C3.65855 3.45649 3.68938 3.46172 3.7203 3.46695C3.78049 3.4771 3.84123 3.487 3.90252 3.4967C3.93264 3.50146 3.96264 3.50627 3.99302 3.51092C4.06282 3.52161 4.13338 3.53194 4.20441 3.54205C4.22606 3.54512 4.24738 3.54836 4.26916 3.55139C4.36232 3.56435 4.45639 3.57683 4.55133 3.58883C4.57092 3.5913 4.59083 3.59359 4.61049 3.59602C4.68594 3.60536 4.76176 3.61447 4.83811 3.62321C4.87085 3.62696 4.90373 3.63053 4.9366 3.63417C5.00157 3.64135 5.06672 3.64837 5.13219 3.65513C5.1666 3.65868 5.20099 3.66221 5.23553 3.66565C5.30397 3.67247 5.37265 3.67901 5.44149 3.68538C5.47165 3.68817 5.50171 3.69106 5.53193 3.69376C5.62886 3.70244 5.72602 3.71076 5.82342 3.71856C5.82462 3.71866 5.82582 3.71877 5.82704 3.71887C5.92657 3.72683 6.02626 3.73424 6.12598 3.74131C6.15548 3.7434 6.18494 3.74532 6.21444 3.74733C6.28461 3.75212 6.35473 3.75676 6.42482 3.76111C6.45966 3.76328 6.49441 3.76536 6.5292 3.76742C6.59587 3.77137 6.66237 3.77511 6.72882 3.77867C6.76289 3.78049 6.79694 3.78234 6.83094 3.78408C6.90708 3.78794 6.98293 3.7915 7.05862 3.79488C7.08032 3.79584 7.1021 3.79695 7.12375 3.79786C7.22125 3.80203 7.31826 3.8058 7.41469 3.80915C7.43945 3.81001 7.46388 3.81069 7.48857 3.8115C7.56027 3.81385 7.63167 3.81607 7.7026 3.81798C7.73678 3.8189 7.77065 3.81969 7.80462 3.82051C7.86662 3.822 7.92824 3.82335 7.9895 3.82453C8.02391 3.82518 8.05818 3.82581 8.09233 3.82636C8.1556 3.82739 8.2182 3.82819 8.28053 3.82885C8.31023 3.82917 8.34012 3.82958 8.36959 3.82981C8.4599 3.83055 8.54937 3.831 8.63737 3.831C8.72531 3.831 8.81475 3.83055 8.90501 3.82981C8.93452 3.82958 8.96445 3.82917 8.9942 3.82885C9.05639 3.82819 9.11887 3.82739 9.18199 3.82636C9.21628 3.82581 9.2507 3.82519 9.28525 3.82453C9.3462 3.82336 9.40751 3.822 9.46917 3.82052C9.50347 3.81969 9.53762 3.8189 9.57212 3.81797C9.64229 3.81607 9.71294 3.81389 9.78387 3.81156C9.80929 3.81073 9.83446 3.81003 9.85997 3.80914C9.95596 3.8058 10.0525 3.80205 10.1496 3.7979C10.1727 3.79691 10.196 3.79573 10.2192 3.79469C10.2933 3.79139 10.3674 3.78791 10.4418 3.78413C10.4769 3.78235 10.5121 3.78043 10.5472 3.77855C10.6123 3.77506 10.6773 3.77141 10.7426 3.76754C10.7787 3.7654 10.8147 3.76324 10.8509 3.76099C10.9187 3.75678 10.9865 3.75228 11.0543 3.74765C11.0861 3.74548 11.1178 3.74344 11.1496 3.74117C11.2481 3.73418 11.3466 3.72688 11.4449 3.719C11.4514 3.71848 11.4578 3.71788 11.4643 3.71736C11.5566 3.70992 11.6487 3.70205 11.7406 3.69383C11.7724 3.69099 11.804 3.68796 11.8356 3.68502C11.9023 3.67884 11.9688 3.67251 12.0351 3.66591C12.0713 3.6623 12.1074 3.6586 12.1435 3.65487C12.2067 3.64833 12.2696 3.64158 12.3324 3.63463C12.3676 3.63073 12.4029 3.62689 12.4381 3.62286C12.5103 3.61458 12.582 3.60594 12.6534 3.59713C12.6766 3.59425 12.7001 3.59156 12.7233 3.58863C12.817 3.57677 12.91 3.56444 13.002 3.55164C13.0268 3.54818 13.0511 3.54451 13.0757 3.54099C13.1434 3.53133 13.2107 3.5215 13.2772 3.5113C13.3099 3.50631 13.3421 3.50114 13.3745 3.49602C13.4332 3.48672 13.4914 3.47723 13.549 3.46751C13.5818 3.46199 13.6145 3.45644 13.6469 3.45078C13.7063 3.4404 13.7648 3.42972 13.8229 3.41888C13.8511 3.41361 13.8797 3.40848 13.9076 3.40311C13.9915 3.38694 14.0744 3.37039 14.1554 3.3532C14.1623 3.35173 14.1688 3.35016 14.1757 3.34869C14.2499 3.33283 14.3225 3.31651 14.3939 3.29976C14.4202 3.29361 14.4457 3.28723 14.4715 3.28095C14.5234 3.26836 14.5746 3.25561 14.6249 3.24253C14.6525 3.23535 14.6798 3.22805 14.7069 3.22072C14.7552 3.20765 14.8024 3.1943 14.849 3.18075C14.874 3.17349 14.8992 3.16628 14.9237 3.15889C14.9774 3.14263 15.0296 3.12596 15.0808 3.10904C15.0956 3.10413 15.1112 3.09941 15.1258 3.09445C15.1904 3.07252 15.2526 3.05003 15.3127 3.02701C15.329 3.02075 15.3441 3.01425 15.3601 3.00791C15.4033 2.99075 15.4456 2.97339 15.4862 2.95563C15.506 2.94694 15.5251 2.93808 15.5443 2.92925C15.5798 2.91293 15.6141 2.89639 15.6473 2.87957C15.6655 2.87035 15.6836 2.86112 15.7011 2.85176C15.735 2.83358 15.7671 2.81502 15.7983 2.79627C15.8118 2.78815 15.8261 2.78019 15.839 2.77198C15.8432 2.76932 15.8481 2.76679 15.8522 2.76412V6.21616ZM8.63737 3.42987C4.23123 3.42987 1.41946 2.68587 1.41946 2.17368C1.41946 1.66149 4.23123 0.917492 8.63737 0.917492C13.0416 0.917492 15.8522 1.66149 15.8522 2.17368C15.8522 2.68587 13.0416 3.42987 8.63737 3.42987Z" stroke="#4DC0E0" stroke-width="0.6" mask="url(#path-1-outside-1)"/>
<path d="M14.3793 8.52601L14.3795 8.52595C14.5669 8.48873 14.7611 8.60181 14.8035 8.79612M14.3793 8.52601L13.2775 9.10489C13.2982 9.19949 13.3853 9.26433 13.4825 9.26433C13.4967 9.26433 13.5113 9.26296 13.5257 9.26002L13.5552 9.40709L13.5554 9.40705C13.5555 9.40704 13.5556 9.40702 13.5556 9.40701L14.5243 9.21269C14.5243 9.21269 14.5243 9.21268 14.5243 9.21268C14.7138 9.17468 14.8466 8.99237 14.8035 8.79612M14.3793 8.52601L13.4102 8.72041L14.3793 8.52601ZM14.8035 8.79612C14.8035 8.79616 14.8036 8.79621 14.8036 8.79626L14.657 8.82821L14.8035 8.79597C14.8035 8.79602 14.8035 8.79607 14.8035 8.79612Z" fill="#4DC0E0" stroke="#4DC0E0" stroke-width="0.3"/>
</svg>
