<svg width="21" height="19" viewBox="0 0 21 19" fill="none" xmlns="http://www.w3.org/2000/svg">
<path d="M6.61995 7.92892C6.48747 7.80755 6.27286 7.80755 6.14038 7.92892C6.0079 8.05029 6.0079 8.2469 6.14038 8.36827L7.47876 9.5944C7.545 9.65508 7.63177 9.68542 7.71854 9.68542C7.80532 9.68542 7.89209 9.65508 7.95833 9.5944C8.09081 9.47303 8.09081 9.27641 7.95833 9.15504L6.61995 7.92892Z" fill="#02435D"/>
<path d="M10.6532 11.6242C10.5207 11.5029 10.3061 11.5029 10.1736 11.6242C10.0411 11.7456 10.0411 11.9422 10.1736 12.0636L11.512 13.2897C11.5782 13.3504 11.665 13.3807 11.7517 13.3807C11.8385 13.3807 11.9253 13.3504 11.9915 13.2897C12.124 13.1683 12.124 12.9717 11.9915 12.8503L10.6532 11.6242Z" fill="#02435D"/>
<path d="M8.63656 9.77657C8.50408 9.65521 8.28946 9.65521 8.15698 9.77657C8.0245 9.89794 8.0245 10.0946 8.15698 10.2159L9.49537 11.442C9.56161 11.5027 9.64838 11.5331 9.73516 11.5331C9.82193 11.5331 9.90871 11.5027 9.97495 11.442C10.1074 11.3207 10.1074 11.124 9.97495 11.0027L8.63656 9.77657Z" fill="#02435D"/>
<path d="M1.60644 10.1195L1.60644 10.1195C0.729886 10.9228 0.729886 12.2316 1.60644 13.0349L1.64022 12.998L1.60644 13.0349L6.42489 17.4491C6.86251 17.8501 7.43651 18.0496 8.00946 18.0496C8.58265 18.0496 9.15664 17.8501 9.59427 17.4491L18.3461 9.43128C18.3461 9.43128 18.3461 9.43127 18.3461 9.43127C18.7486 9.06273 18.9714 8.57107 18.9714 8.04762C18.9714 7.61008 18.8159 7.19475 18.5295 6.85478C19.1202 6.13704 19.0585 5.10804 18.3461 4.45535L17.2712 3.47062L20.1212 0.859679C20.2364 0.754147 20.2364 0.581192 20.1212 0.47566C20.0085 0.372436 19.8276 0.372436 19.7149 0.47566L16.8585 3.09252L15.7771 2.10188C15.0646 1.44871 13.9441 1.39532 13.1643 1.93833C12.7928 1.67366 12.3392 1.53074 11.8624 1.53074C11.2952 1.53074 10.7606 1.73324 10.3585 2.10186C10.3585 2.10187 10.3585 2.10187 10.3585 2.10187L1.60644 10.1195ZM12.5111 13.5082L12.5111 13.5082C12.3984 13.405 12.2175 13.405 12.1048 13.5082C11.9896 13.6137 11.9896 13.7867 12.1048 13.8922C12.1048 13.8922 12.1048 13.8922 12.1048 13.8922L12.378 14.1427L9.18802 17.0651C8.53909 17.6594 7.48098 17.66 6.83113 17.0651L2.01269 12.6509C1.36605 12.0583 1.36605 11.0961 2.01269 10.5035L5.20923 7.57521L5.48904 7.83142C5.48904 7.83142 5.48904 7.83143 5.48905 7.83143C5.54582 7.88344 5.61947 7.90884 5.69216 7.90884C5.71509 7.90884 5.73908 7.90305 5.75978 7.8964C5.78114 7.88953 5.8024 7.88061 5.82084 7.87206C5.83939 7.86346 5.8558 7.85491 5.86754 7.84853L5.88156 7.84072L5.88549 7.83846L5.88659 7.83781L5.88691 7.83762L5.88701 7.83756L5.88705 7.83754L5.88706 7.83753L5.86151 7.79455L5.88762 7.83844L5.89528 7.83142C6.01048 7.72589 6.01048 7.55293 5.89528 7.4474L5.89527 7.44739L5.62194 7.19712L10.7647 2.48588C11.0573 2.21786 11.4469 2.06959 11.8624 2.06959C12.2778 2.06959 12.6674 2.21786 12.96 2.48588C13.0145 2.53585 13.0875 2.5633 13.1631 2.5633C13.2387 2.5633 13.3117 2.53585 13.3662 2.48588C13.9181 1.98032 14.8185 1.9799 15.3708 2.48588L16.4457 3.47062L15.6332 4.21501C15.3781 4.05465 15.0775 3.96736 14.7621 3.96736C14.3497 3.96736 13.9609 4.11459 13.668 4.38292C13.375 4.65118 13.2125 5.00934 13.2125 5.39114C13.2125 5.77275 13.375 6.13089 13.668 6.39936C13.9609 6.66769 14.3497 6.81492 14.7621 6.81492C15.1747 6.81492 15.5635 6.6677 15.8562 6.39934C16.1492 6.13088 16.3116 5.77274 16.3116 5.39114C16.3116 5.10209 16.2172 4.82729 16.0447 4.5942L16.8585 3.84871L17.9398 4.83937C18.4894 5.34283 18.4894 6.16051 17.9398 6.66398C17.8851 6.71407 17.8534 6.78293 17.8534 6.85599C17.8534 6.92905 17.8851 6.9979 17.9398 7.048C18.2322 7.31589 18.3923 7.67088 18.3923 8.04762C18.3923 8.42437 18.2322 8.77936 17.9398 9.04725L12.7907 13.7646L12.5111 13.5082ZM14.0743 4.76694C14.2574 4.59921 14.5015 4.50622 14.7621 4.50622C15.0229 4.50622 15.2668 4.5992 15.4499 4.76694C15.6329 4.93455 15.7326 5.15604 15.7326 5.39114C15.7326 5.62603 15.6329 5.84774 15.4499 6.01534C15.2668 6.18308 15.0229 6.27606 14.7621 6.27606C14.5015 6.27606 14.2574 6.18308 14.0743 6.01534C13.8913 5.84774 13.7916 5.62603 13.7916 5.39114C13.7916 5.15604 13.8913 4.93455 14.0743 4.76694Z" fill="#02435D" stroke="#02435D" stroke-width="0.1"/>
</svg>
