<svg width="21" height="18" viewBox="0 0 21 18" fill="none" xmlns="http://www.w3.org/2000/svg">
<path d="M6.61996 7.9063C6.48748 7.79426 6.27286 7.79426 6.14038 7.9063C6.0079 8.01834 6.0079 8.19984 6.14038 8.31188L7.47877 9.44377C7.54501 9.49979 7.63178 9.5278 7.71856 9.5278C7.80533 9.5278 7.89211 9.49979 7.95835 9.44377C8.09083 9.33173 8.09083 9.15023 7.95835 9.03818L6.61996 7.9063Z" fill="#4DC0E0"/>
<path d="M10.6532 11.3165C10.5207 11.2044 10.3061 11.2044 10.1736 11.3165C10.0411 11.4285 10.0411 11.61 10.1736 11.722L11.512 12.8539C11.5782 12.9099 11.665 12.938 11.7518 12.938C11.8385 12.938 11.9253 12.9099 11.9915 12.8539C12.124 12.7419 12.124 12.5604 11.9915 12.4483L10.6532 11.3165Z" fill="#4DC0E0"/>
<path d="M8.63753 9.61137C8.50505 9.49933 8.29043 9.49933 8.15795 9.61137C8.02547 9.72341 8.02547 9.90491 8.15795 10.017L9.49634 11.1488C9.56258 11.2048 9.64935 11.2328 9.73613 11.2328C9.8229 11.2328 9.90968 11.2048 9.97592 11.1488C10.1084 11.0368 10.1084 10.8553 9.97592 10.7432L8.63753 9.61137Z" fill="#4DC0E0"/>
<path d="M5.86248 7.78169L5.91062 7.86934L5.9194 7.86452L5.92706 7.85804C5.99484 7.80072 6.03265 7.72159 6.03265 7.63847C6.03265 7.55535 5.99484 7.47622 5.92706 7.4189L5.92704 7.41888L5.70377 7.23016L10.7965 2.92335C11.0792 2.6843 11.4576 2.55058 11.8633 2.55058C12.269 2.55058 12.6475 2.6843 12.9301 2.92335L12.9947 2.847L12.9301 2.92335C12.9946 2.97784 13.0788 3.00634 13.1641 3.00634C13.2493 3.00634 13.3336 2.97784 13.398 2.92335C13.9317 2.472 14.8069 2.47163 15.341 2.92335L16.3659 3.79008L15.6288 4.41343C15.3724 4.27141 15.0744 4.1948 14.763 4.1948C14.341 4.1948 13.941 4.33387 13.6382 4.58995C13.3349 4.84627 13.1635 5.19171 13.1635 5.563C13.1635 5.93411 13.3349 6.27954 13.6382 6.53605C13.941 6.79213 14.341 6.93119 14.763 6.93119C15.1853 6.93119 15.5854 6.79213 15.8879 6.53602C16.1912 6.27952 16.3626 5.9341 16.3626 5.563C16.3626 5.29986 16.2753 5.05005 16.1168 4.83551L16.8594 4.20748L17.91 5.09595C18.434 5.53907 18.434 6.25257 17.91 6.69568C17.8451 6.75058 17.8044 6.82895 17.8044 6.91526C17.8044 7.00157 17.8451 7.07993 17.91 7.13483C18.1922 7.37346 18.3433 7.68636 18.3433 8.01531C18.3433 8.34425 18.1922 8.65715 17.91 8.89578L17.9746 8.97214L17.91 8.89578L12.7917 13.2245L12.5429 13.0139L12.5428 13.0139C12.412 12.9032 12.2058 12.9032 12.075 13.0139C12.0072 13.0712 11.9694 13.1503 11.9694 13.2335C11.9694 13.3166 12.0072 13.3957 12.075 13.453L12.2982 13.6419L9.1582 16.2974C9.1582 16.2974 9.15819 16.2974 9.15819 16.2974C8.52742 16.8307 7.49459 16.8312 6.86291 16.2974C6.8629 16.2974 6.86289 16.2974 6.86288 16.2974L2.04448 12.2224L5.86248 7.78169ZM5.86248 7.78169L5.91059 7.86935L5.91057 7.86937L5.91051 7.8694L5.91037 7.86947L5.90997 7.86969L5.9087 7.87038L5.90439 7.87268L5.88948 7.88034C5.87711 7.88655 5.8598 7.89488 5.84012 7.9033C5.80608 7.91787 5.74656 7.94103 5.69313 7.94103C5.61121 7.94103 5.52622 7.9147 5.45923 7.85806C5.45923 7.85805 5.45922 7.85805 5.45921 7.85804L5.21021 7.64757M5.86248 7.78169L5.21021 7.64757M5.21021 7.64757L2.04448 10.3248C1.42343 10.8502 1.42342 11.697 2.04446 12.2224L5.21021 7.64757ZM1.57662 9.88565L1.57661 9.88566C0.674464 10.6488 0.674464 11.8984 1.57661 12.6616L1.57662 12.6616L6.39507 16.7366C6.84294 17.1153 7.4283 17.3024 8.01043 17.3024C8.5928 17.3024 9.17816 17.1153 9.62603 16.7366L18.3778 9.33495C18.3778 9.33494 18.3778 9.33494 18.3778 9.33493C18.7906 8.98603 19.0224 8.51736 19.0224 8.01531C19.0224 7.61184 18.8728 7.22956 18.5992 6.91368C19.1758 6.22936 19.0996 5.26717 18.3778 4.65681L17.353 3.79008L20.1529 1.42214C20.2207 1.36481 20.2585 1.28568 20.2585 1.20256C20.2585 1.11945 20.2207 1.04031 20.1529 0.982989L20.1529 0.982989C20.0221 0.872337 19.8159 0.872337 19.6851 0.982989L19.7497 1.05934L19.6851 0.982989L16.8594 3.37268L15.8089 2.48423C15.8089 2.48422 15.8089 2.48421 15.8089 2.48421C15.0871 1.87339 13.9609 1.81836 13.1656 2.31301C12.7904 2.0737 12.3376 1.94545 11.8633 1.94545C11.2864 1.94545 10.7407 2.13554 10.3286 2.48422L1.57662 9.88565ZM14.106 5.02909C14.2792 4.88262 14.5122 4.79993 14.763 4.79993C15.0142 4.79993 15.2469 4.88261 15.4201 5.02909C15.5928 5.17515 15.6836 5.36481 15.6836 5.563C15.6836 5.761 15.5928 5.95085 15.4201 6.0969C15.2469 6.24338 15.0142 6.32606 14.763 6.32606C14.5122 6.32606 14.2792 6.24337 14.106 6.0969C13.9333 5.95085 13.8425 5.761 13.8425 5.563C13.8425 5.36481 13.9333 5.17515 14.106 5.02909Z" fill="#4DC0E0" stroke="#4DC0E0" stroke-width="0.2"/>
</svg>
