<svg width="16" height="17" viewBox="0 0 16 17" fill="none" xmlns="http://www.w3.org/2000/svg">
<path d="M1 15.469C1 15.7451 1.22386 15.969 1.5 15.969H14.5C14.7761 15.969 15 15.7451 15 15.469V0.938355C15 0.662212 14.7761 0.438354 14.5 0.438354H6.04H3.24H1.5C1.22386 0.438354 1 0.662212 1 0.938354V15.469ZM3.8 0.973894H5.48V4.34244L4.64 3.53913L3.8 4.34244V0.973894ZM1.56 1.47389C1.56 1.19775 1.78386 0.973894 2.06 0.973894H3.24V5.17044C3.24 5.34648 3.45101 5.43665 3.57823 5.31499L4.64 4.29959L5.70177 5.31499C5.82899 5.43665 6.04 5.34648 6.04 5.17044V0.973894H13.94C14.2161 0.973894 14.44 1.19775 14.44 1.47389V13.2913H1.56V1.47389ZM1.56 13.8268H14.44V14.9335C14.44 15.2096 14.2161 15.4335 13.94 15.4335H1.56V13.8268Z" fill="#02435D" stroke="#02435D" stroke-width="0.2"/>
</svg>
