<svg width="20" height="20" viewBox="0 0 20 20" fill="none" xmlns="http://www.w3.org/2000/svg">
<path d="M13.6478 9.99982C13.6475 10.6928 13.9052 11.347 14.3745 11.8525L11.852 14.3749C11.3657 13.9235 10.7145 13.6472 10 13.6472C9.2855 13.6472 8.63431 13.9238 8.14802 14.3746L5.62513 11.8521C6.07627 11.3656 6.35291 10.7147 6.35291 9.99982C6.35291 9.28499 6.0763 8.63378 5.62515 8.14748L8.14764 5.6247C8.63428 6.07616 9.2855 6.35244 10 6.35244C10.7145 6.35244 11.3657 6.07581 11.8523 5.62468L14.3741 8.14678C13.9052 8.65227 13.6475 9.30648 13.6478 9.99982ZM13.6478 9.99982C13.6478 9.9998 13.6478 9.99978 13.6478 9.99977L13.7478 9.99982L13.6478 9.99987C13.6478 9.99985 13.6478 9.99984 13.6478 9.99982ZM16.3737 7.2736C15.8014 7.2736 15.2576 7.45142 14.8005 7.77623L12.2225 5.19831C12.538 4.75393 12.7263 4.21226 12.7263 3.62622C12.7263 2.12301 11.5036 0.9 10 0.9C8.49639 0.9 7.27373 2.12301 7.27373 3.62622C7.27373 4.21223 7.46161 4.7539 7.77712 5.19832L5.19839 7.77734C4.754 7.46183 4.21233 7.2736 3.62627 7.2736C2.12303 7.2736 0.9 8.4966 0.9 9.99982C0.9 11.503 2.12303 12.726 3.62627 12.726C4.21233 12.726 4.754 12.5378 5.1984 12.2223L7.77748 14.8013C7.46196 15.2457 7.27373 15.7874 7.27373 16.3738C7.27373 17.877 8.49676 19.1 10 19.1C11.5032 19.1 12.7263 17.8774 12.7263 16.3738C12.7263 15.7877 12.538 15.2458 12.2225 14.8013L14.8008 12.2231C15.2577 12.5482 15.8022 12.726 16.3741 12.726C17.877 12.726 19.1 11.5034 19.1 9.99982C19.1 8.49624 17.8773 7.2736 16.3737 7.2736ZM10 1.46354C11.1925 1.46354 12.1627 2.43378 12.1627 3.62622C12.1627 4.81866 11.1925 5.7889 10 5.7889C8.80753 5.7889 7.83728 4.81866 7.83728 3.62622C7.83728 2.43378 8.80753 1.46354 10 1.46354ZM1.46355 9.99982C1.46355 8.80738 2.4338 7.83714 3.62627 7.83714C4.81874 7.83714 5.789 8.80738 5.789 9.99982C5.789 11.1923 4.81874 12.1625 3.62627 12.1625C2.4338 12.1625 1.46355 11.1923 1.46355 9.99982ZM10 18.5361C8.80753 18.5361 7.83728 17.5659 7.83728 16.3734C7.83728 15.1806 8.80754 14.2104 10 14.2104C11.1925 14.2104 12.1627 15.1806 12.1627 16.3734C12.1627 17.5659 11.1925 18.5361 10 18.5361ZM16.3741 12.1625C15.7964 12.1625 15.2532 11.9378 14.8449 11.5291C14.4364 11.1203 14.2114 10.5778 14.2114 10.0002C14.2114 9.42245 14.4357 8.87969 14.8445 8.47095C15.2532 8.06218 15.796 7.8375 16.3737 7.8375C17.5662 7.8375 18.5365 8.80774 18.5365 10.0002C18.5365 11.1923 17.5666 12.1625 16.3741 12.1625Z" fill="#02435D" stroke="#02435D" stroke-width="0.2"/>
</svg>
