<svg width="15" height="19" viewBox="0 0 15 19" fill="none" xmlns="http://www.w3.org/2000/svg">
<path d="M7.20007 0.491455C8.08365 0.491455 8.89355 0.931416 9.33195 1.63427L12.0074 1.63427C13.3254 1.63569 14.3985 2.63091 14.4 3.86533V15.8571C14.3985 17.0911 13.3254 18.0863 12.007 18.0877H2.39243C1.07444 18.0863 0.0015433 17.0911 0 15.8566V3.86488C0.0015433 2.6309 1.07444 1.63569 2.39288 1.63427H5.06805C5.50646 0.931401 6.31638 0.491455 7.20007 0.491455ZM7.20007 1.25651C6.53693 1.25651 5.9385 1.61825 5.67349 2.17522L5.56686 2.39932L2.39333 2.39932C1.51109 2.40027 0.801009 3.05894 0.8 3.86533V15.8562C0.801009 16.663 1.51109 17.3217 2.39288 17.3227H12.0065C12.8888 17.3217 13.599 16.663 13.6 15.8566V3.86579C13.599 3.05897 12.8888 2.40027 12.007 2.39932H8.83314L8.72651 2.17522C8.46151 1.61826 7.86309 1.25651 7.20007 1.25651ZM9.44531 8.64881C9.62493 8.4876 9.91103 8.49128 10.0857 8.65709C10.2601 8.82291 10.2572 9.08839 10.079 9.25092L6.78383 12.235C6.60761 12.3947 6.32619 12.3947 6.14983 12.235L4.32069 10.5785C4.13979 10.4086 4.1405 10.1443 4.31601 9.98058C4.49167 9.817 4.77663 9.81503 4.95455 9.9765L6.46697 11.3457L9.44531 8.64881Z" fill="#02435D"/>
</svg>
