<svg width="173" height="16" viewBox="0 0 173 16" fill="none" xmlns="http://www.w3.org/2000/svg">
<g clip-path="url(#clip0)">
<path d="M7.99467 6.98953C7.90545 6.99139 7.82044 7.04022 7.75828 7.12531C7.69612 7.2104 7.6619 7.3248 7.66312 7.44339V10.5775C7.66249 10.6368 7.67073 10.6957 7.68738 10.7508C7.70402 10.8058 7.72873 10.8559 7.76007 10.8982C7.7914 10.9404 7.82875 10.974 7.86992 10.9969C7.9111 11.0198 7.95529 11.0316 7.99993 11.0316C8.04456 11.0316 8.08875 11.0198 8.12993 10.9969C8.17111 10.974 8.20845 10.9404 8.23979 10.8982C8.27113 10.8559 8.29584 10.8058 8.31248 10.7508C8.32912 10.6957 8.33737 10.6368 8.33674 10.5775V7.44339C8.33736 7.38349 8.32893 7.32404 8.31195 7.26854C8.29497 7.21305 8.26978 7.16265 8.23789 7.12033C8.20599 7.07801 8.16803 7.04463 8.12625 7.02216C8.08448 6.99969 8.03973 6.9886 7.99467 6.98953H7.99467Z" fill="#02435D"/>
<path d="M7.99993 5.47368C8.18596 5.47368 8.33677 5.32287 8.33677 5.13684C8.33677 4.9508 8.18596 4.8 7.99993 4.8C7.8139 4.8 7.66309 4.9508 7.66309 5.13684C7.66309 5.32287 7.8139 5.47368 7.99993 5.47368Z" fill="#02435D"/>
<path d="M7.99998 1.6C4.47079 1.6 1.59998 4.47081 1.59998 8C1.59998 11.5292 4.47079 14.4 7.99998 14.4C11.5292 14.4 14.4 11.5292 14.4 8C14.4 4.47081 11.5292 1.6 7.99998 1.6ZM7.99998 2.51428C11.0351 2.51428 13.4857 4.96489 13.4857 8C13.4857 11.0351 11.0351 13.4857 7.99998 13.4857C4.96487 13.4857 2.51426 11.0351 2.51426 8C2.51426 4.96489 4.96487 2.51428 7.99998 2.51428Z" fill="#02435D"/>
<path d="M31.6426 10.0137H28.3379L27.6465 12H26.1055L29.3281 3.46875H30.6582L33.8867 12H32.3398L31.6426 10.0137ZM28.7539 8.81836H31.2266L29.9902 5.2793L28.7539 8.81836ZM37.3262 10.9805C37.6816 10.9805 37.9766 10.877 38.2109 10.6699C38.4453 10.4629 38.5703 10.207 38.5859 9.90234H39.9277C39.9121 10.2969 39.7891 10.666 39.5586 11.0098C39.3281 11.3496 39.0156 11.6191 38.6211 11.8184C38.2266 12.0176 37.8008 12.1172 37.3438 12.1172C36.457 12.1172 35.7539 11.8301 35.2344 11.2559C34.7148 10.6816 34.4551 9.88867 34.4551 8.87695V8.73047C34.4551 7.76562 34.7129 6.99414 35.2285 6.41602C35.7441 5.83398 36.4473 5.54297 37.3379 5.54297C38.0918 5.54297 38.7051 5.76367 39.1777 6.20508C39.6543 6.64258 39.9043 7.21875 39.9277 7.93359H38.5859C38.5703 7.57031 38.4453 7.27148 38.2109 7.03711C37.9805 6.80273 37.6855 6.68555 37.3262 6.68555C36.8652 6.68555 36.5098 6.85352 36.2598 7.18945C36.0098 7.52148 35.8828 8.02734 35.8789 8.70703V8.93555C35.8789 9.62305 36.002 10.1367 36.248 10.4766C36.498 10.8125 36.8574 10.9805 37.3262 10.9805ZM42.7871 4.11914V5.66016H43.9062V6.71484H42.7871V10.2539C42.7871 10.4961 42.834 10.6719 42.9277 10.7812C43.0254 10.8867 43.1973 10.9395 43.4434 10.9395C43.6074 10.9395 43.7734 10.9199 43.9414 10.8809V11.9824C43.6172 12.0723 43.3047 12.1172 43.0039 12.1172C41.9102 12.1172 41.3633 11.5137 41.3633 10.3066V6.71484H40.3203V5.66016H41.3633V4.11914H42.7871ZM48.8398 11.3789C48.4219 11.8711 47.8281 12.1172 47.0586 12.1172C46.3711 12.1172 45.8496 11.916 45.4941 11.5137C45.1426 11.1113 44.9668 10.5293 44.9668 9.76758V5.66016H46.3906V9.75C46.3906 10.5547 46.7246 10.957 47.3926 10.957C48.084 10.957 48.5508 10.709 48.793 10.2129V5.66016H50.2168V12H48.875L48.8398 11.3789ZM55.4551 12C55.3926 11.8789 55.3379 11.6816 55.291 11.4082C54.8379 11.8809 54.2832 12.1172 53.627 12.1172C52.9902 12.1172 52.4707 11.9355 52.0684 11.5723C51.666 11.209 51.4648 10.7598 51.4648 10.2246C51.4648 9.54883 51.7148 9.03125 52.2148 8.67188C52.7188 8.30859 53.4375 8.12695 54.3711 8.12695H55.2441V7.71094C55.2441 7.38281 55.1523 7.12109 54.9688 6.92578C54.7852 6.72656 54.5059 6.62695 54.1309 6.62695C53.8066 6.62695 53.541 6.70898 53.334 6.87305C53.127 7.0332 53.0234 7.23828 53.0234 7.48828H51.5996C51.5996 7.14062 51.7148 6.81641 51.9453 6.51562C52.1758 6.21094 52.4883 5.97266 52.8828 5.80078C53.2812 5.62891 53.7246 5.54297 54.2129 5.54297C54.9551 5.54297 55.5469 5.73047 55.9883 6.10547C56.4297 6.47656 56.6562 7 56.668 7.67578V10.5352C56.668 11.1055 56.748 11.5605 56.9082 11.9004V12H55.4551ZM53.8906 10.9746C54.1719 10.9746 54.4355 10.9062 54.6816 10.7695C54.9316 10.6328 55.1191 10.4492 55.2441 10.2188V9.02344H54.4766C53.9492 9.02344 53.5527 9.11523 53.2871 9.29883C53.0215 9.48242 52.8887 9.74219 52.8887 10.0781C52.8887 10.3516 52.9785 10.5703 53.1582 10.7344C53.3418 10.8945 53.5859 10.9746 53.8906 10.9746ZM59.6738 12H58.25V3H59.6738V12Z" fill="black"/>
<path d="M71 8.06065L169 8.06065" stroke="black" stroke-width="0.5"/>
<path d="M172.939 8L168.621 4.68199L168.621 11.318L172.939 8Z" fill="black"/>
</g>
<defs>
<clipPath id="clip0">
<rect width="172.939" height="16" fill="white"/>
</clipPath>
</defs>
</svg>
