<svg width="17" height="19" viewBox="0 0 17 19" fill="none" xmlns="http://www.w3.org/2000/svg">
<path d="M8.875 17.125C8.24219 17.125 7.75 16.6328 7.75 16H6.625C6.625 17.2656 7.60938 18.25 8.875 18.25C10.1055 18.25 11.125 17.2656 11.125 16H10C10 16.6328 9.47266 17.125 8.875 17.125ZM16.2227 12.0273C15.2383 11.1133 14.5 10.1289 14.5 6.78906C14.5 4.01172 12.25 1.72656 9.4375 1.44531V0.8125C9.4375 0.53125 9.15625 0.25 8.875 0.25C8.55859 0.25 8.3125 0.53125 8.3125 0.8125V1.44531C5.46484 1.72656 3.21484 4.01172 3.21484 6.78906C3.21484 10.1289 2.47656 11.1133 1.49219 12.0273C1 12.5195 0.859375 13.2227 1.10547 13.8555C1.35156 14.4883 1.98438 14.875 2.6875 14.875H15.0625C15.7305 14.875 16.3633 14.4883 16.6094 13.8555C16.8555 13.2227 16.7148 12.5195 16.2227 12.0273ZM15.0625 13.75H2.6875C2.16016 13.75 1.91406 13.1875 2.26562 12.8359C3.49609 11.6758 4.33984 10.375 4.33984 6.78906C4.33984 4.43359 6.37891 2.5 8.875 2.5C11.3359 2.5 13.375 4.43359 13.375 6.78906C13.375 10.375 14.2188 11.6758 15.4492 12.8359C15.8008 13.1875 15.5547 13.75 15.0625 13.75Z" fill="#01435D"/>
</svg>
