<svg xmlns="http://www.w3.org/2000/svg" width="24" height="24" viewBox="0 0 24 24">
    <g fill="none" fill-rule="evenodd">
        <path d="M0 0H24V24H0z"/>
        <path fill="#02435D" fill-rule="nonzero" d="M12 22.5c.39 0 .723-.137.996-.41.274-.274.41-.606.41-.996v-.938h5.39c.196 0 .362-.068.499-.205.137-.137.205-.303.205-.498s-.068-.361-.205-.498c-.137-.137-.303-.205-.498-.205h-.547V10c0-1.602-.534-2.995-1.602-4.18-1.067-1.185-2.382-1.862-3.945-2.03v-.587c0-.195-.068-.361-.205-.498-.137-.137-.303-.205-.498-.205s-.361.068-.498.205c-.137.137-.205.303-.205.498v.586c-1.563.17-2.878.846-3.945 2.031C6.284 7.005 5.75 8.398 5.75 10v8.75h-.547c-.195 0-.361.068-.498.205-.137.137-.205.303-.205.498s.068.361.205.498c.137.137.303.205.498.205h5.39v.938c0 .39.137.722.41.996.274.273.606.41.997.41zm4.844-3.75H7.156V10c0-1.341.472-2.484 1.416-3.428S10.66 5.156 12 5.156c1.341 0 2.484.472 3.428 1.416S16.844 8.66 16.844 10v8.75z"/>
    </g>
</svg>
