<svg xmlns="http://www.w3.org/2000/svg" width="24" height="24" viewBox="0 0 24 24">
    <defs>
        <linearGradient id="prefix__a" x1="19.872%" x2="110.958%" y1="0%" y2="166%">
            <stop offset="0%" stop-color="#1CA7E5"/>
            <stop offset="100%" stop-color="#65D7C8"/>
        </linearGradient>
    </defs>
    <g fill="none" fill-rule="evenodd">
        <path d="M0 0H24V24H0z"/>
        <path fill="url(#prefix__a)" fill-opacity=".88" fill-rule="nonzero" d="M4.48 13.851c-1.326.378-2.1 1.81-1.739 3.182.362 1.372 1.727 2.2 3.054 1.823 1.327-.378 2.101-1.81 1.74-3.182-.153-.583-.483-1.06-.915-1.399l2.476-5.07c.33.092.686.099 1.035-.007.311-.086.59-.252.813-.464l2.698 2.008c-.12.319-.14.683-.05 1.034.234.895 1.123 1.426 1.98 1.18.857-.245 1.365-1.173 1.13-2.068-.235-.895-1.123-1.425-1.98-1.18-.223.067-.432.18-.597.332l-2.692-2.015c.177-.418.222-.902.095-1.38-.038-.145-.095-.284-.159-.417l2.368-2.055c.521.438 1.22.617 1.911.425 1.137-.325 1.816-1.558 1.499-2.745C16.842.667 15.66-.043 14.518.283c-1.143.324-1.816 1.557-1.498 2.744.044.172.108.331.184.477l-2.368 2.068c-.483-.385-1.124-.55-1.752-.371-.369.106-.686.311-.927.583L5.4 4.054c.235-.583.286-1.24.114-1.896C5.11.6 3.56-.32 2.062.103.563.528-.307 2.152.1 3.71c.406 1.558 1.955 2.48 3.454 2.055.584-.166 1.066-.51 1.422-.968l2.762 1.73c-.127.385-.146.81-.038 1.22.114.431.355.802.66 1.06l-2.476 5.072c-.451-.14-.934-.16-1.403-.027z" transform="translate(3 3)"/>
    </g>
</svg>
