<svg width="109" height="109" viewBox="0 0 109 109" fill="none" xmlns="http://www.w3.org/2000/svg">
<g filter="url(#filter0_d)">
<rect x="4" y="3" width="101" height="101" rx="4" fill="white"/>
</g>
<path d="M54.4483 42.4905C54.4292 42.4661 54.4048 42.4463 54.3769 42.4328C54.349 42.4192 54.3184 42.4121 54.2874 42.4121C54.2564 42.4121 54.2258 42.4192 54.1979 42.4328C54.17 42.4463 54.1456 42.4661 54.1265 42.4905L51.266 46.1095C51.2424 46.1396 51.2278 46.1758 51.2238 46.2138C51.2198 46.2519 51.2265 46.2903 51.2433 46.3246C51.2601 46.359 51.2862 46.388 51.3187 46.4082C51.3512 46.4284 51.3887 46.4391 51.4269 46.439H53.3143V52.6299C53.3143 52.7423 53.4063 52.8342 53.5186 52.8342H55.051C55.1634 52.8342 55.2554 52.7423 55.2554 52.6299V46.4416H57.1479C57.319 46.4416 57.4135 46.2449 57.3088 46.1121L54.4483 42.4905Z" fill="#F56C6C"/>
<path d="M61.9344 40.1327C60.7646 37.0474 57.7841 34.8535 54.2928 34.8535C50.8014 34.8535 47.8209 37.0449 46.6512 40.1301C44.4624 40.7047 42.8457 42.6994 42.8457 45.0696C42.8457 47.8917 45.1315 50.1776 47.9512 50.1776H48.9753C49.0877 50.1776 49.1796 50.0856 49.1796 49.9732V48.4408C49.1796 48.3285 49.0877 48.2365 48.9753 48.2365H47.9512C47.0905 48.2365 46.2808 47.8943 45.6781 47.2737C45.0779 46.6556 44.7587 45.823 44.7867 44.9597C44.8097 44.2855 45.0396 43.6521 45.4559 43.1183C45.8824 42.5743 46.4801 42.1784 47.1441 42.0022L48.1121 41.7493L48.4671 40.8146C48.6867 40.2323 48.9932 39.6883 49.3789 39.1953C49.7596 38.7068 50.2106 38.2773 50.7172 37.9209C51.7669 37.1828 53.003 36.792 54.2928 36.792C55.5825 36.792 56.8187 37.1828 57.8684 37.9209C58.3766 38.2784 58.8261 38.7075 59.2067 39.1953C59.5923 39.6883 59.8988 40.2348 60.1185 40.8146L60.4709 41.7468L61.4363 42.0022C62.8206 42.3751 63.7886 43.6342 63.7886 45.0696C63.7886 45.9149 63.4591 46.7118 62.8615 47.3094C62.5684 47.6042 62.2197 47.838 61.8357 47.9971C61.4516 48.1562 61.0399 48.2376 60.6242 48.2365H59.6C59.4876 48.2365 59.3957 48.3285 59.3957 48.4408V49.9732C59.3957 50.0856 59.4876 50.1776 59.6 50.1776H60.6242C63.4438 50.1776 65.7296 47.8917 65.7296 45.0696C65.7296 42.702 64.118 40.7099 61.9344 40.1327Z" fill="#F56C6C"/>
<path d="M39.9961 66.4688V72.2695C39.9922 73.0742 39.7383 73.7324 39.2344 74.2441C38.7344 74.7559 38.0547 75.043 37.1953 75.1055L36.8965 75.1172C35.9629 75.1172 35.2188 74.8652 34.6641 74.3613C34.1094 73.8574 33.8281 73.1641 33.8203 72.2812V66.4688H34.9336V72.2461C34.9336 72.8633 35.1035 73.3438 35.4434 73.6875C35.7832 74.0273 36.2676 74.1973 36.8965 74.1973C37.5332 74.1973 38.0195 74.0273 38.3555 73.6875C38.6953 73.3477 38.8652 72.8691 38.8652 72.252V66.4688H39.9961ZM46.957 71.9004C46.957 72.8652 46.7363 73.6426 46.2949 74.2324C45.8535 74.8223 45.2559 75.1172 44.502 75.1172C43.7324 75.1172 43.127 74.873 42.6855 74.3848V77.4375H41.6016V68.6602H42.5918L42.6445 69.3633C43.0859 68.8164 43.6992 68.543 44.4844 68.543C45.2461 68.543 45.8477 68.8301 46.2891 69.4043C46.7344 69.9785 46.957 70.7773 46.957 71.8008V71.9004ZM45.873 71.7773C45.873 71.0625 45.7207 70.498 45.416 70.084C45.1113 69.6699 44.6934 69.4629 44.1621 69.4629C43.5059 69.4629 43.0137 69.7539 42.6855 70.3359V73.3652C43.0098 73.9434 43.5059 74.2324 44.1738 74.2324C44.6934 74.2324 45.1055 74.0273 45.4102 73.6172C45.7188 73.2031 45.873 72.5898 45.873 71.7773ZM49.5176 75H48.4336V66H49.5176V75ZM50.9707 71.7715C50.9707 71.1504 51.0918 70.5918 51.334 70.0957C51.5801 69.5996 51.9199 69.2168 52.3535 68.9473C52.791 68.6777 53.2891 68.543 53.8477 68.543C54.7109 68.543 55.4082 68.8418 55.9395 69.4395C56.4746 70.0371 56.7422 70.832 56.7422 71.8242V71.9004C56.7422 72.5176 56.623 73.0723 56.3848 73.5645C56.1504 74.0527 55.8125 74.4336 55.3711 74.707C54.9336 74.9805 54.4297 75.1172 53.8594 75.1172C53 75.1172 52.3027 74.8184 51.7676 74.2207C51.2363 73.623 50.9707 72.832 50.9707 71.8477V71.7715ZM52.0605 71.9004C52.0605 72.6035 52.2227 73.168 52.5469 73.5938C52.875 74.0195 53.3125 74.2324 53.8594 74.2324C54.4102 74.2324 54.8477 74.0176 55.1719 73.5879C55.4961 73.1543 55.6582 72.5488 55.6582 71.7715C55.6582 71.0762 55.4922 70.5137 55.1602 70.084C54.832 69.6504 54.3945 69.4336 53.8477 69.4336C53.3125 69.4336 52.8809 69.6465 52.5527 70.0723C52.2246 70.498 52.0605 71.1074 52.0605 71.9004ZM62.0156 75C61.9531 74.875 61.9023 74.6523 61.8633 74.332C61.3594 74.8555 60.7578 75.1172 60.0586 75.1172C59.4336 75.1172 58.9199 74.9414 58.5176 74.5898C58.1191 74.2344 57.9199 73.7852 57.9199 73.2422C57.9199 72.582 58.1699 72.0703 58.6699 71.707C59.1738 71.3398 59.8809 71.1562 60.791 71.1562H61.8457V70.6582C61.8457 70.2793 61.7324 69.9785 61.5059 69.7559C61.2793 69.5293 60.9453 69.416 60.5039 69.416C60.1172 69.416 59.793 69.5137 59.5312 69.709C59.2695 69.9043 59.1387 70.1406 59.1387 70.418H58.0488C58.0488 70.1016 58.1602 69.7969 58.3828 69.5039C58.6094 69.207 58.9141 68.9727 59.2969 68.8008C59.6836 68.6289 60.1074 68.543 60.5684 68.543C61.2988 68.543 61.8711 68.7266 62.2852 69.0938C62.6992 69.457 62.9141 69.959 62.9297 70.5996V73.5176C62.9297 74.0996 63.0039 74.5625 63.1523 74.9062V75H62.0156ZM60.2168 74.1738C60.5566 74.1738 60.8789 74.0859 61.1836 73.9102C61.4883 73.7344 61.709 73.5059 61.8457 73.2246V71.9238H60.9961C59.668 71.9238 59.0039 72.3125 59.0039 73.0898C59.0039 73.4297 59.1172 73.6953 59.3438 73.8867C59.5703 74.0781 59.8613 74.1738 60.2168 74.1738ZM64.3652 71.7773C64.3652 70.8047 64.5957 70.0234 65.0566 69.4336C65.5176 68.8398 66.1211 68.543 66.8672 68.543C67.6094 68.543 68.1973 68.7969 68.6309 69.3047V66H69.7148V75H68.7188L68.666 74.3203C68.2324 74.8516 67.6289 75.1172 66.8555 75.1172C66.1211 75.1172 65.5215 74.8164 65.0566 74.2148C64.5957 73.6133 64.3652 72.8281 64.3652 71.8594V71.7773ZM65.4492 71.9004C65.4492 72.6191 65.5977 73.1816 65.8945 73.5879C66.1914 73.9941 66.6016 74.1973 67.125 74.1973C67.8125 74.1973 68.3145 73.8887 68.6309 73.2715V70.3594C68.3066 69.7617 67.8086 69.4629 67.1367 69.4629C66.6055 69.4629 66.1914 69.668 65.8945 70.0781C65.5977 70.4883 65.4492 71.0957 65.4492 71.9004Z" fill="#313131"/>
<defs>
<filter id="filter0_d" x="0" y="0" width="109" height="109" filterUnits="userSpaceOnUse" color-interpolation-filters="sRGB">
<feFlood flood-opacity="0" result="BackgroundImageFix"/>
<feColorMatrix in="SourceAlpha" type="matrix" values="0 0 0 0 0 0 0 0 0 0 0 0 0 0 0 0 0 0 127 0"/>
<feOffset dy="1"/>
<feGaussianBlur stdDeviation="2"/>
<feColorMatrix type="matrix" values="0 0 0 0 0 0 0 0 0 0 0 0 0 0 0 0 0 0 0.25 0"/>
<feBlend mode="normal" in2="BackgroundImageFix" result="effect1_dropShadow"/>
<feBlend mode="normal" in="SourceGraphic" in2="effect1_dropShadow" result="shape"/>
</filter>
</defs>
</svg>
