<svg width="66" height="78" viewBox="0 0 66 78" fill="none" xmlns="http://www.w3.org/2000/svg">
<path fill-rule="evenodd" clip-rule="evenodd" d="M32.9047 38.4314L65.5 19.1664L33.0953 0L0.5 19.1664L32.9047 38.4314Z" fill="#E8F2FE"/>
<path fill-rule="evenodd" clip-rule="evenodd" d="M32.8725 36.3309L61.5512 19.2849L33.0402 2.32617L4.36148 19.2849L32.8725 36.3309Z" fill="#F0F7FF"/>
<path d="M32.9577 36.3309V2.32617L61.5525 19.3285L32.9577 36.3309Z" fill="#090F17"/>
<path d="M32.9577 36.3309V2.32617L4.36279 19.3285L32.9577 36.3309Z" fill="#010202"/>
<path fill-rule="evenodd" clip-rule="evenodd" d="M0.5 19.1699V57.7684L33.0953 77.287V38.4349L0.5 19.1699Z" fill="#CEE0F8"/>
<path fill-rule="evenodd" clip-rule="evenodd" d="M65.5 19.1699V57.7684L32.9047 77.287V38.4349L65.5 19.1699Z" fill="#6F8EBD"/>
<path d="M32.9496 36.3194L14.8457 25.5593V27.6759L32.9496 38.3745L54.9375 25.4268V23.2549L32.9496 36.3194Z" fill="#E8F2FE"/>
</svg>
