<svg width="66" height="78" viewBox="0 0 66 78" fill="none" xmlns="http://www.w3.org/2000/svg">
<path fill-rule="evenodd" clip-rule="evenodd" d="M32.9047 38.4314L65.5 19.1664L33.0953 0L0.5 19.1664L32.9047 38.4314Z" fill="#E8F2FE"/>
<path fill-rule="evenodd" clip-rule="evenodd" d="M32.8724 36.3289L61.5511 19.283L33.04 2.32422L4.36133 19.283L32.8724 36.3289Z" fill="#F0F7FF"/>
<path d="M32.9575 36.3289V2.32422L61.5524 19.3266L32.9575 36.3289Z" fill="#090F17"/>
<path d="M32.9575 36.3289V2.32422L4.36264 19.3266L32.9575 36.3289Z" fill="#010202"/>
<path fill-rule="evenodd" clip-rule="evenodd" d="M0.5 19.168V57.7664L33.0953 77.2851V38.4329L0.5 19.168Z" fill="#CEE0F8"/>
<path fill-rule="evenodd" clip-rule="evenodd" d="M65.5 19.168V57.7664L32.9047 77.2851V38.4329L65.5 19.168Z" fill="#6F8EBD"/>
<path d="M32.9496 36.3184L14.8457 25.5584V27.6749L32.9496 38.3735L54.9375 25.4259V23.2539L32.9496 36.3184Z" fill="#E8F2FE"/>
</svg>
