<svg width="14" height="11" viewBox="0 0 14 11" fill="none" xmlns="http://www.w3.org/2000/svg">
<path d="M4.72682 2.29769C4.49041 1.35205 3.63074 0.642822 2.62063 0.642822C1.41709 0.642822 0.428467 1.63144 0.428467 2.83498C0.428467 4.03852 1.41709 5.02715 2.62063 5.02715C3.63074 5.02715 4.49041 4.31792 4.72682 3.37228H13.6459V2.29769H4.72682ZM2.62063 3.95256C2.01886 3.95256 1.50306 3.45825 1.50306 2.83498C1.50306 2.21172 1.99737 1.71741 2.62063 1.71741C3.2224 1.71741 3.7382 2.21172 3.7382 2.83498C3.7382 3.45825 3.2224 3.95256 2.62063 3.95256Z" fill="#1B566E"/>
<path d="M7.32737 5.97266C6.31726 5.97266 5.45759 6.68189 5.22118 7.62752H1.00879V8.70211H5.19969C5.4361 9.64775 6.29577 10.357 7.30588 10.357C8.316 10.357 9.17567 9.64775 9.41208 8.70211H13.603V7.62752H9.43357C9.19716 6.68189 8.33749 5.97266 7.32737 5.97266ZM7.32737 9.28239C6.7256 9.28239 6.2098 8.78808 6.2098 8.16482C6.2098 7.54156 6.70411 7.04725 7.32737 7.04725C7.95063 7.04725 8.44495 7.54156 8.44495 8.16482C8.44495 8.78808 7.92914 9.28239 7.32737 9.28239Z" fill="#1B566E"/>
</svg>
