<svg xmlns="http://www.w3.org/2000/svg" width="250" height="183" viewBox="0 0 250 183">
    <g fill="none" fill-rule="evenodd">
        <g>
            <g>
                <path fill="#1A2E35" d="M73.907 94.43c.778 3-.259 6.395-2.578 8.448-1.523 1.35-3.51 2.13-4.9 3.616-1.788 1.913-2.303 4.841-1.52 7.34.781 2.498 2.75 4.54 5.112 5.67 3.221 1.54 7.19 1.405 10.298-.351 3.867-2.185 6.118-6.567 6.688-10.972.57-4.405-.326-8.865-1.488-13.152M122.651 172.102c4.002-.655 7.752.567 11.711 1.444 1.067.236 2.184.442 3.243.173 1.716-.438 2.936-2.108 3.202-3.859.23-1.517-.166-3.104-1.012-4.383-.358-.542-.804-1.04-1.369-1.361-.579-.329-1.25-.456-1.914-.52-2.41-.233-4.86.304-7.053 1.33-2.193 1.027-4.139 2.53-5.85 4.243-.838.838-.587 1.807-.958 2.933" transform="translate(1) translate(16) translate(78 .479)"/>
                <path fill="#263238" d="M37.073 40.78c.08-3.102.396-6.199.947-9.253.078-.434.254-.96.69-1.017.54-.071.815.623.885 1.162.479 3.675.325 7.431-.453 11.055" transform="translate(1) translate(16) translate(78 .479)"/>
                <path fill="#1A2E35" d="M41.535 107.546c-.638-3.797-.558-7.712.233-11.48.385-1.833.95-3.659 1.976-5.226.374-.57.835-1.125 1.468-1.377.875-.35 1.915-.027 2.605.614.902.836 1.274 2.128 1.236 3.357-.038 1.23-.442 2.416-.89 3.561-1.549 3.951-3.986 7.23-6.628 10.55" transform="translate(1) translate(16) translate(78 .479)"/>
                <path fill="#FF7D7C" d="M119.047 121.998c.912.645 21.028 43.943 21.028 43.943-1.615-.694-3.405-.87-5.123-.506l-1.09.291c-1.953.522-3.804 1.365-5.478 2.498l-5.733 3.878c-.462-.262-.767-.734-.817-1.263l-.015-.166-15.584-26.749 12.812-21.927z" transform="translate(1) translate(16) translate(78 .479)"/>
                <path fill="#FFF" stroke="#263238" d="M40.643 30.183c.292.235.335.655.355 1.03.368 6.96 1.66 13.657 2.483 20.7l.149 1.347 5.329 30.295c1.726 4.098 21.844 28.94 21.844 28.94l-6.653 21.371-26.418-36.125c-2.454-2.624-3.788-6.1-3.722-9.692l1.032-32.545c-1.257-1.513-1.856-3.578-1.529-5.523.253-1.5.995-2.863 1.588-4.263.592-1.4 1.046-2.953.685-4.43-.139-.565-.395-1.11-.398-1.693-.003-.582.371-1.232.953-1.258.439-.02.81.313 1.086.656.249.308.485.768.69 1.325.659-2.703.989-5.487.978-8.27-.002-.51-.008-1.05.252-1.49.261-.437.898-.693 1.296-.375z" transform="translate(1) translate(16) translate(78 .479)"/>
                <path fill="#FF7D7C" d="M72.124 107.72l13.796 1.043 12.03 1.867s21.098 5.545 21.098 7.855c0 .769-5.764 19.114-8.976 30.105-1.386 4.744-1.94 8.118-1.94 8.118l10.916 24.242H67.14v-22.228s-3.485-29.163-2.884-33.146c.6-3.983 7.867-17.855 7.867-17.855" transform="translate(1) translate(16) translate(78 .479)"/>
                <path fill="#FF7D7C" d="M43.208 105.289c5.919-5.291 6.12-14.457 5.614-21.748-.038-.538-.078-1.125.23-1.567.565-.807 1.94-.508 2.491.307.55.816.52 1.877.469 2.86.303-.833 1.604-.828 2.215-.184.61.643.713 1.601.784 2.485l.197 2.443 17.291 16.48s.475-1.48 1.746-.634c1.27.845 2.09 2.687 2.09 2.687L64.15 135.014l-22.616-27.514s.71-1.35 1.674-2.212" transform="translate(1) translate(16) translate(78 .479)"/>
                <path fill="#FD6F6E" d="M66.674 123.693c-1.751 2.335-3.211 4.926-3.969 7.744-.757 2.819-.78 5.882.258 8.61 1.463 3.844 5.094 6.777 9.16 7.398" transform="translate(1) translate(16) translate(78 .479)"/>
                <path fill="#FFF" stroke="#263238" d="M122.651 172.102l-.656 8.848h12.817l3.005-15.627c-3.904-.218-7.754.989-10.835 3.396l-4.33 3.383z" transform="translate(1) translate(16) translate(78 .479)"/>
                <path fill="#1A2E35" d="M49.23 103.332c-.015-.008.086-.258.281-.702.201-.441.47-1.09.775-1.9.31-.809.63-1.79.934-2.892.291-1.107.56-2.337.756-3.642.185-1.308.279-2.563.315-3.706.023-1.144-.003-2.175-.07-3.039-.06-.863-.132-1.562-.199-2.042-.06-.482-.087-.75-.069-.753.018-.003.077.259.17.737.097.478.197 1.176.283 2.043.09.866.135 1.905.125 3.058-.023 1.153-.11 2.421-.297 3.74-.198 1.317-.476 2.556-.783 3.667-.32 1.108-.66 2.09-.993 2.895-.33.807-.625 1.447-.855 1.877-.225.433-.357.667-.373.659M52.998 98.691c-.036-.02.204-.489.534-1.269.33-.779.73-1.88 1.022-3.136.289-1.257.413-2.422.457-3.267.046-.845.036-1.372.077-1.375.03-.002.107.523.108 1.38.002.856-.094 2.044-.388 3.321-.296 1.276-.73 2.385-1.108 3.153-.377.77-.675 1.208-.702 1.193M73.308 112.517c-.04-.023.168-.348.29-.936.128-.584.12-1.431-.13-2.316-.252-.886-.627-1.648-.87-2.212-.248-.562-.378-.922-.344-.937.032-.014.219.316.51.857.285.543.692 1.301.954 2.222.262.923.241 1.825.058 2.43-.176.61-.449.909-.468.892M70.3 147.738c-.006.007-.08-.035-.218-.122l-.592-.39c-.51-.347-1.244-.854-2.113-1.537-.865-.684-1.87-1.55-2.807-2.685-.93-1.13-1.765-2.569-2.171-4.225-.419-1.651-.451-3.294-.287-4.749.164-1.46.51-2.74.856-3.788.35-1.049.7-1.871.953-2.434.128-.28.23-.497.305-.642.073-.144.116-.218.124-.215.018.008-.11.324-.336.897-.223.572-.546 1.402-.871 2.45-.322 1.048-.645 2.32-.792 3.758-.149 1.434-.109 3.045.3 4.658.397 1.618 1.202 3.019 2.106 4.139.908 1.123 1.89 1.995 2.736 2.692.848.698 1.565 1.226 2.056 1.598l.563.43c.128.101.192.157.187.165M98.626 152.685c.002.008-.074.035-.22.078-.149.04-.364.114-.65.17-.568.132-1.406.262-2.451.293-2.072.077-5.056-.402-7.78-2.123-2.724-1.725-4.435-4.216-5.254-6.121-.42-.958-.66-1.771-.784-2.34-.073-.282-.098-.509-.126-.66-.024-.151-.032-.231-.023-.233.022-.004.092.31.247.867.153.558.418 1.354.853 2.29.852 1.861 2.556 4.286 5.225 5.977 2.672 1.687 5.592 2.188 7.64 2.16 1.03-.008 1.864-.11 2.434-.21.57-.099.883-.17.889-.148M106.581 162.402c-.07-.019.593-2.782 1.478-6.173.886-3.391 1.66-6.125 1.73-6.107.069.018-.593 2.781-1.478 6.173-.886 3.39-1.66 6.125-1.73 6.107" transform="translate(1) translate(16) translate(78 .479)"/>
                <path fill="#1A2E35" d="M113.578 156.532c-.062.037-2.072-3.25-4.489-7.338-2.417-4.09-4.326-7.435-4.265-7.472.062-.036 2.072 3.249 4.49 7.34 2.417 4.088 4.326 7.434 4.264 7.47M132.75 164.629c.005.049-.727.11-1.868.398-.571.14-1.237.36-1.957.649-.714.302-1.48.683-2.239 1.157-.755.483-1.426 1.01-2.006 1.527-.57.525-1.054 1.033-1.425 1.489-.75.907-1.12 1.542-1.161 1.517-.016-.01.066-.173.23-.463.159-.293.426-.695.787-1.17.358-.476.835-1.005 1.406-1.55.58-.535 1.262-1.079 2.03-1.57.774-.483 1.557-.865 2.289-1.16.737-.282 1.42-.486 2.004-.605.583-.123 1.06-.191 1.393-.21.332-.023.515-.027.517-.01M135.199 161.619c-.004.052-.805-.043-2.087.066-.641.049-1.398.18-2.22.39-.817.226-1.697.54-2.576.974-.873.445-1.653.961-2.323 1.48-.66.534-1.218 1.061-1.64 1.546-.856.961-1.258 1.66-1.303 1.632-.015-.01.079-.186.264-.5.09-.16.207-.349.363-.555.154-.208.317-.456.536-.698.412-.507.965-1.058 1.63-1.611.674-.54 1.466-1.073 2.357-1.526.895-.442 1.797-.757 2.633-.975.84-.2 1.613-.314 2.266-.34.324-.032.62-.014.88-.013.258-.001.48.019.661.042.362.04.56.07.559.088" transform="translate(1) translate(16) translate(78 .479)"/>
                <path fill="#FD6F6E" d="M81.873 142.814c-1.178 2.23-.196 4.952.88 7.234.835 1.769 1.764 3.568 3.282 4.801 1.492 1.213 3.498 1.77 5.402 1.501 1.903-.268 3.676-1.359 4.775-2.937-6.353.027-12.492-4.317-14.581-10.316" transform="translate(1) translate(16) translate(78 .479)"/>
                <path fill="#000" d="M104.824 141.722c-.896 2.147-.22 5.083.722 7.21.943 2.126 1.938 4.502 1.183 6.702-.142.412-.346.827-.293 1.26.052.431.52.843.906.643.224-.116.322-.378.402-.617l2.135-6.417" transform="translate(1) translate(16) translate(78 .479)"/>
                <path fill="#FAFAFA" d="M57.528 113.478c-.072-.011.158-1.793.511-3.979.354-2.186.698-3.95.77-3.938.07.011-.16 1.793-.513 3.98-.353 2.186-.697 3.948-.768 3.937M52.258 112.372c-.063.043-.925-1.16-2.112-2.537-1.182-1.383-2.24-2.416-2.188-2.473.044-.05 1.19.906 2.386 2.303 1.199 1.392 1.971 2.671 1.914 2.707M56.779 99.495c.028.02-.184.366-.564.9-.38.532-.932 1.249-1.579 2.01-.647.761-1.265 1.422-1.73 1.883-.463.462-.77.727-.795.702-.054-.052 1.041-1.237 2.327-2.754 1.288-1.513 2.28-2.786 2.34-2.741M55.014 93.202c-.072.028-.356-.608-.91-1.241-.547-.64-1.136-1.012-1.097-1.08.026-.061.71.228 1.294.91.59.675.777 1.394.713 1.41M50.456 97.078c.01.071-.57.222-1.3.338-.73.115-1.33.152-1.34.08-.012-.07.57-.221 1.3-.337.728-.116 1.329-.152 1.34-.08M61.96 102.634c-.08-.01.116-1.067-.166-2.326-.265-1.263-.881-2.143-.813-2.186.043-.049.786.803 1.068 2.13.294 1.325-.03 2.41-.09 2.382M68.106 109.244c-.072.038-.595-1.021-1.608-2.031-1.003-1.021-2.058-1.553-2.02-1.625.018-.06 1.162.382 2.204 1.44 1.05 1.05 1.485 2.199 1.424 2.216M58.241 120.715c.025.06-.993.43-2.308.38-1.315-.04-2.305-.48-2.277-.537.024-.076 1.019.239 2.286.276 1.267.05 2.28-.196 2.3-.119M62.872 123.087c-.072-.027.319-1.18.643-2.638.33-1.459.472-2.668.548-2.662.067.004.042 1.238-.294 2.718-.33 1.481-.835 2.608-.897 2.582M72.984 123.476c-.053.048-1.031-.939-2.183-2.204-1.153-1.265-2.044-2.33-1.991-2.379.053-.048 1.03.938 2.183 2.204 1.153 1.265 2.044 2.33 1.99 2.379M77.698 135.16c-.052.05-.781-.623-1.63-1.501-.848-.879-1.494-1.632-1.443-1.681.052-.05.782.621 1.63 1.5.85.879 1.495 1.631 1.443 1.681M68.94 136.273c.045.05-.79.823-1.997 1.52-1.205.703-2.289 1.045-2.31.982-.029-.072.996-.516 2.18-1.207 1.186-.685 2.08-1.354 2.128-1.295M72.97 147.392c-.074-.02.225-1.333.374-2.98.157-1.646.105-2.992.183-2.996.065-.008.235 1.349.077 3.02-.153 1.673-.57 2.975-.633 2.956M88.125 138.351c-.038.054-1.11-.694-2.163-1.903-1.058-1.204-1.657-2.366-1.598-2.397.066-.04.754 1.044 1.794 2.227 1.033 1.187 2.016 2.013 1.967 2.073M93.662 143.07c-.06-.047.698-1.086 1.547-2.42.853-1.333 1.475-2.457 1.543-2.424.061.03-.463 1.218-1.324 2.564-.857 1.348-1.713 2.324-1.766 2.28M92.85 131.528c-.018.07-1.156-.176-2.54-.548-1.386-.372-2.493-.73-2.474-.799.018-.07 1.156.176 2.54.547 1.385.373 2.493.73 2.474.8M88.815 151.839c-.072-.005-.068-1.066.009-2.37.076-1.306.197-2.36.269-2.356.071.005.067 1.066-.01 2.37-.076 1.305-.196 2.36-.268 2.356M92.304 158.795c-.073-.034.452-1.071.632-2.465.195-1.392-.038-2.53.042-2.545.059-.024.417 1.131.215 2.58-.188 1.45-.838 2.47-.889 2.43M83.26 157.259c-.065.01-.221-1.165.056-2.585.268-1.422.85-2.455.905-2.422.072.033-.39 1.089-.65 2.471-.27 1.38-.233 2.532-.312 2.536M75.01 160.783c-.05.055-1.062-.808-2.347-1.823-1.284-1.018-2.356-1.805-2.315-1.866.038-.058 1.183.637 2.476 1.661 1.294 1.023 2.234 1.978 2.186 2.028M80.598 150.974c.034.064-1.28.826-2.932 1.704-1.653.877-3.02 1.537-3.054 1.473-.034-.063 1.279-.826 2.932-1.704 1.653-.877 3.02-1.536 3.054-1.473" transform="translate(1) translate(16) translate(78 .479)"/>
                <path fill="#1A2E35" d="M97.95 172.987c.002.009-.11.037-.323.082-.215.04-.529.121-.941.175-.821.133-2.025.25-3.515.225-1.489-.023-3.265-.226-5.173-.731-1.907-.502-3.935-1.332-5.874-2.531-1.929-1.216-3.565-2.675-4.853-4.168-1.291-1.493-2.253-3-2.927-4.328-.677-1.328-1.1-2.46-1.34-3.256-.133-.395-.198-.712-.257-.923-.053-.212-.077-.325-.068-.326.01-.003.05.105.119.312.074.206.154.518.302.905.268.782.715 1.897 1.407 3.203.689 1.306 1.658 2.787 2.945 4.255 1.283 1.469 2.905 2.904 4.81 4.105 1.915 1.184 3.916 2.011 5.799 2.52 1.883.512 3.64.733 5.115.779 1.477.048 2.675-.04 3.496-.142.413-.037.728-.102.946-.125.216-.03.33-.04.333-.031" transform="translate(1) translate(16) translate(78 .479)"/>
                <path fill="#FAFAFA" d="M83.013 170.4c-.061.02-.248-1.097.234-2.364.47-1.272 1.344-1.99 1.377-1.936.061.054-.69.82-1.133 2.028-.46 1.2-.397 2.272-.478 2.272M78.896 168.68c.037.07-.714.436-1.301 1.237-.602.79-.74 1.613-.818 1.597-.066.008-.037-.898.61-1.753.637-.863 1.498-1.147 1.509-1.08M94.72 178.099c.002.064-1.139-.026-2.303-.76-1.171-.723-1.754-1.707-1.695-1.733.063-.05.714.824 1.833 1.512 1.11.702 2.182.902 2.165.98M97.182 164.248c.065-.002-.08 1.042-.896 1.993-.807.96-1.813 1.271-1.822 1.206-.037-.071.867-.47 1.624-1.375.77-.893 1.017-1.849 1.094-1.825M104.176 174.575c-.06-.05.6-.885 1.208-2.036.615-1.148.937-2.163 1.012-2.14.064.012-.152 1.083-.782 2.262-.624 1.182-1.39 1.96-1.438 1.914M113.42 175.94c.03.073-.881.433-1.796 1.188-.923.744-1.461 1.564-1.527 1.52-.06-.026.398-.943 1.362-1.722.958-.787 1.948-1.05 1.962-.987M106.37 164.096c-.077.024-.513-1.438-1.433-3.058-.91-1.627-1.933-2.757-1.872-2.81.024-.023.31.231.716.7.405.467.917 1.157 1.383 1.982.464.825.789 1.621.979 2.21.19.59.258.967.227.976M107.754 149.207c.015.07-1.047.375-2.372.68-1.326.306-2.413.498-2.43.428-.016-.07 1.046-.375 2.372-.681 1.325-.306 2.413-.497 2.43-.427M103.498 144.757c-.057.044-.742-.742-1.53-1.757-.79-1.015-1.382-1.873-1.326-1.917.057-.044.742.743 1.531 1.757.789 1.015 1.382 1.873 1.325 1.917M114.036 142.087c-.007.068-1.094 0-2.397-.31-1.303-.307-2.305-.734-2.28-.799.024-.07 1.053.243 2.34.546 1.286.306 2.346.488 2.337.563M121.53 141.957c-.066-.035.348-.939.766-2.085.422-1.145.69-2.102.764-2.085.067.013-.09 1.011-.52 2.175-.425 1.165-.95 2.027-1.01 1.995M119.845 152.114c-.017.065-1.056-.197-2.18-.87-1.128-.667-1.853-1.455-1.805-1.5.053-.057.84.628 1.938 1.276 1.094.656 2.072 1.021 2.047 1.094M124.718 151.805c-.07-.016.176-1.345.55-2.969.373-1.625.732-2.928.802-2.912.07.017-.175 1.346-.55 2.97-.372 1.624-.732 2.927-.802 2.911M120.649 163.163c-.058.042-.85-.943-1.768-2.2-.919-1.258-1.616-2.31-1.558-2.353.058-.043.85.942 1.768 2.199.918 1.258 1.616 2.311 1.558 2.354M127.593 158.82c-.07.033-.527-.87-1.246-1.88-.714-1.013-1.414-1.743-1.36-1.799.043-.05.841.61 1.573 1.649.736 1.034 1.095 2.006 1.033 2.03M134.102 157.844c-.065.039-.719-.942-1.6-2.093-.88-1.153-1.656-2.041-1.6-2.093.048-.048.917.769 1.806 1.935.892 1.164 1.453 2.216 1.394 2.25M132.572 162.157c-.077.004-.027-.865-.596-1.705-.548-.854-1.367-1.149-1.333-1.22.008-.028.227-.002.542.157.314.156.71.467 1.009.92.297.452.428.938.448 1.288.023.352-.04.564-.07.56M127.495 168.072c-.037-.01-.026-.134-.065-.31-.037-.176-.14-.412-.343-.573-.206-.16-.46-.201-.64-.194-.18.005-.297.046-.316.012-.019-.026.074-.134.288-.194.207-.06.546-.047.828.17.28.221.374.547.366.762-.005.222-.088.338-.118.327M75.477 177.528c-.015.06-1.315-.43-2.497-1.623-1.194-1.183-1.684-2.483-1.624-2.498.073-.04.653 1.171 1.808 2.313 1.142 1.155 2.352 1.735 2.313 1.808" transform="translate(1) translate(16) translate(78 .479)"/>
                <path fill="#1A2E35" d="M18.117 23.311c-.046.055-2.858-2.233-6.28-5.11-3.423-2.877-6.16-5.254-6.113-5.309.046-.054 2.857 2.232 6.28 5.11 3.422 2.877 6.16 5.254 6.113 5.309M32.376 19.886c-.072.003-.355-4.44-.632-9.926-.276-5.486-.442-9.935-.37-9.939.071-.004.354 4.44.63 9.926.278 5.485.444 9.935.372 9.939M23.295 16.71c-.069.021-.945-2.515-1.958-5.664-1.013-3.15-1.78-5.722-1.711-5.744.069-.022.945 2.513 1.959 5.664 1.012 3.15 1.778 5.721 1.71 5.743M15.201 27.998c-.03.066-1.757-.662-3.857-1.625-2.101-.964-3.78-1.797-3.75-1.863.03-.065 1.757.663 3.858 1.626 2.1.963 3.78 1.797 3.75 1.862M2.045 22.255c-.01.071-.425.078-.93.015-.504-.063-.905-.172-.896-.243.009-.072.425-.078.93-.015.503.063.905.171.896.243M19.95 2.076c-.072 0-.13-.409-.13-.913s.058-.913.13-.913c.072 0 .13.409.13.913s-.058.913-.13.913M50.06 9.136c.054.048-2.252 2.694-5.15 5.91-2.898 3.215-5.29 5.783-5.344 5.735-.053-.048 2.253-2.694 5.15-5.91 2.898-3.215 5.292-5.783 5.345-5.735M53.73 5.5c.052.05-.214.398-.592.777-.378.378-.726.643-.776.592-.052-.05.214-.398.592-.776.378-.379.726-.644.777-.593M62.642 18.3c.009.016-.234.16-.68.404-.444.247-1.095.588-1.907.997-1.623.818-3.897 1.888-6.459 2.951-2.564 1.063-4.927 1.917-6.652 2.487-.863.286-1.565.506-2.053.647-.488.142-.76.212-.766.195-.006-.017.256-.12.734-.291l2.024-.724c1.708-.615 4.056-1.494 6.613-2.554 2.557-1.062 4.837-2.102 6.478-2.877l1.943-.921c.46-.217.717-.33.725-.314M55.329 30.607c.009.033-.495.21-1.326.44-.832.228-1.994.499-3.291.721-1.299.221-2.485.35-3.345.411-.86.06-1.395.06-1.397.026-.002-.038.526-.102 1.379-.21.852-.106 2.028-.264 3.319-.484 1.29-.22 2.451-.462 3.29-.644.84-.181 1.36-.296 1.37-.26M61.974 29.378c0 .072-.645.13-1.44.13-.796 0-1.44-.058-1.44-.13 0-.072.644-.13 1.44-.13.795 0 1.44.058 1.44.13" transform="translate(1) translate(16) translate(78 .479)"/>
                <path fill="#263238" d="M38.691 46.347c-.025-.005.051-.404.081-1.134.025-.728-.008-1.79-.257-3.07-.127-.637-.308-1.331-.598-2.034-.145-.349-.317-.708-.559-1.016-.24-.305-.56-.611-.938-.636-.38-.03-.71.305-.834.7-.14.396-.05.845.082 1.287.138.44.301.916.348 1.417.05.497.03 1.008-.055 1.51-.349 2.028-1.431 3.67-1.978 5.291-.282.81-.452 1.611-.447 2.37-.004.76.118 1.465.308 2.083.385 1.241 1.02 2.115 1.502 2.652.491.538.826.774.808.796-.006.007-.09-.05-.246-.164-.158-.113-.377-.299-.636-.563-.512-.523-1.185-1.399-1.603-2.666-.206-.63-.343-1.354-.348-2.138-.017-.785.153-1.62.435-2.448.55-1.66 1.616-3.301 1.947-5.255.083-.484.101-.97.055-1.44-.044-.474-.194-.914-.335-1.373-.133-.45-.242-.963-.073-1.439.079-.23.206-.449.393-.613.183-.168.443-.263.691-.246.512.046.849.412 1.104.733.263.342.433.714.58 1.076.288.727.46 1.433.578 2.082.23 1.301.234 2.377.177 3.11-.032.367-.068.651-.11.84-.039.19-.063.29-.072.288" transform="translate(1) translate(16) translate(78 .479)"/>
                <path fill="#1A2E35" d="M104.06 86.956c.263 1.438 1.631 2.547 3.088 2.668 1.458.121 2.914-.66 3.766-1.849.85-1.19 1.131-2.732.933-4.18-.287-2.105-1.686-4.129-3.715-4.757-2.03-.63-4.556.49-5.117 2.538l-2.34 3.268 3.385 2.312z" transform="translate(1) translate(16) translate(78 .479)"/>
                <path fill="#FFF" stroke="#263238" d="M101.293 80.54c.95-7.584-4.535-14.515-12.236-15.249-7.258-.691-13.71 4.713-14.796 11.922-.954 6.32-1.774 12.7-1.745 15.017.09 6.987 4.178 9.707 5.835 10.523.378.187 1.42.398 1.838.458.027.004.044.029.04.055l-1.552 8.02c-.704 5.255 2.23 9.942 7.476 10.707 5.264.767 9.38-3.27 10.183-8.528l4.957-32.926z" transform="translate(1) translate(16) translate(78 .479)"/>
                <path fill="#1A2E35" d="M75.464 81.3c.116.163 1.038-.332 2.22-.156 1.184.158 1.963.893 2.113.766.072-.054-.029-.333-.367-.663-.332-.329-.928-.688-1.664-.792-.738-.103-1.397.078-1.794.303-.404.227-.565.468-.508.541M85.987 83.58c.116.163 1.04-.332 2.22-.157 1.184.159 1.963.894 2.113.767.072-.055-.028-.333-.367-.664-.332-.328-.928-.687-1.664-.791-.738-.104-1.397.077-1.794.303-.404.226-.565.467-.508.541M81.895 89.17c.015-.067-.701-.301-1.87-.627-.298-.075-.575-.177-.596-.39-.04-.23.135-.536.332-.866l1.228-2.17c1.718-3.093 3.009-5.655 2.883-5.723-.125-.068-1.619 2.384-3.336 5.478l-1.193 2.189c-.164.326-.417.687-.33 1.162.049.238.247.434.433.514.185.088.354.115.502.146 1.19.24 1.933.353 1.947.286" transform="translate(1) translate(16) translate(78 .479)"/>
                <path fill="#DADADA" d="M81.418 103.081s4.512 1.041 10.724-1.56c0 0-2.681 5.774-11.142 3.722l.418-2.162z" transform="translate(1) translate(16) translate(78 .479)"/>
                <path fill="#FF9A6C" d="M81.98 92.093c.507-.5 1.297-.7 2.026-.513.505.13.987.453 1.238.917.251.463.23 1.066-.111 1.423-.385.402-1.067.409-1.608.166-.541-.243-.973-.685-1.38-1.123-.113-.12-.228-.247-.287-.399-.06-.151-.05-.337.066-.44" transform="translate(1) translate(16) translate(78 .479)"/>
                <path fill="#1A2E35" d="M85.256 90.495c-.19-.039-.38 1.244-1.612 1.996-1.23.754-2.578.41-2.614.588-.029.078.269.294.844.394.564.102 1.418.04 2.171-.419.752-.461 1.15-1.164 1.27-1.685.127-.53.03-.868-.059-.874M86.802 79.73c.07.34 1.273.359 2.636.729 1.37.342 2.43.91 2.656.65.103-.127-.048-.458-.455-.835-.403-.376-1.076-.776-1.895-.99-.82-.212-1.602-.191-2.138-.06-.539.132-.832.347-.804.507M76.66 77.653c.168.3 1.024.14 2.006.27.985.094 1.782.443 2.014.19.104-.124.012-.412-.313-.72-.32-.305-.887-.6-1.564-.677-.676-.077-1.295.082-1.676.307-.386.226-.54.486-.468.63" transform="translate(1) translate(16) translate(78 .479)"/>
                <path fill="#1A2E35" d="M72.889 75.648c1.446 2.207 6.034.843 8.806-.673 2.92 1.935 6.975 1.095 8.997-1.863 1.585 2.02 4.807 1.353 5.98-.923 1.175-2.277.515-5.409-1.099-7.4-1.612-1.99-3.972-2.996-6.302-3.426-5.524-1.02-11.541 1.12-14.847 6.116-1.525 2.304-2.44 5.408-1.535 8.169" transform="translate(1) translate(16) translate(78 .479)"/>
                <path fill="#375A64" d="M88.159 62.151c-.006.097-1.305-.153-3.352.188-2.009.337-4.837 1.385-6.943 3.736-2.058 2.384-2.993 5.21-3.335 7.227-.345 2.049-.082 3.342-.172 3.35-.025.005-.111-.31-.188-.897-.068-.586-.091-1.448.04-2.5.272-2.081 1.17-4.997 3.314-7.483 2.206-2.46 5.162-3.488 7.236-3.752 1.053-.138 1.915-.108 2.5-.041.587.063.904.147.9.172" transform="translate(1) translate(16) translate(78 .479)"/>
                <path fill="#375A64" d="M80.69 72.42c-.026.003-.086-.274-.111-.786-.027-.51.016-1.26.225-2.156.393-1.772 1.677-4.22 4.151-5.69 2.487-1.452 5.25-1.388 6.99-.873.887.252 1.562.578 1.996.85.435.27.649.456.634.477-.045.083-.969-.605-2.709-1.014-1.702-.42-4.33-.42-6.68.953-2.337 1.389-3.611 3.687-4.07 5.379-.486 1.72-.332 2.862-.426 2.86" transform="translate(1) translate(16) translate(78 .479)"/>
                <path fill="#1A2E35" d="M93.946 70.027c-.464 1.969-.93 3.959-.932 5.982-.001 2.023.506 4.112 1.797 5.67 1.93 2.327 5.15 3.034 8.12 3.6 1.591-3.943 2.076-8.324 1.385-12.519-.338-2.048-.997-4.132-2.442-5.623-2.084-2.151-5.714-2.584-8.247-.984" transform="translate(1) translate(16) translate(78 .479)"/>
                <path fill="#1A2E35" d="M95.597 79.708c-.783 1.69-.724 3.646-.454 5.489.271 1.843.738 3.67.72 5.533-.018 1.862-.61 3.833-2.07 4.99-.415.328-.894.587-1.242.986-.348.4-.536 1.01-.257 1.46.278.451 1.12.441 1.243-.074l-.076.13c-.32.548.068 1.26.701 1.248.99-.018 2.005-.542 2.668-1.31.955-1.106 1.335-2.589 1.586-4.028.77-4.415.62-8.99 1.838-13.303" transform="translate(1) translate(16) translate(78 .479)"/>
                <path fill="#FD6F6E" d="M78.643 108.702c.684 2.997 2.722 5.658 5.437 7.1 2.715 1.444 6.06 1.643 8.928.534 2.588-1.002 4.676-2.951 6.695-4.856.718 4.322-.48 8.927-3.212 12.352-2.731 3.425-6.954 5.617-11.327 5.88-3.312.197-6.875-.814-8.957-3.397-1.454-1.803-2.043-4.188-2.02-6.503.024-2.315.614-4.587 1.308-6.796.593-1.89 1.525-4.01 3.438-4.528" transform="translate(1) translate(16) translate(78 .479)"/>
                <path fill="#1A2E35" d="M102.362 85.438c1.98 1.077 3.068 3.325 3.453 5.545.385 2.22.191 4.496.286 6.747.093 2.252.525 4.604 1.948 6.352 1.511 1.856 3.875 2.735 5.982 3.872 4.662 2.513 8.494 6.768 9.898 11.874 1.404 5.106.131 11.012-3.694 14.674-3.481 3.333-8.549 4.506-13.368 4.493-3.438-.01-7.212-.74-9.356-3.428-2.118-2.654-2.022-6.45-1.248-9.756.774-3.306 2.124-6.527 2.176-9.922-.509 2.096-1.409 4.096-2.64 5.868-.351.507-.956 1.053-1.5.763-.604-.322-.375-1.226-.094-1.85 4.143-9.216 2.7-27.79 5.155-37.965" transform="translate(1) translate(16) translate(78 .479)"/>
                <path fill="#FFF" d="M98.951 84.386c.125-.04 4.958-.955 4.337 3.824-.62 4.78-5.29 3.17-5.282 3.033.01-.138.945-6.857.945-6.857" transform="translate(1) translate(16) translate(78 .479)"/>
                <path fill="#1A2E35" d="M99.702 89.622c.023-.013.075.07.208.152.129.08.36.154.62.093.53-.12 1.059-.866 1.194-1.724.069-.434.03-.86-.078-1.223-.1-.368-.295-.642-.544-.72-.245-.091-.445.037-.52.164-.082.126-.064.225-.09.23-.015.01-.093-.093-.029-.286.032-.092.103-.198.227-.275.127-.078.302-.104.477-.062.365.073.652.456.773.854.14.403.193.883.116 1.37-.156.959-.766 1.796-1.483 1.906-.347.044-.615-.094-.745-.225-.133-.138-.144-.247-.126-.254M73.7 119.006c-.033-.02.292-.578.812-1.478.512-.9 1.228-2.152 1.725-3.645.495-1.493.579-2.942.43-3.957-.137-1.021-.429-1.607-.382-1.626.014-.006.1.133.217.402.119.27.253.676.348 1.196.2 1.035.143 2.536-.366 4.066-.508 1.528-1.26 2.78-1.815 3.66-.28.44-.517.789-.686 1.027-.168.238-.27.365-.284.355" transform="translate(1) translate(16) translate(78 .479)"/>
                <path fill="#FAFAFA" d="M76.138 113.488c-.073.017-.208-.407-.636-.696-.418-.301-.864-.282-.873-.356-.004-.032.106-.088.303-.091.195-.005.47.061.719.234.247.173.405.409.468.593.065.186.05.31.019.316M79.224 113.48c-.068.04-.447-.648-1.23-1.154-.774-.52-1.557-.597-1.547-.674-.013-.067.846-.106 1.69.457.85.553 1.153 1.358 1.087 1.372M81.168 123.625c-.07-.014.059-.928.288-2.041.23-1.114.474-2.004.544-1.99.07.015-.058.93-.288 2.042-.23 1.113-.474 2.004-.544 1.99M88.968 125.155c-.072-.002-.1-.968-.063-2.158.037-1.19.125-2.152.197-2.15.072.002.1.968.063 2.158-.037 1.19-.125 2.153-.197 2.15" transform="translate(1) translate(16) translate(78 .479)"/>
            </g>
            <path fill="#FFF" stroke="#263238" d="M0 181.429L16.305 181.479 23.838 151.952 7.71 147.852z" transform="translate(1) translate(16)"/>
            <g>
                <path fill="#1A2E35" d="M83.283 83.626c-1.55-2.079-3.33-4.074-4.147-6.534-.395-1.189-.55-2.449-.97-3.628-.42-1.18-1.184-2.33-2.354-2.775-1.171-.445-2.06.006-2.821.838l-5.596 16.365 3.227 12.572c3.217-.726 7.251-1.585 10.258-2.94 3.007-1.356 5.022-3.525 5.21-6.819.147-2.588-1.257-5-2.807-7.079" transform="translate(1) translate(16) translate(4.5 22.979)"/>
                <path fill="#4DC0E0" d="M32.365 80.732S12.915 89.2 10.483 93.019C8.053 96.84.067 124.074.067 124.074l20.477 6.025-.337 28.351h50.25l-.414-49.986-6.304-27.631s-11.095-.715-12.122-1.22c-1.027-.507-19.252 1.119-19.252 1.119" transform="translate(1) translate(16) translate(4.5 22.979)"/>
                <path fill="#FFF" stroke="#263238" d="M96.874.68c.559.376.93.968 1.08 1.624l.54 2.376c.23-1.382.412-2.574.436-3.168 1.174.362 1.854 1.612 2.075 2.82.221 1.208.107 2.457.316 3.667l.028.153c.02-.046.044-.093.07-.138.318-.556.96-.823 1.558-1.054.308-.119.626-.24.956-.228.331.01.679.187.787.5.128.365-.108.758-.382 1.031-.274.274-.609.513-.755.87-.197.48-.017 1.984.183 2.463.327.787 1.448 4.168 1.634 5.226l.02.124c.185.78.623 2.16.895 3.51.23.671.33 1.404.25 2.225-.377 3.88-.492 4.754-.497 4.796v.002l.576 31.001c.065 3.464-1.174 6.82-3.462 9.409l-.259.284-34.026 33.266-5.158-20.606s25.598-22.326 26.348-24.22l.015-.052 6.952-33.04c-1.543-5.223-1.525-7.96-2.279-12.714.384.015.738.153 1.052.368-.12-2.58-.443-10.153-.158-10.496.338-.407.8-.271 1.205.001z" transform="translate(1) translate(16) translate(4.5 22.979)"/>
                <path fill="#263238" d="M95.693 16.22c.003.018-.036-.13-.093-.381l-.24-1.09-.794-3.74-.03-.14.146-.011c.594-.047 1.21.216 1.68.629.788.67 1.147 1.61 1.408 2.407.262.81.486 1.531.791 2.087.278.57.66.917.88 1.212.218.29.312.465.3.475-.017.011-.14-.146-.378-.41-.23-.26-.653-.607-.963-1.189-.335-.56-.586-1.3-.857-2.098-.273-.79-.623-1.67-1.35-2.287-.436-.38-.979-.61-1.495-.574l.116-.151c.596 3.011.988 5.265.88 5.261M99.735 13.296c-.071.01-.443-2.09-.83-4.691-.387-2.602-.643-4.72-.572-4.73.07-.01.442 2.09.83 4.692.387 2.6.643 4.719.572 4.73M102.602 13.682c.013-.002.035.054.065.177l-.077.016c-.169-.414-.562-1.71-.907-3.269-.216-.965-.373-1.846-.467-2.486-.093-.642-.125-1.042-.09-1.047.073-.012.38 1.555.81 3.476.345 1.553.663 2.863.73 3.305l-.077.016c-.006-.125 0-.186.013-.188" transform="translate(1) translate(16) translate(4.5 22.979)"/>
                <path fill="#263238" d="M104.375 20.018c-.037.022-.219-.26-.58-.645-.361-.387-.927-.859-1.65-1.21-.727-.348-1.448-.497-1.975-.539-.527-.043-.86-.01-.866-.053-.005-.028.323-.127.874-.131.548-.005 1.317.122 2.08.488.76.369 1.338.892 1.675 1.324.34.433.467.753.442.766M97.87 24.427c-.032.012-.273-.5-.593-1.36-.32-.858-.707-2.065-1.033-3.426-.325-1.36-.526-2.613-.629-3.523-.103-.91-.12-1.477-.087-1.48.038-.004.12.555.27 1.454.148.9.376 2.137.699 3.489.324 1.35.68 2.557.955 3.427.273.87.453 1.405.417 1.42" transform="translate(1) translate(16) translate(4.5 22.979)"/>
                <path fill="#4DC0E0" d="M57.638 81.418c.837-1.393 2.89-1.873 4.259-.995 3.67-2.985 7.423-5.911 11.094-8.896-1.198 5.983-1.988 14.369.684 19.855 0 0 3.384 6.293 8.774 5.33l-4.806 4.727-7.6 7.025" transform="translate(1) translate(16) translate(4.5 22.979)"/>
                <path fill="#1A2E35" d="M56.445 84.228c-.064.004.004-1.112.707-2.256.693-1.152 1.652-1.726 1.678-1.667.051.062-.797.704-1.455 1.802-.672 1.09-.851 2.138-.93 2.121M60.409 87.905c-.024.01-.243-.386-.418-1.094-.177-.703-.27-1.726-.076-2.826.197-1.1.635-2.028 1.043-2.628.407-.604.75-.901.768-.883.034.03-.255.369-.612.98-.358.61-.752 1.515-.943 2.577-.186 1.062-.127 2.048 0 2.743.125.697.28 1.115.238 1.13" transform="translate(1) translate(16) translate(4.5 22.979)"/>
                <path fill="#FAFAFA" d="M78.782 100.771s-.385.27-1.197.48c-.801.217-2.056.317-3.502-.105-1.447-.405-3.005-1.446-4.212-3.02-1.225-1.564-2.056-3.633-2.51-5.854-.861-4.467-.827-8.604-.6-11.557.116-1.48.282-2.669.418-3.487.065-.409.127-.725.171-.939.044-.214.071-.325.08-.324.009.002-.001.116-.028.333l-.123.944c-.104.821-.242 2.01-.335 3.486-.179 2.942-.182 7.065.67 11.49.451 2.198 1.26 4.225 2.448 5.763 1.17 1.546 2.672 2.572 4.074 2.989 1.404.433 2.631.366 3.426.183.804-.177 1.208-.412 1.22-.382" transform="translate(1) translate(16) translate(4.5 22.979)"/>
                <path fill="#1A2E35" d="M20.652 138.513c-.072 0-.13-7.108-.13-15.873 0-8.769.058-15.875.13-15.875.072 0 .13 7.106.13 15.875 0 8.765-.058 15.873-.13 15.873M20.249 101.281c-.054.002-.039-.71-.284-1.816-.116-.553-.328-1.195-.623-1.88-.312-.677-.718-1.393-1.236-2.081-.528-.681-1.112-1.261-1.683-1.74-.582-.467-1.145-.84-1.648-1.098-1.002-.528-1.693-.7-1.678-.752.005-.018.178.02.489.102.156.038.346.093.557.181.212.085.461.167.715.304.524.243 1.11.608 1.716 1.075.593.48 1.198 1.071 1.739 1.77.53.706.941 1.445 1.248 2.144.291.706.49 1.368.585 1.938.066.28.079.543.105.77.03.227.032.424.028.585-.002.322-.012.498-.03.498M54.498 80.517c.009-.002.037.143.082.42.056.278.097.69.13 1.225.056 1.067-.041 2.641-.624 4.476-.6 1.814-1.724 3.898-3.624 5.61-1.876 1.728-4.575 2.909-7.508 3.137-2.934.212-5.78-.554-7.893-1.982-2.135-1.41-3.557-3.304-4.42-5.008-.85-1.727-1.18-3.27-1.284-4.333-.047-.534-.068-.948-.054-1.23.003-.282.01-.429.019-.429s.02.148.033.428c.003.28.04.692.103 1.219.133 1.05.488 2.569 1.347 4.261.872 1.671 2.288 3.52 4.387 4.891 2.077 1.388 4.865 2.13 7.743 1.924 2.876-.225 5.52-1.374 7.367-3.057 1.872-1.668 2.996-3.707 3.61-5.49.596-1.801.721-3.355.697-4.413-.018-.532-.042-.944-.08-1.222-.03-.278-.04-.426-.031-.427" transform="translate(1) translate(16) translate(4.5 22.979)"/>
                <path fill="#FAFAFA" d="M20.22 123.894c-.022.069-4.152-1.235-9.222-2.91-5.072-1.676-9.165-3.09-9.142-3.158.022-.068 4.151 1.235 9.223 2.91 5.07 1.675 9.164 3.09 9.141 3.158M69.557 116.956c0 .072-11.027.176-24.627.233-13.604.058-24.63.046-24.63-.026s11.024-.177 24.629-.234c13.6-.058 24.628-.046 24.628.026M69.806 121.308c0 .072-11.083.13-24.751.13-13.674 0-24.755-.058-24.755-.13 0-.072 11.081-.13 24.755-.13 13.668 0 24.751.058 24.751.13" transform="translate(1) translate(16) translate(4.5 22.979)"/>
                <path fill="#1A2E35" d="M63.017 126.6c.009.003-.04.142-.14.404l-.448 1.14-.33.822c-.129.298-.285.613-.445.956-.328.681-.67 1.474-1.145 2.3l-.716 1.313c-.252.455-.552.906-.842 1.385-.568.967-1.27 1.937-1.99 2.97-1.5 2.025-3.283 4.154-5.35 6.2-2.09 2.029-4.252 3.771-6.306 5.23-1.048.7-2.032 1.384-3.01 1.932-.485.28-.941.572-1.4.816l-1.327.689c-.836.459-1.635.785-2.322 1.1-.346.153-.665.303-.964.426l-.829.314-1.149.426c-.264.094-.403.14-.406.131-.003-.008.13-.07.388-.18l1.13-.471.817-.334c.296-.13.61-.286.953-.444.68-.328 1.47-.664 2.297-1.131l1.313-.702c.456-.247.908-.541 1.388-.825.969-.554 1.944-1.242 2.983-1.943 2.036-1.463 4.183-3.201 6.26-5.22 2.058-2.036 3.838-4.148 5.34-6.155.722-1.026 1.428-1.986 2.001-2.944.293-.475.596-.921.852-1.371l.727-1.3c.484-.817.835-1.602 1.176-2.274.165-.34.328-.65.463-.944l.35-.811.493-1.12c.115-.256.18-.388.188-.385" transform="translate(1) translate(16) translate(4.5 22.979)"/>
                <path fill="#3CAECE" d="M60.308 131.021c-3.36 4.089-6.88 7.057-11.816 8.965-2.363.913-4.84 1.536-7.13 2.619-2.29 1.083-4.446 2.72-5.473 5.036-.795 1.79-.409 4.484 1.507 4.889.727.154 1.475-.081 2.174-.334 9.775-3.543 16.198-12.482 20.738-21.175" transform="translate(1) translate(16) translate(4.5 22.979)"/>
                <path fill="#1A2E35" d="M26.023 41.968c-2.11 1.657-2.252 4.75-2.147 7.432.105 2.68.136 5.728-1.806 7.579-1.6 1.525-4.4 2.091-4.86 4.254-.216 1.009.265 2.128 1.145 2.667.879.54 2.095.46 2.896-.19-.678 1.693-.37 3.866 1.073 4.98 1.443 1.114 3.972.594 4.52-1.145-.337 1.152.454 2.506 1.623 2.778 1.17.271 2.476-.596 2.68-1.78M56.643 61.376c.44 1.354 2.101 2.165 3.44 1.68 1.339-.485 2.094-2.172 1.564-3.494-.415-1.037-1.477-1.822-1.528-2.938-.062-1.352 1.355-2.244 2.6-2.771 1.246-.528 2.707-1.222 2.903-2.56.19-1.292-.922-2.358-1.853-3.274-.931-.915-1.824-2.304-1.168-3.433.335-.578.99-.888 1.428-1.393.97-1.117.581-2.988-.538-3.955-1.12-.967-2.726-1.172-4.192-.98-1.467.19-2.863.727-4.3 1.08-4.736 1.163-9.95.223-13.98-2.522" transform="translate(1) translate(16) translate(4.5 22.979)"/>
                <path fill="#FFF" stroke="#263238" d="M39.867 35.707c7.359-.718 14.044 4.332 15.35 11.61 1.217 6.776 2.475 14.281 2.787 17.95.645 7.593-6.825 9.512-6.825 9.512s.202 2.19.438 4.833c.44 4.954-2.975 9.427-7.87 10.302-5.24.936-10.24-2.57-11.146-7.815h0l-3.249-18.824c-1.485-.023-3.312-.714-3.697-3.68-.364-2.798 1.003-3.791 2.353-4.106l-.554-3.21c-1.447-7.809 3.836-15.271 11.681-16.5h0z" transform="translate(1) translate(16) translate(4.5 22.979)"/>
                <path fill="#1A2E35" d="M53.623 52.236c.076.57-.344 1.104-.938 1.194-.593.09-1.136-.298-1.211-.868-.077-.57.343-1.104.936-1.195.594-.09 1.137.299 1.213.869" transform="translate(1) translate(16) translate(4.5 22.979)"/>
                <path fill="#1A2E35" d="M53.95 51.197c-.12.155-1-.373-2.165-.256-1.165.1-1.962.783-2.102.652-.068-.057.044-.325.39-.632.34-.306.94-.63 1.666-.697.726-.067 1.363.14 1.74.38.386.24.532.483.472.553M42.22 53.567c.077.57-.343 1.104-.937 1.194-.593.09-1.135-.298-1.212-.868-.075-.57.345-1.104.937-1.195.594-.09 1.137.299 1.213.869" transform="translate(1) translate(16) translate(4.5 22.979)"/>
                <path fill="#1A2E35" d="M42.517 52.531c-.12.155-1.002-.373-2.166-.256-1.165.1-1.962.783-2.103.652-.068-.057.043-.325.39-.632.34-.306.94-.63 1.666-.697.727-.067 1.363.14 1.741.38.384.24.531.484.472.553M47.589 60.762c-.012-.066.7-.262 1.859-.526.295-.06.57-.147.601-.355.049-.221-.106-.53-.285-.862l-1.1-2.18c-1.538-3.108-2.68-5.674-2.555-5.735.125-.06 1.474 2.408 3.01 5.515.371.767.727 1.498 1.065 2.198.146.327.377.692.269 1.153-.059.23-.262.413-.448.483-.184.076-.352.096-.498.12-1.175.178-1.907.255-1.918.189M42.372 47.935c-.084.328-1.262.291-2.613.59-1.357.27-2.42.778-2.63.511-.094-.128.069-.445.485-.795.412-.35 1.089-.71 1.9-.88.812-.17 1.577-.113 2.094.041.522.153.799.377.764.533M53.194 47.866c-.18.285-1.01.088-1.976.17-.97.047-1.765.351-1.98.093-.096-.127.007-.404.34-.69.327-.284.896-.545 1.561-.59.666-.043 1.264.14 1.626.379.368.239.507.5.429.638M34.877 43.16l-.039.037c-1.114 1.07-1.778 2.529-1.841 4.073l-.006.156c-.086 2.191.182 4.387.075 6.578-.107 2.19-.641 4.461-2.093 6.105-.597.676-1.718 1.211-2.328.546-.237-.257-.307-.62-.367-.964-.913-5.184-2.792-9.678-3.314-15.14-.142-1.488.421-2.951 1.545-3.934 1.064-.931 2.377-1.917 3.706-1.44 1.333.48 3.208 2.696 4.291 3.609" transform="translate(1) translate(16) translate(4.5 22.979)"/>
                <path fill="#1A2E35" d="M29.533 61.122c-.024-.014-.082.074-.225.164-.14.087-.388.167-.671.101-.572-.13-1.144-.936-1.29-1.865-.074-.468-.034-.93.084-1.322.109-.398.32-.694.588-.779.265-.098.481.04.563.178.088.136.069.243.097.248.017.012.1-.1.03-.309-.034-.1-.11-.214-.244-.297-.138-.085-.327-.112-.515-.067-.396.08-.707.493-.837.924-.152.435-.208.954-.125 1.48.168 1.038.828 1.943 1.603 2.062.376.048.665-.101.806-.244.143-.148.156-.267.136-.274M30.118 39.997c-1.478-1.95 1.729-5.27 4.209-6.325 2.48-1.056 5.973-.137 8.602.459 1.658.376 3.332.963 5.016.729 1.13-.157 2.172-.675 3.205-1.158 1.034-.483 2.113-.945 3.253-.978 1.14-.033 2.365.456 2.898 1.464.532 1.009.056 2.508-1.053 2.774 1.358-.928 3.535-.094 3.926 1.503.391 1.598-1.153 3.343-2.787 3.15.683-.631 1.903.182 1.902 1.111-.001.93-.77 1.681-1.582 2.136-2.069 1.16-4.62 1.102-6.931.567-2.311-.535-4.501-1.506-6.798-2.099-2.298-.592-6.155-1.68-8.306-.678-1.583.737-2.532 2.824-3.5 2.478-.936-.334-1.594-1.216-1.868-2.172-.274-.955-.23-1.968-.186-2.961" transform="translate(1) translate(16) translate(4.5 22.979)"/>
                <path fill="#375A64" d="M50.835 68.247c-.019.033-.241-.082-.62-.186-.376-.106-.922-.182-1.505-.076-.584.105-1.069.368-1.384.599-.318.23-.486.416-.516.391-.023-.016.1-.246.408-.526.304-.278.815-.59 1.448-.704.633-.115 1.221-.002 1.603.152.387.154.582.326.566.35" transform="translate(1) translate(16) translate(4.5 22.979)"/>
                <path fill="#263238" d="M45.362 62.502c.188-.03.314 1.236 1.484 2.028 1.169.795 2.504.522 2.53.698.026.077-.276.274-.843.346-.557.073-1.39-.027-2.106-.511-.714-.487-1.07-1.194-1.163-1.708-.1-.525.01-.852.098-.853" transform="translate(1) translate(16) translate(4.5 22.979)"/>
                <path fill="#375A64" d="M18.935 63.304s-.104-.02-.264-.13c-.16-.106-.377-.316-.525-.66-.141-.341-.22-.811-.104-1.332.111-.526.48-1.049.995-1.462.518-.417 1.18-.726 1.898-.987.714-.266 1.496-.502 2.21-.939.714-.432 1.296-1.127 1.667-1.96.379-.83.56-1.778.588-2.75.042-1.957-.41-3.809-.46-5.537-.079-1.717.252-3.332 1.036-4.414.775-1.084 1.806-1.585 2.521-1.713.362-.075.65-.055.84-.043.191.03.29.05.288.059 0 .035-.407-.079-1.106.083-.687.154-1.666.664-2.391 1.72-.733 1.048-1.038 2.61-.949 4.299.06 1.696.522 3.547.481 5.554-.028 1-.217 1.982-.616 2.848-.39.868-1.013 1.608-1.773 2.059-.756.453-1.552.681-2.263.937-.712.25-1.356.54-1.857.929-.498.386-.851.866-.967 1.351-.123.485-.064.932.057 1.26.267.673.726.8.694.828M56.419 36.86c-.003-.006.074-.042.228-.106.076-.035.173-.07.293-.099.117-.036.256-.068.417-.085.624-.095 1.667.056 2.547.916l.003.004c.589.738.94 1.872.773 3.099-.14 1.228-.876 2.505-2.05 3.386-1.163.898-2.714 1.418-4.347 1.51-1.638.1-3.344-.149-5.049-.556-2.781-.67-5.277-1.869-7.326-3.244-1.033-.668-2.012-1.306-3.003-1.748-.985-.453-1.981-.679-2.9-.74-1.849-.121-3.324.358-4.253.79-.938.443-1.383.821-1.401.794 0 0 .421-.408 1.357-.885.927-.466 2.418-.983 4.309-.883.937.05 1.966.273 2.976.727 1.016.443 2.009 1.082 3.045 1.744 2.044 1.355 4.506 2.527 7.258 3.192 1.685.403 3.372.65 4.971.557 1.596-.085 3.095-.582 4.224-1.441 1.137-.845 1.847-2.053 1.996-3.23.174-1.176-.148-2.264-.698-2.98l.004.003c-.818-.827-1.82-1.007-2.428-.936-.626.068-.937.24-.946.212" transform="translate(1) translate(16) translate(4.5 22.979)"/>
                <path fill="#375A64" d="M53.77 32.456s.034.43-.237 1.144c-.272.702-.945 1.655-2.136 2.334-.588.342-1.292.62-2.086.748-.79.131-1.653.127-2.54.01-1.785-.221-3.63-.925-5.572-1.529-1.935-.604-3.893-.963-5.612-.592-1.717.352-3.064 1.322-3.944 2.297-.892.984-1.363 1.98-1.598 2.682-.23.709-.274 1.125-.305 1.12-.009-.002.001-.105.028-.302.018-.198.085-.483.18-.849.21-.721.663-1.75 1.558-2.773.883-1.015 2.254-2.031 4.032-2.41 1.78-.398 3.79-.03 5.737.578 1.957.61 3.78 1.311 5.528 1.54.867.121 1.708.133 2.474.014.766-.114 1.454-.373 2.029-.695 1.167-.638 1.84-1.54 2.134-2.212.292-.683.296-1.111.33-1.105" transform="translate(1) translate(16) translate(4.5 22.979)"/>
                <path stroke="#263238" stroke-linecap="round" d="M51.209 75.037c-5.58 2.924-10.281 2.485-14.106-1.315" transform="translate(1) translate(16) translate(4.5 22.979)"/>
            </g>
        </g>
        <path stroke="#02435D" d="M0 181.48c74.041-.783 173.966-.07 248 .39l-248-.39z" transform="translate(1)"/>
    </g>
</svg>
