<svg width="14" height="14" viewBox="0 0 14 14" fill="none" xmlns="http://www.w3.org/2000/svg">
<path d="M6.99467 5.98953C6.90545 5.99139 6.82044 6.04022 6.75828 6.12531C6.69612 6.2104 6.6619 6.3248 6.66312 6.44339V9.57748C6.66249 9.63681 6.67073 9.69571 6.68738 9.75077C6.70402 9.80583 6.72873 9.85594 6.76007 9.89819C6.7914 9.94044 6.82875 9.97399 6.86992 9.99689C6.9111 10.0198 6.95529 10.0316 6.99993 10.0316C7.04456 10.0316 7.08875 10.0198 7.12993 9.99689C7.17111 9.97399 7.20845 9.94044 7.23979 9.89819C7.27113 9.85594 7.29584 9.80583 7.31248 9.75077C7.32912 9.69571 7.33737 9.63681 7.33674 9.57748V6.44339C7.33736 6.38349 7.32893 6.32404 7.31195 6.26854C7.29497 6.21305 7.26978 6.16265 7.23789 6.12033C7.20599 6.07801 7.16803 6.04463 7.12625 6.02216C7.08448 5.99969 7.03973 5.9886 6.99467 5.98953H6.99467Z" fill="#02435D"/>
<path d="M6.99993 4.47368C7.18596 4.47368 7.33677 4.32287 7.33677 4.13684C7.33677 3.9508 7.18596 3.8 6.99993 3.8C6.8139 3.8 6.66309 3.9508 6.66309 4.13684C6.66309 4.32287 6.8139 4.47368 6.99993 4.47368Z" fill="#02435D"/>
<path d="M6.99998 0.599998C3.47079 0.599998 0.599976 3.47081 0.599976 7C0.599976 10.5292 3.47079 13.4 6.99998 13.4C10.5292 13.4 13.4 10.5292 13.4 7C13.4 3.47081 10.5292 0.599998 6.99998 0.599998ZM6.99998 1.51428C10.0351 1.51428 12.4857 3.96489 12.4857 7C12.4857 10.0351 10.0351 12.4857 6.99998 12.4857C3.96487 12.4857 1.51426 10.0351 1.51426 7C1.51426 3.96489 3.96487 1.51428 6.99998 1.51428Z" fill="#02435D"/>
</svg>
