<svg xmlns="http://www.w3.org/2000/svg" xmlns:xlink="http://www.w3.org/1999/xlink" width="630" height="323" viewBox="0 0 630 323">
    <defs>
        <path id="prefix__b" d="M.014 35.088L6.372 86.62c.113.915.897 1.605 1.825 1.605h81.164c.96 0 1.758-.734 1.834-1.683L95.28 35.01c.084-1.063-.761-1.97-1.834-1.97H1.839c-1.104 0-1.96.96-1.825 2.048"/>
        <path id="prefix__c" d="M0 0L34.456 0 34.456 28.291 0 28.291z"/>
        <path id="prefix__e" d="M0 0.109L34.324 0.109 34.324 28.164 0 28.164z"/>
        <path id="prefix__g" d="M0 0.147L45.662 0.147 45.662 37.91 0 37.91z"/>
        <path id="prefix__i" d="M0 0.147L45.662 0.147 45.662 37.91 0 37.91z"/>
        <path id="prefix__k" d="M0 0L34.456 0 34.456 28.291 0 28.291z"/>
        <path id="prefix__m" d="M0 0.147L45.662 0.147 45.662 37.91 0 37.91z"/>
        <path id="prefix__o" d="M0 0.147L45.662 0.147 45.662 37.91 0 37.91z"/>
        <path id="prefix__r" d="M.014 30.587l6.351 51.85c.113.92.896 1.614 1.824 1.614h81.076c.96 0 1.756-.738 1.831-1.693l4.083-51.85c.083-1.07-.76-1.982-1.833-1.982H1.837c-1.103 0-1.957.966-1.823 2.06"/>
        <path id="prefix__s" d="M0 0L34.456 0 34.456 28.291 0 28.291z"/>
        <path id="prefix__v" d="M.014 22.81l6.369 52.007c.113.924.898 1.62 1.828 1.62h81.3c.963 0 1.76-.74 1.837-1.699l4.094-52.007c.083-1.072-.763-1.988-1.838-1.988H1.842c-1.106 0-1.963.969-1.828 2.067"/>
        <path id="prefix__w" d="M0.434 0.551L26.544 0.551 26.544 82.612 0.434 82.612z"/>
        <path id="prefix__y" d="M0 0L34.456 0 34.456 28.291 0 28.291z"/>
        <path id="prefix__A" d="M0 0L34.456 0 34.456 28.291 0 28.291z"/>
        <filter id="prefix__a" width="110.6%" height="119.2%" x="-2.9%" y="-5.1%" filterUnits="objectBoundingBox">
            <feMorphology in="SourceAlpha" radius="2.212" result="shadowSpreadOuter1"/>
            <feOffset dx="5" dy="5" in="shadowSpreadOuter1" result="shadowOffsetOuter1"/>
            <feGaussianBlur in="shadowOffsetOuter1" result="shadowBlurOuter1" stdDeviation="2.5"/>
            <feComposite in="shadowBlurOuter1" in2="SourceAlpha" operator="out" result="shadowBlurOuter1"/>
            <feColorMatrix in="shadowBlurOuter1" values="0 0 0 0 0.784986413 0 0 0 0 0.784986413 0 0 0 0 0.784986413 0 0 0 0.5 0"/>
        </filter>
        <filter id="prefix__q" width="110.7%" height="119%" x="-2.9%" y="-5%" filterUnits="objectBoundingBox">
            <feMorphology in="SourceAlpha" radius="2.212" result="shadowSpreadOuter1"/>
            <feOffset dx="5" dy="5" in="shadowSpreadOuter1" result="shadowOffsetOuter1"/>
            <feGaussianBlur in="shadowOffsetOuter1" result="shadowBlurOuter1" stdDeviation="2.5"/>
            <feComposite in="shadowBlurOuter1" in2="SourceAlpha" operator="out" result="shadowBlurOuter1"/>
            <feColorMatrix in="shadowBlurOuter1" values="0 0 0 0 0.784986413 0 0 0 0 0.784986413 0 0 0 0 0.784986413 0 0 0 0.5 0"/>
        </filter>
        <filter id="prefix__u" width="110.6%" height="119%" x="-2.9%" y="-5%" filterUnits="objectBoundingBox">
            <feMorphology in="SourceAlpha" radius="2.212" result="shadowSpreadOuter1"/>
            <feOffset dx="5" dy="5" in="shadowSpreadOuter1" result="shadowOffsetOuter1"/>
            <feGaussianBlur in="shadowOffsetOuter1" result="shadowBlurOuter1" stdDeviation="2.5"/>
            <feComposite in="shadowBlurOuter1" in2="SourceAlpha" operator="out" result="shadowBlurOuter1"/>
            <feColorMatrix in="shadowBlurOuter1" values="0 0 0 0 0.784986413 0 0 0 0 0.784986413 0 0 0 0 0.784986413 0 0 0 0.5 0"/>
        </filter>
    </defs>
    <g fill="none" fill-rule="evenodd">
        <g transform="translate(1) translate(301.9 160.085)">
            <path fill="#FFF" stroke="#4DC0E0" stroke-width=".577" d="M15.45 15.775l2.617 42.26c.092 1.506 1.344 2.68 2.857 2.68H97.22c1.581 0 2.863-1.28 2.863-2.856V24.95c0-1.584-1.292-2.865-2.881-2.854l-46.922.301c-.759.005-1.488-.29-2.028-.822l-8.155-8.009c-.535-.526-1.257-.82-2.009-.82H18.308c-1.65 0-2.959 1.387-2.857 3.03"/>
            <g>
                <path fill="#FFF" stroke="#757575" stroke-width=".506" d="M0.513 0L0 35.742 44.954 36.382 45.467 0.639z" transform="translate(24.557)"/>
                <path fill="#62ADFC" d="M1.582 33.514L43.378 34.108 43.826 2.866 2.031 2.272z" transform="translate(24.557)"/>
                <path fill="#EBEBEB" d="M1.582 33.514L16.458 14.302 25.327 26.58 31.554 20.172 43.378 34.108zM29.375 12.106c-.026 1.807-1.52 3.252-3.338 3.226-1.818-.026-3.27-1.512-3.244-3.32.026-1.807 1.52-3.252 3.338-3.226 1.817.026 3.27 1.512 3.244 3.32" transform="translate(24.557)"/>
            </g>
            <g>
                <path fill="#FFF" stroke="#757575" stroke-width=".506" d="M0.513 0L0 35.742 44.954 36.382 45.467 0.639z" transform="translate(47.669 14.422)"/>
                <path fill="#62ADFC" d="M1.582 33.514L43.378 34.108 43.826 2.866 2.031 2.272z" transform="translate(47.669 14.422)"/>
                <path fill="#EBEBEB" d="M1.582 33.514L16.458 14.302 25.327 26.58 31.554 20.172 43.378 34.108zM29.375 12.106c-.026 1.807-1.52 3.252-3.338 3.226-1.818-.026-3.27-1.512-3.244-3.32.026-1.807 1.52-3.252 3.338-3.226 1.817.026 3.27 1.512 3.244 3.32" transform="translate(47.669 14.422)"/>
            </g>
            <use fill="#000" filter="url(#prefix__a)" xlink:href="#prefix__b"/>
            <use fill="#F9FEFF" stroke="#4DC0E0" stroke-width=".577" xlink:href="#prefix__b"/>
        </g>
        <g>
            <g transform="translate(1) translate(36.835) translate(419.628 129.799)">
                <mask id="prefix__d" fill="#fff">
                    <use xlink:href="#prefix__c"/>
                </mask>
                <use stroke="#000" stroke-width=".506" opacity=".148" xlink:href="#prefix__c"/>
                <path fill="#FF7D7C" d="M1.484 25.73L32.805 26.193 33.142 1.842 1.82 1.379z" mask="url(#prefix__d)"/>
                <path fill="#FFABAB" d="M.989 26.213L12.258 10.808 18.975 20.653 23.691 15.515 32.647 26.689zM22.26 8.858c-.02 1.37-1.143 2.466-2.51 2.446-1.365-.02-2.456-1.146-2.437-2.517.02-1.37 1.143-2.465 2.508-2.445 1.366.02 2.458 1.146 2.438 2.516" mask="url(#prefix__d)"/>
            </g>
            <g transform="translate(1) translate(36.835) rotate(-34 191.569 -72.859)">
                <mask id="prefix__f" fill="#fff">
                    <use xlink:href="#prefix__e"/>
                </mask>
                <path fill="#263238" d="M34.324.655s-.056.002-.162.001l-.474-.003-1.837-.02-6.932-.086L.447.22.502.166.122 27.62v.003l-.06-.062 33.876.5-.051.05.307-19.923.091-5.561.026-1.466c.007-.332.013-.506.013-.506s.001.167-.002.495l-.014 1.456-.066 5.551-.255 19.957v.05h-.05L.06 27.684 0 27.681v-.064L.395.164V.109L.45.11l24.506.382 6.92.115L33.7.64l.467.01.156.005" mask="url(#prefix__f)"/>
                <path fill="#FF7D7C" d="M1.478 25.625L32.68 26.084 33.016 1.936 1.813 1.476z"/>
                <path fill="#FFABAB" d="M.986 26.104L12.211 10.827 18.903 20.591 23.601 15.495 32.523 26.576zM22.174 8.894c-.019 1.359-1.138 2.445-2.498 2.425-1.361-.019-2.448-1.137-2.429-2.495.02-1.36 1.138-2.445 2.499-2.426 1.36.02 2.448 1.137 2.428 2.496"/>
            </g>
            <g transform="translate(1) translate(36.835) translate(0 171.622)">
                <mask id="prefix__h" fill="#fff">
                    <use xlink:href="#prefix__g"/>
                </mask>
                <path fill="#263238" d="M45.662.882s-.074.002-.216.001l-.63-.004L42.372.85 33.151.736.595.296.668.223.162 37.177v.004l-.08-.083 45.066.674-.068.068.409-26.818.121-7.487.035-1.972c.01-.447.017-.68.017-.68s.002.223-.002.666l-.02 1.96-.087 7.471-.339 26.862-.001.068-.067-.001L.08 37.262H0L0 37.178v-.004C.191 23.83.37 11.22.524.22L.525.147l.072.001 32.601.515 9.205.154 2.43.045.621.013.208.007" mask="url(#prefix__h)"/>
                <path fill="#6AD6C8" d="M1.967 34.492L43.476 35.11 43.921 2.605 2.412 1.987z"/>
                <path fill="#FFF" d="M1.311 35.137L16.245 14.574 25.147 27.715 31.397 20.857 43.266 35.772zM29.499 11.971c-.026 1.83-1.514 3.291-3.324 3.265-1.81-.026-3.257-1.53-3.23-3.36.025-1.829 1.513-3.29 3.323-3.264 1.81.026 3.257 1.53 3.231 3.36"/>
            </g>
            <g transform="translate(1) translate(36.835) translate(40.446)">
                <mask id="prefix__j" fill="#fff">
                    <use xlink:href="#prefix__i"/>
                </mask>
                <path fill="#263238" d="M45.662.882s-.074.002-.216.001l-.63-.004L42.372.85 33.151.736.595.296.668.223.162 37.177v.004l-.08-.083 45.066.674-.068.068.409-26.818.121-7.487.035-1.972c.01-.447.017-.68.017-.68s.002.223-.002.666l-.02 1.96-.087 7.471-.339 26.862-.001.068-.067-.001L.08 37.262H0L0 37.178v-.004C.191 23.83.37 11.22.524.22L.525.147l.072.001 32.601.515 9.205.154 2.43.045.621.013.208.007" mask="url(#prefix__j)"/>
                <path fill="#6AD6C8" d="M1.967 34.492L43.476 35.11 43.921 2.605 2.412 1.987z"/>
                <path fill="#FFF" d="M1.311 35.137L16.245 14.574 25.147 27.715 31.397 20.857 43.266 35.772zM29.499 11.971c-.026 1.83-1.514 3.291-3.324 3.265-1.81-.026-3.257-1.53-3.23-3.36.025-1.829 1.513-3.29 3.323-3.264 1.81.026 3.257 1.53 3.231 3.36"/>
            </g>
            <g>
                <path fill="#FFF" stroke="#757575" stroke-width=".506" d="M0.513 0L0 35.742 44.954 36.382 45.467 0.639z" transform="translate(1) translate(36.835) translate(7.945 50.477)"/>
                <path fill="#62ADFC" d="M1.582 33.514L43.378 34.108 43.826 2.866 2.031 2.272z" transform="translate(1) translate(36.835) translate(7.945 50.477)"/>
                <path fill="#FFF" d="M1.582 33.514L16.458 14.302 25.327 26.58 31.554 20.172 43.378 34.108z" transform="translate(1) translate(36.835) translate(7.945 50.477)"/>
                <path fill="#EBEBEB" d="M29.375 12.106c-.026 1.807-1.52 3.252-3.338 3.226-1.818-.026-3.27-1.512-3.244-3.32.026-1.807 1.52-3.252 3.338-3.226 1.817.026 3.27 1.512 3.244 3.32" transform="translate(1) translate(36.835) translate(7.945 50.477)"/>
            </g>
            <g>
                <path fill="#FFF" stroke="#757575" stroke-width=".506" d="M0.513 0L0 35.742 44.954 36.382 45.467 0.639z" transform="translate(1) translate(36.835) translate(54.169 127.635)"/>
                <path fill="#62ADFC" d="M1.582 33.514L43.378 34.108 43.826 2.866 2.031 2.272z" transform="translate(1) translate(36.835) translate(54.169 127.635)"/>
                <path fill="#EBEBEB" d="M1.582 33.514L16.458 14.302 25.327 26.58 31.554 20.172 43.378 34.108zM29.375 12.106c-.026 1.807-1.52 3.252-3.338 3.226-1.818-.026-3.27-1.512-3.244-3.32.026-1.807 1.52-3.252 3.338-3.226 1.817.026 3.27 1.512 3.244 3.32" transform="translate(1) translate(36.835) translate(54.169 127.635)"/>
            </g>
            <path stroke="#979797" stroke-width=".721" d="M375.57 311.516c77.648.792 32.162.45 136.506.722M420.35 321.026l109.782 1.172" transform="translate(1) translate(36.835)"/>
            <g>
                <path fill="#263238" d="M190.426 76.274L206.498 86.411 206.498 205.774 190.426 205.774zM164.22 249.502H26.263c-5.173 0-9.406-2.4-9.406-5.332v-38.656c15.593 1.945 135.527 0 156.77 0v38.656c0 2.932-4.233 5.332-9.407 5.332z" transform="translate(1) translate(36.835) translate(131.45 54.083)"/>
                <path fill="#FAFAFA" stroke="#000" stroke-width=".721" d="M181.077 205.774H9.407c-5.174 0-9.407-4.23-9.407-9.402V20.085c0-5.17 4.233-9.402 9.407-9.402h171.67c5.173 0 9.406 4.231 9.406 9.402v176.287c0 5.171-4.233 9.402-9.406 9.402z" transform="translate(1) translate(36.835) translate(131.45 54.083)"/>
                <path stroke="#000" stroke-width=".721" d="M132.208 88.047H57.431c-.064 0-.117-.053-.117-.118v-61.15c0-.065.053-.119.117-.119h74.777c.065 0 .119.054.119.119v61.15c0 .065-.054.118-.119.118z" transform="translate(1) translate(36.835) translate(131.45 54.083)"/>
                <path fill="#70D3EE" d="M124.622 81.32H65.018c-.065 0-.119-.054-.119-.12V32.667c0-.066.054-.12.12-.12h59.603c.066 0 .12.054.12.12V81.2c0 .065-.054.119-.12.119z" transform="translate(1) translate(36.835) translate(131.45 54.083)"/>
                <path fill="#4DC0E0" stroke="#000" stroke-width=".721" d="M101.984 10.683L132.327 10.683 132.327 0.592 101.984 0.592z" transform="translate(1) translate(36.835) translate(131.45 54.083)"/>
                <path fill="#25A0C2" stroke="#0B6780" stroke-width=".721" d="M28.774 91.327h0c-7.881 0-14.329-6.433-14.329-14.296 0-7.862 6.448-14.295 14.329-14.295 7.88 0 14.328 6.433 14.328 14.295 0 7.863-6.447 14.296-14.328 14.296z" transform="translate(1) translate(36.835) translate(131.45 54.083)"/>
                <path fill="#4DC0E0" stroke="#000" stroke-width=".721" d="M143.284 10.683L173.627 10.683 173.627 0.592 143.284 0.592z" transform="translate(1) translate(36.835) translate(131.45 54.083)"/>
                <path fill="#263238" d="M447.581 205.774H196.928c-3.545 0-6.445-1.646-6.445-3.659v-12.022c0-2.013 2.9-3.66 6.445-3.66H447.58c9.367 0 11.77 4.352 11.77 9.67 0 5.32-2.403 9.671-11.77 9.671z" transform="translate(1) translate(36.835) translate(131.45 54.083)"/>
                <path fill="#263238" d="M281.511 246.138L291.625 246.138 291.625 202.411 281.511 202.411zM428.166 246.138L438.28 246.138 438.28 202.411 428.166 202.411z" transform="translate(1) translate(36.835) translate(131.45 54.083)"/>
                <path fill="#70D3EE" stroke="#000" stroke-width=".721" d="M160.14 85.524h0c-3.245 0-5.899-2.643-5.899-5.873v-47.96c0-3.23 2.654-5.871 5.9-5.871 3.245 0 5.9 2.642 5.9 5.872V79.65c0 3.23-2.655 5.873-5.9 5.873z" opacity=".789" transform="translate(1) translate(36.835) translate(131.45 54.083)"/>
                <path fill="#FF7D7C" stroke="#000" stroke-width=".721" d="M172.696 50.206h-25.109c-3.758 0-6.832-3.027-6.832-6.727s3.074-6.728 6.832-6.728h25.109c3.757 0 6.83 3.027 6.83 6.728 0 3.7-3.073 6.727-6.83 6.727z" transform="translate(1) translate(36.835) translate(131.45 54.083)"/>
                <path stroke="#000" stroke-width=".721" d="M96.575 180.547H23.11c-.657 0-1.195-.54-1.195-1.2v-34.6c0-.66.538-1.2 1.195-1.2h73.466c.658 0 1.195.54 1.195 1.2v34.6c0 .66-.537 1.2-1.195 1.2z" transform="translate(1) translate(36.835) translate(131.45 54.083)"/>
                <path fill="#4DC0E0" d="M29.612 160.801L43.098 160.801 43.098 150.71 29.612 150.71zM29.612 173.415L43.098 173.415 43.098 163.324 29.612 163.324zM44.784 160.801L58.269 160.801 58.269 150.71 44.784 150.71zM44.784 173.415L58.269 173.415 58.269 163.324 44.784 163.324zM60.798 160.801L74.283 160.801 74.283 150.71 60.798 150.71zM60.798 173.415L74.283 173.415 74.283 163.324 60.798 163.324zM77.655 160.801L91.14 160.801 91.14 150.71 77.655 150.71zM77.655 173.415L91.14 173.415 91.14 163.324 77.655 163.324z" transform="translate(1) translate(36.835) translate(131.45 54.083)"/>
                <path stroke="#000" stroke-width=".721" d="M39.614 114.536c0 3.948-3.208 7.147-7.165 7.147s-7.164-3.2-7.164-7.147c0-3.948 3.207-7.148 7.164-7.148s7.165 3.2 7.165 7.148zM66.585 114.115c0 3.715-3.019 6.727-6.743 6.727s-6.743-3.012-6.743-6.727c0-3.715 3.02-6.727 6.743-6.727 3.724 0 6.743 3.012 6.743 6.727zM93.556 114.536c0 3.948-3.208 7.147-7.165 7.147-3.956 0-7.163-3.2-7.163-7.147 0-3.948 3.207-7.148 7.163-7.148 3.957 0 7.165 3.2 7.165 7.148zM120.527 114.115c0 3.715-3.019 6.727-6.743 6.727s-6.742-3.012-6.742-6.727c0-3.715 3.018-6.727 6.742-6.727s6.743 3.012 6.743 6.727z" transform="translate(1) translate(36.835) translate(131.45 54.083)"/>
                <g>
                    <g transform="translate(1) translate(36.835) translate(131.45 54.083) translate(190.483 1.673) rotate(30 -22.533 122.268)">
                        <mask id="prefix__l" fill="#fff">
                            <use xlink:href="#prefix__k"/>
                        </mask>
                        <use stroke="#000" stroke-width=".506" opacity=".148" xlink:href="#prefix__k"/>
                        <path fill="#FF7D7C" d="M1.484 25.73L32.805 26.193 33.142 1.842 1.82 1.379z" mask="url(#prefix__l)"/>
                        <path fill="#FFABAB" d="M.989 26.213L12.258 10.808 18.975 20.653 23.691 15.515 32.647 26.689zM22.26 8.858c-.02 1.37-1.143 2.466-2.51 2.446-1.365-.02-2.456-1.146-2.437-2.517.02-1.37 1.143-2.465 2.508-2.445 1.366.02 2.458 1.146 2.438 2.516" mask="url(#prefix__l)"/>
                    </g>
                    <path fill="#4DC0E0" d="M0 29.609L23.864 29.609 54.785 3.124 54.785 80.488 25.269 53.76 0 53.76z" transform="translate(1) translate(36.835) translate(131.45 54.083) translate(190.483 1.673)"/>
                    <path fill="#70D3EE" d="M58.394 82.9c-3.026 0-5.479-2.503-5.479-5.591V6.08c0-3.087 2.453-5.59 5.479-5.59 3.026 0 5.478 2.503 5.478 5.59V77.31c0 3.088-2.452 5.59-5.478 5.59z" transform="translate(1) translate(36.835) translate(131.45 54.083) translate(190.483 1.673)"/>
                </g>
            </g>
            <g transform="translate(1) translate(36.835) translate(480.333 160.768)">
                <path fill="#FFF" stroke="#4DC0E0" stroke-width=".577" d="M15.168 11.364L17.77 53.61c.092 1.506 1.338 2.679 2.843 2.679h75.933c1.573 0 2.85-1.278 2.85-2.855V20.536c0-1.584-1.287-2.865-2.868-2.853l-46.698.3c-.755.006-1.48-.29-2.018-.821l-8.116-8.006c-.532-.526-1.25-.82-1.999-.82H18.011c-1.642 0-2.944 1.386-2.843 3.028"/>
                <g transform="translate(14.921 .795)">
                    <mask id="prefix__n" fill="#fff">
                        <use xlink:href="#prefix__m"/>
                    </mask>
                    <path fill="#263238" d="M45.662.882s-.074.002-.216.001l-.63-.004L42.372.85 33.151.736.595.296.668.223.162 37.177v.004l-.08-.083 45.066.674-.068.068.409-26.818.121-7.487.035-1.972c.01-.447.017-.68.017-.68s.002.223-.002.666l-.02 1.96-.087 7.471-.339 26.862-.001.068-.067-.001L.08 37.262H0L0 37.178v-.004C.191 23.83.37 11.22.524.22L.525.147l.072.001 32.601.515 9.205.154 2.43.045.621.013.208.007" mask="url(#prefix__n)"/>
                    <path fill="#6AD6C8" d="M1.967 34.492L43.476 35.11 43.921 2.605 2.412 1.987z"/>
                    <path fill="#FFF" d="M1.311 35.137L16.245 14.574 25.147 27.715 31.397 20.857 43.266 35.772zM29.499 11.971c-.026 1.83-1.514 3.291-3.324 3.265-1.81-.026-3.257-1.53-3.23-3.36.025-1.829 1.513-3.29 3.323-3.264 1.81.026 3.257 1.53 3.231 3.36"/>
                </g>
                <g transform="translate(50.522 20.229)">
                    <mask id="prefix__p" fill="#fff">
                        <use xlink:href="#prefix__o"/>
                    </mask>
                    <path fill="#263238" d="M45.662.882s-.074.002-.216.001l-.63-.004L42.372.85 33.151.736.595.296.668.223.162 37.177v.004l-.08-.083 45.066.674-.068.068.409-26.818.121-7.487.035-1.972c.01-.447.017-.68.017-.68s.002.223-.002.666l-.02 1.96-.087 7.471-.339 26.862-.001.068-.067-.001L.08 37.262H0L0 37.178v-.004C.191 23.83.37 11.22.524.22L.525.147l.072.001 32.601.515 9.205.154 2.43.045.621.013.208.007" mask="url(#prefix__p)"/>
                    <path fill="#6AD6C8" d="M1.967 34.492L43.476 35.11 43.921 2.605 2.412 1.987z"/>
                    <path fill="#FFF" d="M1.311 35.137L16.245 14.574 25.147 27.715 31.397 20.857 43.266 35.772zM29.499 11.971c-.026 1.83-1.514 3.291-3.324 3.265-1.81-.026-3.257-1.53-3.23-3.36.025-1.829 1.513-3.29 3.323-3.264 1.81.026 3.257 1.53 3.231 3.36"/>
                </g>
                <use fill="#000" filter="url(#prefix__q)" xlink:href="#prefix__r"/>
                <use fill="#F9FEFF" stroke="#4DC0E0" stroke-width=".577" xlink:href="#prefix__r"/>
            </g>
            <g transform="translate(1) translate(36.835) translate(371.237 168.017)">
                <path fill="#FFF" stroke="#4DC0E0" stroke-width=".577" d="M15.21 3.529l2.61 42.374c.093 1.51 1.342 2.687 2.851 2.687h76.142c1.578 0 2.858-1.282 2.858-2.863V12.728c0-1.588-1.29-2.873-2.876-2.861l-46.826.302c-.757.005-1.485-.292-2.024-.825l-8.138-8.03C39.273.786 38.553.49 37.802.49H18.061c-1.647 0-2.953 1.39-2.851 3.038"/>
                <g transform="translate(30.335 6.49)">
                    <mask id="prefix__t" fill="#fff">
                        <use xlink:href="#prefix__s"/>
                    </mask>
                    <use stroke="#000" stroke-width=".506" opacity=".148" xlink:href="#prefix__s"/>
                    <path fill="#FF7D7C" d="M1.484 25.73L32.805 26.193 33.142 1.842 1.82 1.379z" mask="url(#prefix__t)"/>
                    <path fill="#FFABAB" d="M.989 26.213L12.258 10.808 18.975 20.653 23.691 15.515 32.647 26.689zM22.26 8.858c-.02 1.37-1.143 2.466-2.51 2.446-1.365-.02-2.456-1.146-2.437-2.517.02-1.37 1.143-2.465 2.508-2.445 1.366.02 2.458 1.146 2.438 2.516" mask="url(#prefix__t)"/>
                </g>
                <use fill="#000" filter="url(#prefix__u)" xlink:href="#prefix__v"/>
                <use fill="#F9FEFF" stroke="#4DC0E0" stroke-width=".577" xlink:href="#prefix__v"/>
            </g>
            <path fill="#FFF" stroke="#000" stroke-width=".721" d="M210.175 118.249L221.627 131.241 249.899 100.367 245.37 95.907 221.627 121.552 214.843 113.574z" transform="translate(1) translate(36.835)"/>
            <g>
                <path fill="#263238" d="M7.935 8.982c.243.44-.172 39.937-.172 39.937l-3.221.036L3.457 8.987l4.478-.005z" transform="translate(1) translate(36.835) translate(97.504 26.68)"/>
                <path fill="#1A2E35" d="M4.222 43.561L7.933 43.754 7.9 49.347 12.103 51.542 12.076 55.219 9.331 59.014 9.215 53.725 5.785 51.934 2.854 53.461 3.034 59.166 0 55.459 0.17 52.06 4.065 49.165z" transform="translate(1) translate(36.835) translate(97.504 26.68)"/>
                <path fill="#263238" d="M24.97 15.207l31.258 37.664c3.277 3.947 9.135 4.494 13.087 1.221 3.952-3.27 4.5-9.123 1.223-13.07L39.278 3.359c-3.275-3.946-9.134-4.494-13.086-1.221-3.95 3.271-4.5 9.123-1.223 13.07" transform="translate(1) translate(36.835) translate(97.504 26.68)"/>
                <path fill="#263238" d="M6.102 15.005H33.92c3.22 0 5.833-2.608 5.833-5.826 0-3.217-2.612-5.826-5.833-5.826H6.102C2.882 3.353.27 5.962.27 9.18c0 3.218 2.612 5.826 5.832 5.826" transform="translate(1) translate(36.835) translate(97.504 26.68)"/>
                <g transform="translate(1) translate(36.835) translate(97.504 26.68) translate(48.107 35.74)">
                    <mask id="prefix__x" fill="#fff">
                        <use xlink:href="#prefix__w"/>
                    </mask>
                    <path fill="#263238" d="M13.489 82.612c7.21 0 13.055-5.838 13.055-13.04V13.59C26.544 6.39 20.7.551 13.49.551S.434 6.39.434 13.591v55.982c0 7.201 5.845 13.039 13.055 13.039" mask="url(#prefix__x)"/>
                </g>
                <path fill="#4DC0E0" stroke="#000" stroke-width=".721" d="M54.893 105.897c0 3.55 2.882 6.428 6.436 6.428s6.436-2.878 6.436-6.428-2.882-6.428-6.436-6.428-6.436 2.877-6.436 6.428M55.16 47.551c0 3.55 2.882 6.429 6.436 6.429 3.555 0 6.436-2.878 6.436-6.429 0-3.55-2.881-6.428-6.436-6.428-3.554 0-6.436 2.878-6.436 6.428M30.354 6.422c-1.525 1.523-1.525 3.992 0 5.515 1.525 1.523 3.997 1.523 5.522 0 1.525-1.523 1.525-3.992 0-5.515-1.525-1.523-3.997-1.523-5.522 0M3.626 7.306c-1.037 1.035-1.037 2.712 0 3.747 1.036 1.034 2.716 1.034 3.751 0 1.036-1.035 1.036-2.712 0-3.747-1.035-1.035-2.715-1.035-3.751 0" opacity=".157" transform="translate(1) translate(36.835) translate(97.504 26.68)"/>
                <path fill="#1A2E35" d="M48.61 50.398c-.016 0-.033-.118-.053-.347-.007-.229-.064-.568-.038-1.004-.001-.873.148-2.147.628-3.643.473-1.494 1.343-3.192 2.702-4.775 1.35-1.58 3.235-3.009 5.51-3.836 2.29-.789 4.657-.866 6.702-.486 2.053.375 3.799 1.147 5.109 2.01 1.316.86 2.235 1.756 2.784 2.436.295.322.466.62.603.804.129.189.191.292.179.3-.087.09-1.097-1.65-3.732-3.278-1.301-.81-3.014-1.531-5.013-1.874-1.992-.347-4.279-.258-6.485.502-2.192.797-4.024 2.166-5.352 3.689-1.337 1.522-2.213 3.16-2.713 4.608-1.021 2.921-.709 4.908-.831 4.894M25.382 2.507c.068.043-.394.743-.87 1.984-.48 1.235-.895 3.049-.81 5.071.096 2.023.67 3.794 1.258 4.981.584 1.194 1.107 1.85 1.042 1.899-.023.018-.17-.13-.416-.42-.253-.286-.567-.742-.902-1.335-.34-.592-.662-1.344-.93-2.208-.25-.87-.436-1.852-.49-2.897-.04-1.045.059-2.04.23-2.928.19-.883.443-1.662.731-2.282.281-.62.553-1.103.78-1.409.22-.31.353-.473.377-.456" transform="translate(1) translate(36.835) translate(97.504 26.68)"/>
            </g>
            <path fill="#263238" d="M291.067 298.537H582.856V302.864H291.067z" transform="translate(1) translate(36.835)"/>
            <path stroke="#263238" stroke-width=".721" d="M374.618 64.899L374.618 134.428 347.598 109.888 322.124 109.888" transform="translate(1) translate(36.835)"/>
        </g>
        <g transform="translate(1) translate(105.449 190.371)">
            <mask id="prefix__z" fill="#fff">
                <use xlink:href="#prefix__y"/>
            </mask>
            <use stroke="#000" stroke-width=".506" opacity=".148" xlink:href="#prefix__y"/>
            <path fill="#FF7D7C" d="M1.484 25.73L32.805 26.193 33.142 1.842 1.82 1.379z" mask="url(#prefix__z)"/>
            <path fill="#FFABAB" d="M.989 26.213L12.258 10.808 18.975 20.653 23.691 15.515 32.647 26.689zM22.26 8.858c-.02 1.37-1.143 2.466-2.51 2.446-1.365-.02-2.456-1.146-2.437-2.517.02-1.37 1.143-2.465 2.508-2.445 1.366.02 2.458 1.146 2.438 2.516" mask="url(#prefix__z)"/>
        </g>
        <g transform="translate(1) translate(0 121.145)">
            <mask id="prefix__B" fill="#fff">
                <use xlink:href="#prefix__A"/>
            </mask>
            <use stroke="#000" stroke-width=".506" opacity=".148" xlink:href="#prefix__A"/>
            <path fill="#FF7D7C" d="M1.484 25.73L32.805 26.193 33.142 1.842 1.82 1.379z" mask="url(#prefix__B)"/>
            <path fill="#FFABAB" d="M.989 26.213L12.258 10.808 18.975 20.653 23.691 15.515 32.647 26.689zM22.26 8.858c-.02 1.37-1.143 2.466-2.51 2.446-1.365-.02-2.456-1.146-2.437-2.517.02-1.37 1.143-2.465 2.508-2.445 1.366.02 2.458 1.146 2.438 2.516" mask="url(#prefix__B)"/>
        </g>
    </g>
</svg>
