<svg xmlns="http://www.w3.org/2000/svg" width="16" height="16" viewBox="0 0 16 16">
    <g fill="none" fill-rule="evenodd">
        <path d="M0 0H16V16H0z"/>
        <path fill="#FFF" fill-rule="nonzero" d="M11.5 13.924c.317 0 .593-.112.826-.336.233-.224.35-.495.35-.812V6.924c0-.317-.117-.588-.35-.812-.233-.224-.509-.336-.826-.336h-.574V4.6c0-.532-.13-1.022-.392-1.47-.261-.448-.616-.803-1.064-1.064-.448-.261-.938-.392-1.47-.392s-1.022.13-1.47.392c-.448.261-.803.616-1.064 1.064-.261.448-.392.938-.392 1.47v1.176H4.5c-.317 0-.593.112-.826.336-.233.224-.35.495-.35.812v5.852c0 .317.117.588.35.812.233.224.509.336.826.336h7zM9.806 5.776H6.194V4.6c0-.317.082-.616.245-.896.163-.28.385-.502.665-.665.28-.163.579-.245.896-.245.317 0 .616.082.896.245.28.163.502.385.665.665.163.28.245.579.245.896v1.176zM8 11.026c-.317 0-.593-.117-.826-.35-.233-.233-.35-.509-.35-.826 0-.317.117-.593.35-.826.233-.233.509-.35.826-.35.317 0 .593.117.826.35.233.233.35.509.35.826 0 .317-.117.593-.35.826-.233.233-.509.35-.826.35z"/>
    </g>
</svg>
