<svg xmlns="http://www.w3.org/2000/svg" width="110" height="40" viewBox="0 0 110 40">
    <defs>
        <linearGradient id="prefix__a" x1="24.303%" x2="71.251%" y1="39.193%" y2="84.759%">
            <stop offset="0%" stop-color="#1CA7E5"/>
            <stop offset="100%" stop-color="#65D7C8"/>
        </linearGradient>
        <linearGradient id="prefix__b" x1="37.885%" x2="74.512%" y1="0%" y2="166%">
            <stop offset="0%" stop-color="#1CA7E5"/>
            <stop offset="100%" stop-color="#65D7C8"/>
        </linearGradient>
    </defs>
    <g fill="none">
        <text fill="url(#prefix__a)" font-family="Futura-Medium, Futura" font-size="18.462" font-weight="400">
            <tspan x="35.436" y="27.924">SixSense</tspan>
        </text>
        <path fill="url(#prefix__b)" d="M19.938 0c2.04 0 3.693 1.653 3.693 3.692 0 2.04-1.653 3.693-3.693 3.693-.814 0-1.567-.264-2.178-.711L3.221 20.913l12.443 11.823c.41-.158.855-.244 1.32-.244 2.04 0 3.693 1.653 3.693 3.693 0 2.039-1.653 3.692-3.692 3.692-2.04 0-3.693-1.653-3.693-3.692 0-.753.225-1.452.612-2.036L0 20.937 16.43 4.846c-.12-.363-.184-.75-.184-1.154C16.246 1.653 17.9 0 19.938 0zm-2.977 34.905c-.707 0-1.28.573-1.28 1.28 0 .707.573 1.28 1.28 1.28.707 0 1.28-.573 1.28-1.28 0-.707-.573-1.28-1.28-1.28zm4.454-26.043c2.04 0 3.693 1.653 3.693 3.692 0 .694-.192 1.343-.525 1.898l5.694 5.974-10.541 11.328L7.385 21.069l7.89-7.777 7.534 7.1-5.788 6.103 2.539 2.196 7.675-8.248-4.308-4.52c-.461.208-.973.323-1.512.323-2.039 0-3.692-1.653-3.692-3.692 0-2.04 1.653-3.692 3.692-3.692zm-6.104 7.497l-4.677 4.61 4.711 4.076 4.334-4.57-4.368-4.116zm6.081-5.085c-.707 0-1.28.573-1.28 1.28 0 .707.573 1.28 1.28 1.28.707 0 1.28-.573 1.28-1.28 0-.707-.573-1.28-1.28-1.28zm-1.477-8.862c-.707 0-1.28.573-1.28 1.28 0 .707.573 1.28 1.28 1.28.707 0 1.28-.573 1.28-1.28 0-.707-.573-1.28-1.28-1.28z"/>
    </g>
</svg>
