<svg width="16" height="190" viewBox="0 0 16 190" fill="none" xmlns="http://www.w3.org/2000/svg">
<g clip-path="url(#clip0)">
<g clip-path="url(#clip1)">
<path d="M7.99491 6.98954C7.9057 6.99139 7.82068 7.04022 7.75852 7.12531C7.69636 7.2104 7.66214 7.3248 7.66336 7.4434V10.5775C7.66273 10.6368 7.67098 10.6957 7.68762 10.7508C7.70426 10.8058 7.72897 10.8559 7.76031 10.8982C7.79165 10.9404 7.82899 10.974 7.87017 10.9969C7.91135 11.0198 7.95554 11.0316 8.00017 11.0316C8.04481 11.0316 8.089 11.0198 8.13018 10.9969C8.17135 10.974 8.2087 10.9404 8.24003 10.8982C8.27137 10.8559 8.29608 10.8058 8.31272 10.7508C8.32937 10.6957 8.33761 10.6368 8.33698 10.5775V7.4434C8.3376 7.3835 8.32917 7.32404 8.31219 7.26855C8.29521 7.21306 8.27003 7.16266 8.23813 7.12034C8.20623 7.07801 8.16827 7.04463 8.1265 7.02217C8.08472 6.9997 8.03998 6.9886 7.99492 6.98954H7.99491Z" fill="#02435D"/>
<path d="M8.00017 5.47369C8.1862 5.47369 8.33701 5.32288 8.33701 5.13684C8.33701 4.95081 8.1862 4.8 8.00017 4.8C7.81414 4.8 7.66333 4.95081 7.66333 5.13684C7.66333 5.32288 7.81414 5.47369 8.00017 5.47369Z" fill="#02435D"/>
<path d="M8.0001 1.6C4.47091 1.6 1.6001 4.47081 1.6001 8C1.6001 11.5292 4.47091 14.4 8.0001 14.4C11.5293 14.4 14.4001 11.5292 14.4001 8C14.4001 4.47081 11.5293 1.6 8.0001 1.6ZM8.0001 2.51429C11.0352 2.51429 13.4858 4.96489 13.4858 8C13.4858 11.0351 11.0352 13.4857 8.0001 13.4857C4.96499 13.4857 2.51438 11.0351 2.51438 8C2.51438 4.96489 4.96499 2.51429 8.0001 2.51429Z" fill="#02435D"/>
<path d="M7.16992 28.3496H4V26.8672H12.5312V30.1309C12.5312 31.084 12.2832 31.8398 11.7871 32.3984C11.291 32.9609 10.6348 33.2422 9.81836 33.2422C8.98242 33.2422 8.33203 32.9668 7.86719 32.416C7.40234 31.8691 7.16992 31.1016 7.16992 30.1133V28.3496ZM8.35938 28.3496V30.1309C8.35938 30.6582 8.48242 31.0605 8.72852 31.3379C8.97852 31.6152 9.33789 31.7539 9.80664 31.7539C10.2676 31.7539 10.6348 31.6133 10.9082 31.332C11.1855 31.0508 11.3281 30.6641 11.3359 30.1719V28.3496H8.35938ZM9.03906 37.7246C9.07031 37.5371 9.08594 37.3438 9.08594 37.1445C9.08594 36.4922 8.83594 36.0527 8.33594 35.8262H4V34.4023H10.3398V35.7617L9.63086 35.7969C10.1816 36.1406 10.457 36.6172 10.457 37.2266C10.457 37.4297 10.4297 37.5977 10.375 37.7305L9.03906 37.7246ZM3.88281 41.2988C3.88281 40.3965 4.16602 39.6641 4.73242 39.1016C5.30273 38.543 6.06055 38.2637 7.00586 38.2637H7.18164C7.81445 38.2637 8.37891 38.3848 8.875 38.627C9.375 38.873 9.76367 39.2168 10.041 39.6582C10.3184 40.0996 10.457 40.5918 10.457 41.1348C10.457 41.998 10.1816 42.6641 9.63086 43.1328C9.08008 43.6055 8.30078 43.8418 7.29297 43.8418H6.71875L6.71875 39.6992C6.19531 39.7422 5.78125 39.916 5.47656 40.2207C5.17188 40.5293 5.01953 40.916 5.01953 41.3809C5.01953 42.0332 5.2832 42.5645 5.81055 42.9746L5.07813 43.7422C4.69922 43.4883 4.4043 43.1484 4.19336 42.7227C3.98633 42.3008 3.88281 41.8262 3.88281 41.2988ZM9.31445 41.1289C9.31445 40.7383 9.17773 40.4219 8.9043 40.1797C8.63086 39.9414 8.25 39.7891 7.76172 39.7227V42.4355H7.86719C8.34375 42.4043 8.70312 42.2773 8.94531 42.0547C9.19141 41.832 9.31445 41.5234 9.31445 41.1289ZM7.2168 44.6855C8.19336 44.6855 8.97656 44.9121 9.56641 45.3652C10.1602 45.8184 10.457 46.4258 10.457 47.1875C10.457 47.8594 10.2227 48.4023 9.75391 48.8164H13V50.2402H4V48.9512L4.65625 48.8809C4.14063 48.4551 3.88281 47.8867 3.88281 47.1758C3.88281 46.4336 4.18164 45.832 4.7793 45.3711C5.37695 44.9141 6.18945 44.6855 7.2168 44.6855ZM7.09375 46.1094C6.44922 46.1094 5.94531 46.2324 5.58203 46.4785C5.22266 46.7285 5.04297 47.082 5.04297 47.5391C5.04297 48.1211 5.30273 48.5469 5.82227 48.8164H8.5293C9.03711 48.5547 9.29102 48.1328 9.29102 47.5508C9.29102 47.0898 9.10742 46.7344 8.74023 46.4844C8.37695 46.2344 7.82813 46.1094 7.09375 46.1094ZM4 53.2402V51.8164H10.3398V53.2402H4ZM11.9863 51.7285C12.2051 51.7285 12.3867 51.7969 12.5313 51.9336C12.6758 52.0742 12.748 52.2734 12.748 52.5312C12.748 52.7891 12.6758 52.9883 12.5313 53.1289C12.3867 53.2695 12.2051 53.3398 11.9863 53.3398C11.7715 53.3398 11.5918 53.2695 11.4473 53.1289C11.3066 52.9883 11.2363 52.7891 11.2363 52.5312C11.2363 52.2734 11.3066 52.0742 11.4473 51.9336C11.5918 51.7969 11.7715 51.7285 11.9863 51.7285ZM5.01953 57.4004C5.01953 57.7559 5.12305 58.0508 5.33008 58.2852C5.53711 58.5195 5.79297 58.6445 6.09766 58.6602V60.002C5.70313 59.9863 5.33398 59.8633 4.99023 59.6328C4.65039 59.4023 4.38086 59.0898 4.18164 58.6953C3.98242 58.3008 3.88281 57.875 3.88281 57.418C3.88281 56.5312 4.16992 55.8281 4.74414 55.3086C5.31836 54.7891 6.11133 54.5293 7.12305 54.5293H7.26953C8.23438 54.5293 9.00586 54.7871 9.58398 55.3027C10.166 55.8184 10.457 56.5215 10.457 57.4121C10.457 58.166 10.2363 58.7793 9.79492 59.252C9.35742 59.7285 8.78125 59.9785 8.06641 60.002V58.6602C8.42969 58.6445 8.72852 58.5195 8.96289 58.2852C9.19727 58.0547 9.31445 57.7598 9.31445 57.4004C9.31445 56.9395 9.14648 56.584 8.81055 56.334C8.47852 56.084 7.97266 55.957 7.29297 55.9531H7.06445C6.37695 55.9531 5.86328 56.0762 5.52344 56.3223C5.1875 56.5723 5.01953 56.9316 5.01953 57.4004ZM11.8809 62.8613H10.3398V63.9805H9.28516V62.8613H5.74609C5.50391 62.8613 5.32813 62.9082 5.21875 63.002C5.11328 63.0996 5.06055 63.2715 5.06055 63.5176C5.06055 63.6816 5.08008 63.8477 5.11914 64.0156H4.01758C3.92773 63.6914 3.88281 63.3789 3.88281 63.0781C3.88281 61.9844 4.48633 61.4375 5.69336 61.4375H9.28516V60.3945H10.3398V61.4375H11.8809V62.8613ZM3.88281 67.8652C3.88281 66.9629 4.16602 66.2305 4.73242 65.668C5.30273 65.1094 6.06055 64.8301 7.00586 64.8301H7.18164C7.81445 64.8301 8.37891 64.9512 8.875 65.1934C9.375 65.4395 9.76367 65.7832 10.041 66.2246C10.3184 66.666 10.457 67.1582 10.457 67.7012C10.457 68.5645 10.1816 69.2305 9.63086 69.6992C9.08008 70.1719 8.30078 70.4082 7.29297 70.4082H6.71875L6.71875 66.2656C6.19531 66.3086 5.78125 66.4824 5.47656 66.7871C5.17188 67.0957 5.01953 67.4824 5.01953 67.9473C5.01953 68.5996 5.2832 69.1309 5.81055 69.541L5.07813 70.3086C4.69922 70.0547 4.4043 69.7148 4.19336 69.2891C3.98633 68.8672 3.88281 68.3926 3.88281 67.8652ZM9.31445 67.6953C9.31445 67.3047 9.17773 66.9883 8.9043 66.7461C8.63086 66.5078 8.25 66.3555 7.76172 66.2891V69.002H7.86719C8.34375 68.9707 8.70313 68.8438 8.94531 68.6211C9.19141 68.3984 9.31445 68.0898 9.31445 67.6953ZM7.2168 71.252C8.19336 71.252 8.97656 71.4785 9.56641 71.9316C10.1602 72.3848 10.457 72.9922 10.457 73.7539C10.457 74.4258 10.2227 74.9688 9.75391 75.3828H13V76.8066H4V75.5176L4.65625 75.4473C4.14063 75.0215 3.88281 74.4531 3.88281 73.7422C3.88281 73 4.18164 72.3984 4.7793 71.9375C5.37695 71.4805 6.18945 71.252 7.2168 71.252ZM7.09375 72.6758C6.44922 72.6758 5.94531 72.7988 5.58203 73.0449C5.22266 73.2949 5.04297 73.6484 5.04297 74.1055C5.04297 74.6875 5.30273 75.1133 5.82227 75.3828H8.5293C9.03711 75.1211 9.29102 74.6992 9.29102 74.1172C9.29102 73.6562 9.10742 73.3008 8.74023 73.0508C8.37695 72.8008 7.82813 72.6758 7.09375 72.6758Z" fill="black"/>
<path d="M7.93921 88V186" stroke="black" stroke-width="0.5"/>
<path d="M7.9999 189.939L11.3179 185.621L4.68188 185.621L7.9999 189.939Z" fill="black"/>
</g>
</g>
<defs>
<clipPath id="clip0">
<rect width="16" height="189.939" fill="white"/>
</clipPath>
<clipPath id="clip1">
<rect width="16" height="189.939" fill="white"/>
</clipPath>
</defs>
</svg>
