<svg xmlns="http://www.w3.org/2000/svg" xmlns:xlink="http://www.w3.org/1999/xlink" width="24" height="24" viewBox="0 0 24 24">
    <defs>
        <linearGradient id="prefix__b" x1="32.162%" x2="86.092%" y1="0%" y2="166%">
            <stop offset="0%" stop-color="#1CA7E5"/>
            <stop offset="100%" stop-color="#65D7C8"/>
        </linearGradient>
        <path id="prefix__a" d="M12 21.32l.6-.7c.507-.6.987-1.213 1.44-1.84.653-.893 1.233-1.753 1.74-2.58.613-1.04 1.093-2.007 1.44-2.9.4-1.053.6-1.987.6-2.8 0-1.067-.26-2.047-.78-2.94-.52-.88-1.22-1.58-2.1-2.1-.893-.52-1.873-.78-2.94-.78s-2.047.26-2.94.78c-.88.52-1.58 1.22-2.1 2.1-.52.893-.78 1.873-.78 2.94 0 .813.2 1.747.6 2.8.347.893.827 1.86 1.44 2.9.507.827 1.087 1.687 1.74 2.58.453.627.933 1.24 1.44 1.84l.6.7zm0-8.76c-.573 0-1.06-.2-1.46-.6-.4-.4-.6-.887-.6-1.46 0-.373.093-.72.28-1.04.187-.32.437-.573.75-.76.313-.187.657-.28 1.03-.28s.72.093 1.04.28c.32.187.573.44.76.76.187.32.28.667.28 1.04s-.093.717-.28 1.03c-.187.313-.44.563-.76.75-.32.187-.667.28-1.04.28z"/>
    </defs>
    <g fill="none" fill-rule="evenodd">
        <path d="M0 0H24V24H0z"/>
        <g fill-rule="nonzero">
            <use fill="#02435D" xlink:href="#prefix__a"/>
            <use fill="url(#prefix__b)" fill-opacity=".99" xlink:href="#prefix__a"/>
        </g>
    </g>
</svg>
