<svg xmlns="http://www.w3.org/2000/svg" xmlns:xlink="http://www.w3.org/1999/xlink" width="24" height="24" viewBox="0 0 24 24">
    <defs>
        <linearGradient id="prefix__b" x1="33.74%" x2="72.12%" y1="17.605%" y2="109.464%">
            <stop offset="0%" stop-color="#1CA7E5"/>
            <stop offset="100%" stop-color="#65D7C8"/>
        </linearGradient>
        <path id="prefix__a" d="M11.429 17.516c.833 0 1.648-.118 2.445-.352.797-.234 1.544-.573 2.242-1.016.698-.442 1.328-.987 1.89-1.632.563-.646 1.022-1.386 1.376-2.22.01-.01.015-.017.015-.023v-.023l.008-.008.008-.008v-.046c0-.01.005-.021.016-.032 0-.02.002-.044.007-.07.006-.026.008-.05.008-.07 0-.021-.002-.042-.008-.063-.005-.02-.007-.042-.007-.062-.01-.021-.016-.037-.016-.047v-.031c0-.01-.003-.019-.008-.024l-.008-.008v-.023c0-.005-.005-.013-.015-.024-.354-.833-.813-1.575-1.375-2.226-.563-.651-1.188-1.2-1.875-1.649-.688-.448-1.43-.789-2.227-1.023-.797-.234-1.612-.352-2.445-.352-.834 0-1.651.118-2.453.352-.802.234-1.552.575-2.25 1.023-.698.448-1.331.998-1.899 1.649-.567.65-1.034 1.393-1.398 2.226v.047l-.008.008-.008.008v.047c0 .01-.005.02-.015.031l-.002.033-.006.037c-.005.026-.008.05-.008.07 0 .021.003.042.008.063.005.021.008.042.008.063.01.02.015.036.015.046v.032c0 .01.003.018.008.023l.008.008v.047c.364.833.828 1.573 1.39 2.219.563.645 1.193 1.19 1.891 1.632.698.443 1.445.782 2.242 1.016.797.234 1.612.352 2.446.352zm0-1c-.709 0-1.407-.094-2.094-.282-.688-.187-1.336-.468-1.945-.843-.61-.375-1.17-.844-1.68-1.407-.51-.562-.932-1.218-1.266-1.968.334-.75.755-1.407 1.266-1.97.51-.562 1.073-1.033 1.687-1.413.615-.38 1.269-.667 1.961-.86.693-.192 1.393-.289 2.102-.289.708 0 1.406.097 2.094.29.687.192 1.336.479 1.945.859.61.38 1.164.851 1.664 1.414.5.562.917 1.219 1.25 1.969-.333.75-.753 1.406-1.258 1.968-.505.563-1.062 1.032-1.672 1.407-.61.375-1.26.656-1.953.843-.693.188-1.393.282-2.101.282zm.046-1.5c.834 0 1.542-.292 2.125-.875.584-.584.875-1.292.875-2.125 0-.823-.291-1.529-.875-2.118-.583-.588-1.291-.882-2.125-.882-.822 0-1.528.294-2.117.882-.588.589-.883 1.295-.883 2.118 0 .833.295 1.541.883 2.125.589.583 1.295.875 2.117.875zm0-1c-.541 0-1.013-.198-1.414-.594-.4-.396-.601-.87-.601-1.422 0-.552.195-1.023.586-1.414.39-.39.862-.586 1.414-.586.552 0 1.023.195 1.414.586.39.39.586.862.586 1.414 0 .552-.193 1.026-.578 1.422-.386.396-.854.594-1.407.594z"/>
    </defs>
    <g fill="none" fill-rule="evenodd">
        <path d="M0 0H24V24H0z"/>
        <g fill-rule="nonzero">
            <use fill="#02435D" xlink:href="#prefix__a"/>
            <use fill="url(#prefix__b)" xlink:href="#prefix__a"/>
        </g>
    </g>
</svg>
