<svg width="67" height="16" viewBox="0 0 67 16" fill="none" xmlns="http://www.w3.org/2000/svg">
<path d="M31.1621 3.04688V9.81445C31.1576 10.7533 30.8613 11.5212 30.2734 12.1182C29.6901 12.7152 28.8971 13.0501 27.8945 13.123L27.5459 13.1367C26.4567 13.1367 25.5885 12.8428 24.9414 12.2549C24.2943 11.667 23.9661 10.8581 23.957 9.82812V3.04688H25.2559V9.78711C25.2559 10.5072 25.4541 11.0677 25.8506 11.4688C26.2471 11.8652 26.8122 12.0635 27.5459 12.0635C28.2887 12.0635 28.8561 11.8652 29.248 11.4688C29.6445 11.0723 29.8428 10.514 29.8428 9.79395V3.04688H31.1621ZM39.2832 9.38379C39.2832 10.5094 39.0257 11.4163 38.5107 12.1045C37.9958 12.7926 37.2985 13.1367 36.4189 13.1367C35.5212 13.1367 34.8148 12.8519 34.2998 12.2822V15.8438H33.0352V5.60352H34.1904L34.252 6.42383C34.7669 5.78581 35.4824 5.4668 36.3984 5.4668C37.2871 5.4668 37.9889 5.80176 38.5039 6.47168C39.0234 7.1416 39.2832 8.07357 39.2832 9.26758V9.38379ZM38.0186 9.24023C38.0186 8.40625 37.8408 7.74772 37.4854 7.26465C37.1299 6.78158 36.6423 6.54004 36.0225 6.54004C35.2568 6.54004 34.6826 6.87956 34.2998 7.55859V11.0928C34.6781 11.7673 35.2568 12.1045 36.0361 12.1045C36.6423 12.1045 37.123 11.8652 37.4785 11.3867C37.8385 10.9036 38.0186 10.1882 38.0186 9.24023ZM42.2705 13H41.0059V2.5H42.2705V13ZM43.9658 9.2334C43.9658 8.50879 44.1071 7.8571 44.3896 7.27832C44.6768 6.69954 45.0732 6.25293 45.5791 5.93848C46.0895 5.62402 46.6706 5.4668 47.3223 5.4668C48.3294 5.4668 49.1429 5.81543 49.7627 6.5127C50.387 7.20996 50.6992 8.13737 50.6992 9.29492V9.38379C50.6992 10.1038 50.5602 10.751 50.2822 11.3252C50.0088 11.8949 49.6146 12.3392 49.0996 12.6582C48.5892 12.9772 48.0013 13.1367 47.3359 13.1367C46.3333 13.1367 45.5199 12.7881 44.8955 12.0908C44.2757 11.3936 43.9658 10.4707 43.9658 9.32227V9.2334ZM45.2373 9.38379C45.2373 10.2041 45.4264 10.8626 45.8047 11.3594C46.1875 11.8561 46.6979 12.1045 47.3359 12.1045C47.9785 12.1045 48.4889 11.8538 48.8672 11.3525C49.2454 10.8467 49.4346 10.1403 49.4346 9.2334C49.4346 8.4222 49.2409 7.76595 48.8535 7.26465C48.4707 6.75879 47.9603 6.50586 47.3223 6.50586C46.6979 6.50586 46.1943 6.75423 45.8115 7.25098C45.4287 7.74772 45.2373 8.45866 45.2373 9.38379ZM56.8516 13C56.7786 12.8542 56.7194 12.5944 56.6738 12.2207C56.0859 12.8314 55.3841 13.1367 54.5684 13.1367C53.8392 13.1367 53.2399 12.9316 52.7705 12.5215C52.3057 12.1068 52.0732 11.5827 52.0732 10.9492C52.0732 10.179 52.3649 9.58203 52.9482 9.1582C53.5361 8.72982 54.361 8.51562 55.4229 8.51562H56.6533V7.93457C56.6533 7.49251 56.5212 7.1416 56.2568 6.88184C55.9925 6.61751 55.6029 6.48535 55.0879 6.48535C54.6367 6.48535 54.2585 6.59928 53.9531 6.82715C53.6478 7.05501 53.4951 7.33073 53.4951 7.6543H52.2236C52.2236 7.28516 52.3535 6.92969 52.6133 6.58789C52.8776 6.24154 53.2331 5.9681 53.6797 5.76758C54.1309 5.56706 54.6253 5.4668 55.1631 5.4668C56.0153 5.4668 56.6829 5.68099 57.166 6.10938C57.6491 6.5332 57.8997 7.11882 57.918 7.86621V11.2705C57.918 11.9495 58.0046 12.4896 58.1777 12.8906V13H56.8516ZM54.7529 12.0361C55.1494 12.0361 55.5254 11.9336 55.8809 11.7285C56.2363 11.5234 56.4938 11.2568 56.6533 10.9287V9.41113H55.6621C54.1126 9.41113 53.3379 9.86458 53.3379 10.7715C53.3379 11.168 53.4701 11.4779 53.7344 11.7012C53.9987 11.9245 54.3382 12.0361 54.7529 12.0361ZM59.5928 9.24023C59.5928 8.10547 59.8617 7.19401 60.3994 6.50586C60.9372 5.81315 61.6413 5.4668 62.5117 5.4668C63.3776 5.4668 64.0635 5.76302 64.5693 6.35547V2.5H65.834V13H64.6719L64.6104 12.207C64.1045 12.8268 63.4004 13.1367 62.498 13.1367C61.6413 13.1367 60.9417 12.7858 60.3994 12.084C59.8617 11.3822 59.5928 10.4661 59.5928 9.33594V9.24023ZM60.8574 9.38379C60.8574 10.2223 61.0306 10.8786 61.377 11.3525C61.7233 11.8265 62.2018 12.0635 62.8125 12.0635C63.6146 12.0635 64.2002 11.7035 64.5693 10.9834V7.58594C64.1911 6.88867 63.61 6.54004 62.8262 6.54004C62.2064 6.54004 61.7233 6.7793 61.377 7.25781C61.0306 7.73633 60.8574 8.44499 60.8574 9.38379Z" fill="#F56C6C"/>
<path d="M7.4674 6.91459C7.4551 6.89887 7.43939 6.88616 7.42144 6.87742C7.4035 6.86868 7.38381 6.86414 7.36385 6.86414C7.34389 6.86414 7.3242 6.86868 7.30626 6.87742C7.28832 6.88616 7.2726 6.89887 7.2603 6.91459L5.41939 9.24367C5.40421 9.26305 5.3948 9.28631 5.39222 9.31079C5.38964 9.33527 5.394 9.35998 5.4048 9.3821C5.4156 9.40421 5.43241 9.42285 5.4533 9.43586C5.47419 9.44888 5.49833 9.45575 5.52294 9.4557H6.73761V13.44C6.73761 13.5123 6.79679 13.5714 6.86911 13.5714H7.85531C7.92763 13.5714 7.9868 13.5123 7.9868 13.44V9.45734H9.20476C9.31489 9.45734 9.3757 9.33078 9.30831 9.24531L7.4674 6.91459Z" fill="#F56C6C"/>
<path d="M12.2848 5.39746C11.532 3.41191 9.61382 2 7.36692 2C5.12003 2 3.20187 3.41027 2.44907 5.39582C1.04044 5.76565 0 7.04935 0 8.57468C0 10.3909 1.47108 11.862 3.28569 11.862H3.94481C4.01713 11.862 4.0763 11.8028 4.0763 11.7305V10.7443C4.0763 10.672 4.01713 10.6128 3.94481 10.6128H3.28569C2.73178 10.6128 2.21073 10.3926 1.82283 9.99316C1.43657 9.59539 1.23111 9.05956 1.24919 8.504C1.26398 8.07007 1.41191 7.66244 1.67983 7.31891C1.95432 6.96881 2.33894 6.71404 2.76629 6.60063L3.38925 6.43791L3.61772 5.83632C3.75907 5.46157 3.95631 5.11147 4.20451 4.79424C4.44953 4.47982 4.73977 4.20342 5.06579 3.97405C5.74134 3.49903 6.53687 3.24754 7.36692 3.24754C8.19698 3.24754 8.99251 3.49903 9.66806 3.97405C9.99515 4.20416 10.2844 4.4803 10.5293 4.79424C10.7775 5.11147 10.9748 5.46321 11.1161 5.83632L11.343 6.43626L11.9643 6.60063C12.8551 6.84061 13.4781 7.65093 13.4781 8.57468C13.4781 9.11873 13.2661 9.63156 12.8814 10.0162C12.6928 10.2059 12.4684 10.3563 12.2213 10.4587C11.9741 10.5612 11.7091 10.6135 11.4416 10.6128H10.7825C10.7101 10.6128 10.651 10.672 10.651 10.7443V11.7305C10.651 11.8028 10.7101 11.862 10.7825 11.862H11.4416C13.2562 11.862 14.7273 10.3909 14.7273 8.57468C14.7273 7.05099 13.6901 5.76893 12.2848 5.39746Z" fill="#F56C6C"/>
</svg>
