<svg width="25" height="18" viewBox="0 0 25 18" fill="none" xmlns="http://www.w3.org/2000/svg">
<path d="M5.40605 2.46564H5.42859L5.44351 2.44875L6.39917 1.36735H10.5176L11.2849 2.22235L11.3073 2.24726L11.2955 2.24578L11.3985 2.34883L11.5007 2.45099L11.5153 2.46564H11.536H21.2163C21.4898 2.46564 21.7282 2.71851 21.7282 3.05418V3.51393V3.56393H21.7782H22.4423H22.4923V3.51393V3.05418C22.4923 2.31413 21.9362 1.7271 21.2419 1.7271H11.8391C11.7093 1.58453 11.4953 1.3522 11.311 1.15253L11.0635 0.884707L10.9877 0.802732L10.967 0.78036L10.9616 0.774531L10.9602 0.773044L10.9598 0.772668L10.9598 0.772574L10.9597 0.77255L10.9598 0.772517L10.9584 0.771157L10.8562 0.668991L10.8416 0.654346H10.8209H6.09567H6.07496L6.06032 0.66899L5.95815 0.771157L5.95806 0.771071L5.95577 0.773703C5.46469 1.33844 5.21041 1.59542 5.07883 1.7271H3.77138C3.0764 1.7271 2.52092 2.34034 2.52092 3.05418V3.51393V3.56393H2.57092H3.23501H3.28501V3.51393V3.05418C3.28501 2.71851 3.52341 2.46564 3.79692 2.46564H5.40605Z" fill="#02435D" stroke="black" stroke-width="0.1"/>
<path d="M1.84026 4.77566L1.84004 4.77545C1.75037 4.86512 1.70289 5.00198 1.72646 5.16714C1.72646 5.16717 1.72647 5.1672 1.72647 5.16723L3.35485 16.286H21.6584L23.2868 5.16723L1.84026 4.77566ZM1.84026 4.77566L1.84373 4.77133M1.84026 4.77566L1.84373 4.77133M1.84373 4.77133C1.93267 4.66015 2.06808 4.6113 2.26443 4.6113M1.84373 4.77133L2.26443 4.6113M2.26443 4.6113H22.7999M2.26443 4.6113H22.7999M22.7999 4.6113C22.9598 4.6113 23.0995 4.67807 23.2198 4.77229M22.7999 4.6113L23.2198 4.77229M23.2198 4.77229C23.2663 4.86865 23.3096 5.00729 23.2868 5.16705L23.2198 4.77229ZM0.963393 5.28354L0.963431 5.28379L2.70026 17.0074L2.70659 17.0501H2.74972H22.238H22.2812L22.2875 17.0074L24.0241 5.28539C24.1035 4.91249 23.9968 4.53928 23.7566 4.27243C23.517 4.00624 23.1714 3.84722 22.7744 3.84722H2.23889C1.84192 3.84722 1.49626 4.00624 1.25669 4.27243C1.01619 4.53965 0.91037 4.91237 0.963393 5.28354Z" fill="#02435D" stroke="black" stroke-width="0.1"/>
</svg>
