<svg width="19" height="18" viewBox="0 0 19 18" fill="none" xmlns="http://www.w3.org/2000/svg">
<path d="M17.2857 0.95H1.28568C0.629494 0.95 0.0928223 1.48667 0.0928223 2.14286V15.8571C0.0928223 16.5133 0.629494 17.05 1.28568 17.05H17.2857C17.9419 17.05 18.4785 16.5133 18.4785 15.8571V2.14286C18.4785 1.48667 17.9419 0.95 17.2857 0.95ZM17.8071 15.8571C17.8071 16.1438 17.5723 16.3786 17.2857 16.3786H1.28568C0.999008 16.3786 0.764251 16.1438 0.764251 15.8571V2.14286C0.764251 1.85619 0.999008 1.62143 1.28568 1.62143H17.2857C17.5723 1.62143 17.8071 1.85619 17.8071 2.14286V15.8571Z" fill="#02435D" stroke="black" stroke-width="0.1"/>
<path d="M5.28575 6.19279C6.11336 6.19279 6.76432 5.54183 6.76432 4.71422C6.76432 3.8866 6.11336 3.23564 5.28575 3.23564C4.45813 3.23564 3.80718 3.8866 3.80718 4.71422C3.80718 5.54183 4.45813 6.19279 5.28575 6.19279ZM5.28575 3.82136C5.77242 3.82136 6.17861 4.22754 6.17861 4.71422C6.17861 5.20089 5.77242 5.60707 5.28575 5.60707C4.79908 5.60707 4.39289 5.20089 4.39289 4.71422C4.39289 4.22754 4.79908 3.82136 5.28575 3.82136Z" fill="#02435D" stroke="black" stroke-width="0.1"/>
<path d="M10.7535 6.54046L10.7537 6.54025L10.7496 6.53608C10.6158 6.40226 10.4127 6.40226 10.2789 6.53608L10.3142 6.57143L10.2789 6.53608L10.2775 6.53744C10.2503 6.56459 10.2124 6.60252 10.2076 6.67106L8.3328 9.80502L6.74957 8.22179C6.61742 8.08964 6.50044 8.02371 6.39517 8.01107C6.28691 7.99808 6.20102 8.04249 6.136 8.10751L6.13479 8.10871C6.12137 8.12213 6.10495 8.13855 6.09207 8.15572C6.08173 8.16951 6.07002 8.18842 6.06582 8.2112L2.70097 13.344L2.70094 13.344L2.69991 13.3457C2.59779 13.5159 2.66866 13.7167 2.83135 13.8143L2.84322 13.8214H2.85707H2.87383C2.92625 13.8476 2.99038 13.8786 3.05707 13.8786H15.9142C16.0113 13.8786 16.0961 13.846 16.1567 13.7854C16.2174 13.7247 16.2499 13.6399 16.2499 13.5429V13.5221L16.2353 13.5075C16.2118 13.484 16.1934 13.4539 16.1714 13.4171L16.17 13.4149C16.15 13.3814 16.1264 13.3422 16.0946 13.3097L10.7535 6.54046ZM8.6104 10.5455L8.61077 10.5458L8.6143 10.5399L10.5201 7.34488L15.182 13.2071H3.5211L6.37946 8.85024L7.99315 10.4639C8.08221 10.553 8.14389 10.585 8.20221 10.6142C8.26428 10.6598 8.33295 10.6873 8.40613 10.6782C8.48079 10.6689 8.54857 10.6228 8.6104 10.5455Z" fill="#02435D" stroke="black" stroke-width="0.1"/>
</svg>
